<?xml version="1.0" encoding="utf-8"?>
<!-- Generator: Adobe Illustrator 25.4.1, SVG Export Plug-In . SVG Version: 6.00 Build 0)  -->
<svg version="1.1" id="Capa_1" xmlns="http://www.w3.org/2000/svg" xmlns:xlink="http://www.w3.org/1999/xlink" x="0px" y="0px"
	 viewBox="0 0 514 158.3" style="enable-background:new 0 0 514 158.3;" xml:space="preserve">
<style type="text/css">
	.st0{fill:#FFA500;}
	.st1{fill:#6D6F72;}
	.st2{fill:#2C9857;}
</style>
<g id="Grupo_12160" transform="translate(0.5)">
	<g id="Grupo_1" transform="translate(0 0)">
		<path id="Sustracción_2" class="st0" d="M506.5,149.4H6.5v-40.2h500V149.4z M354.9,137L354.9,137l-1.2,2c1.6,1.1,3.5,1.7,5.4,1.6
			c2.8,0.5,5.5-1.5,6-4.3c0.1-0.5,0.1-1,0-1.5v-9.4h-2.5v1.5c-1-1.1-2.4-1.7-3.8-1.6c-2.9-0.2-5.4,2-5.6,4.9c0,0.2,0,0.3,0,0.5
			c0,2.9,2.3,5.4,5.3,5.4c0.1,0,0.2,0,0.3,0c1.4,0.1,2.8-0.5,3.7-1.5v0.6c0,2.3-1.1,3.4-3.5,3.4C357.5,138.4,356.1,137.9,354.9,137
			L354.9,137z M280.5,137L280.5,137l-1.2,2c1.6,1.1,3.5,1.7,5.4,1.6c2.8,0.5,5.5-1.5,6-4.3c0.1-0.5,0.1-1,0-1.6v-9.4h-2.5v1.5
			c-1-1.1-2.4-1.7-3.8-1.6c-2.9-0.2-5.4,2-5.6,4.9c0,0.2,0,0.3,0,0.5c0,2.9,2.3,5.4,5.3,5.4c0.1,0,0.2,0,0.3,0
			c1.4,0.1,2.8-0.5,3.7-1.5v0.6c0,2.3-1.1,3.4-3.5,3.4C283.1,138.4,281.7,137.9,280.5,137L280.5,137z M450.8,127.5v5.3
			c-0.2,1.9,1.2,3.5,3.1,3.7c0.3,0,0.5,0,0.8,0c0.9,0,1.8-0.2,2.5-0.7l-0.7-1.8c-0.4,0.3-0.9,0.5-1.5,0.5c-1,0-1.5-0.6-1.5-1.7v-5.3
			h3v-2.1h-3v-2.5h-2.6v2.5h-1.8v2.1L450.8,127.5z M378.3,129.9c-3,0-4.6,1.2-4.6,3.3c0,2,1.7,3.3,4.1,3.3c1.3,0.1,2.7-0.4,3.5-1.5
			v1.4h2.5v-6.5c0-3.1-1.7-4.7-5-4.7c-1.7-0.1-3.3,0.4-4.7,1.4l1,1.9c1-0.7,2.2-1.1,3.4-1.1c1.8,0,2.8,0.8,2.8,2.4v0.2L378.3,129.9z
			 M270.9,129.9c-3,0-4.6,1.2-4.6,3.3c0,2,1.7,3.3,4.1,3.3c1.3,0.1,2.7-0.4,3.5-1.5v1.4h2.5v-6.5c0-3.1-1.7-4.7-5-4.7
			c-1.7-0.1-3.3,0.4-4.7,1.4l1,1.9c1-0.7,2.2-1.1,3.4-1.1c1.8,0,2.8,0.9,2.8,2.4v0.2L270.9,129.9z M89.9,127.4v5.3
			c-0.2,1.9,1.2,3.5,3.1,3.7c0.3,0,0.5,0,0.8,0c0.9,0,1.8-0.2,2.5-0.7l-0.7-1.8c-0.4,0.3-0.9,0.5-1.5,0.5c-1,0-1.5-0.6-1.5-1.7v-5.3
			h3v-2.1h-3v-2.5h-2.6v2.5H88v2.1H89.9z M80.7,129.9c-3,0-4.6,1.2-4.6,3.3c0,2,1.7,3.3,4.1,3.3c1.3,0.1,2.7-0.4,3.5-1.5v1.4h2.5
			v-6.5c0-3.1-1.7-4.7-5-4.7c-1.7-0.1-3.3,0.4-4.7,1.4l1,1.9c1-0.7,2.2-1.1,3.4-1.1c1.8,0,2.8,0.8,2.8,2.4v0.2H80.7z M31.8,129.9
			c-3,0-4.6,1.2-4.6,3.3c0,2,1.7,3.3,4.1,3.3c1.3,0.1,2.7-0.4,3.5-1.5v1.4h2.4v-6.5c0-3.1-1.7-4.7-5.1-4.7c-1.7-0.1-3.3,0.4-4.7,1.4
			l1,1.9c1-0.7,2.2-1.1,3.4-1.1c1.8,0,2.8,0.9,2.8,2.4v0.2H31.8z M471.3,133.3L471.3,133.3l-1,2c1.4,0.8,3,1.3,4.7,1.2
			c3.1,0,5-1.3,5-3.4c0-2.5-2.4-2.9-4.3-3.2c-1.4-0.2-2.6-0.4-2.6-1.4c0-0.8,0.8-1.2,2.3-1.2c1.1,0,2.2,0.3,3.2,0.8l1-2
			c-1.3-0.7-2.7-1-4.2-1c-3,0-4.9,1.4-4.9,3.5c0,2.6,2.4,3,4.4,3.3c1.3,0.2,2.5,0.4,2.5,1.3c0,0.8-0.8,1.2-2.3,1.2
			C473.8,134.4,472.4,134,471.3,133.3L471.3,133.3z M463.4,125.2c-3-0.1-5.6,2.2-5.7,5.3c0,0.1,0,0.3,0,0.4c0.3,3.4,3.3,6,6.7,5.7
			c1.5-0.1,2.8-0.8,3.8-1.8l-1.4-1.6c-0.8,0.8-1.9,1.2-3,1.2c-1.7,0.2-3.2-1-3.6-2.7h8.7c0-0.2,0-0.5,0-0.8c0.2-3-2.1-5.6-5.1-5.7
			C463.8,125.2,463.6,125.1,463.4,125.2z M428.1,125.2c-3-0.1-5.6,2.2-5.7,5.3c0,0.1,0,0.3,0,0.4c0.3,3.4,3.3,6,6.7,5.7
			c1.4-0.1,2.8-0.8,3.8-1.8l-1.4-1.6c-0.8,0.8-1.9,1.2-3,1.2c-1.7,0.2-3.2-1-3.6-2.7h8.7c0-0.1,0-0.5,0-0.8c0.2-3-2.1-5.6-5.1-5.7
			C428.4,125.2,428.2,125.1,428.1,125.2z M345.7,125.2c-3.1,0.1-5.6,2.8-5.4,5.9c0.1,3.1,2.8,5.6,5.9,5.4c3-0.1,5.5-2.6,5.4-5.7
			c0-3.1-2.4-5.6-5.5-5.7C345.9,125.1,345.8,125.1,345.7,125.2z M326.3,125.2c-3.1,0.1-5.6,2.8-5.4,5.9c0.1,3.1,2.8,5.6,5.9,5.4
			c3-0.1,5.5-2.6,5.5-5.7c0-3.1-2.4-5.6-5.5-5.7C326.5,125.1,326.4,125.1,326.3,125.2L326.3,125.2z M299,125.2
			c-3-0.1-5.6,2.2-5.7,5.3c0,0.1,0,0.3,0,0.4c0.3,3.4,3.3,6,6.7,5.7c1.5-0.1,2.8-0.8,3.8-1.8l-1.4-1.6c-0.8,0.8-1.9,1.2-3,1.2
			c-1.7,0.2-3.2-1-3.6-2.7h8.7c0-0.1,0-0.5,0-0.8c0.2-3-2.1-5.6-5.1-5.7C299.3,125.2,299.1,125.1,299,125.2z M206.5,125.2
			c-3.1,0.1-5.6,2.8-5.4,5.9c0.1,3.1,2.8,5.6,5.9,5.4c3-0.1,5.5-2.6,5.5-5.7c0-3.1-2.4-5.6-5.5-5.7
			C206.8,125.1,206.6,125.1,206.5,125.2z M194.5,125.2c-3.1-0.2-5.8,2.2-6,5.4c-0.2,3.1,2.2,5.8,5.4,6c0.2,0,0.4,0,0.7,0
			c1.9,0.1,3.8-0.9,4.7-2.6l-2-1.2c-0.6,1-1.6,1.6-2.8,1.5c-1.8,0.1-3.3-1.3-3.4-3.1c0-0.1,0-0.2,0-0.4c-0.1-1.8,1.3-3.4,3.1-3.5
			c0.1,0,0.2,0,0.3,0c1.1,0,2.2,0.6,2.8,1.5l2-1.2C198.3,126,196.5,125,194.5,125.2z M150.2,125.2c-3.1-0.2-5.8,2.2-6,5.4
			c-0.2,3.1,2.2,5.8,5.4,6c0.2,0,0.4,0,0.7,0c1.9,0.1,3.8-0.9,4.7-2.6l-2-1.2c-0.6,1-1.6,1.6-2.8,1.5c-1.8,0.1-3.3-1.3-3.4-3.1
			c0-0.1,0-0.2,0-0.4c-0.1-1.8,1.3-3.4,3.1-3.5c0.1,0,0.2,0,0.3,0c1.1,0,2.2,0.6,2.8,1.5l2-1.2C154,126,152.2,125,150.2,125.2z
			 M131,125.2c-3.1,0.1-5.6,2.8-5.4,5.9c0.1,3.1,2.8,5.6,5.9,5.4c3-0.1,5.5-2.6,5.4-5.7c0-3.1-2.4-5.6-5.5-5.7
			C131.3,125.1,131.1,125.1,131,125.2z M103.3,125.2c-3.1,0.1-5.6,2.8-5.4,5.9c0.1,3.1,2.8,5.6,5.9,5.4c3-0.1,5.5-2.6,5.5-5.7
			c0-3.1-2.4-5.6-5.5-5.7C103.6,125.1,103.4,125.1,103.3,125.2z M59.8,125.2c-3.1-0.1-5.8,2.3-5.9,5.5c-0.1,3.1,2.3,5.8,5.5,5.9
			c0.1,0,0.3,0,0.4,0c3.1,0.1,5.8-2.3,5.9-5.5c0.1-3.1-2.3-5.8-5.5-5.9C60,125.2,59.9,125.2,59.8,125.2z M43,134.9L43,134.9
			c0.9,1.1,2.3,1.6,3.7,1.6c3,0.1,5.5-2.2,5.6-5.2c0-0.2,0-0.3,0-0.5c0.2-3-2.1-5.5-5.1-5.7c-0.2,0-0.3,0-0.5,0
			c-1.3,0-2.6,0.5-3.6,1.5V121h-2.6v15.4H43L43,134.9L43,134.9z M441.9,127.4c1.7,0,2.6,1,2.6,2.9v6h2.6V130
			c0.3-2.4-1.4-4.5-3.7-4.8c-0.3,0-0.6,0-0.9,0c-1.4-0.1-2.8,0.5-3.8,1.6v-1.4h-2.5v11.1h2.6v-5.6c-0.2-1.6,0.9-3.1,2.5-3.3
			C441.5,127.4,441.7,127.4,441.9,127.4z M411.1,121.8v14.5h10.3v-2.3h-7.6v-12.3L411.1,121.8L411.1,121.8z M334.7,121v15.4h2.6V121
			L334.7,121z M312.7,127.4c1.7,0,2.6,1,2.6,2.9v6h2.6V130c0.3-2.4-1.4-4.5-3.7-4.8c-0.3,0-0.6,0-0.9,0c-1.4-0.1-2.8,0.5-3.8,1.6
			v-1.4H307v11.1h2.6v-5.6c-0.2-1.6,0.9-3.1,2.5-3.3C312.3,127.4,312.5,127.4,312.7,127.4L312.7,127.4z M258.7,127.4
			c1.6,0,2.5,1,2.5,2.9v6h2.6V130c0.3-2.3-1.3-4.5-3.7-4.8c-0.3,0-0.6-0.1-0.9,0c-1.6-0.1-3.1,0.6-4.2,1.8c-0.8-1.2-2.3-1.9-3.7-1.8
			c-1.4-0.1-2.7,0.5-3.6,1.5v-1.4h-2.5v11.1h2.6v-5.6c0-2.1,1.1-3.3,2.9-3.3c1.6,0,2.5,1,2.5,2.9v6h2.6v-5.6
			C255.8,128.7,256.9,127.4,258.7,127.4L258.7,127.4z M238.9,121.8v14.5h2.7v-14.5L238.9,121.8z M174.9,127.4c1.7,0,2.6,1,2.6,2.9v6
			h2.6V130c0.3-2.4-1.4-4.5-3.7-4.8c-0.3,0-0.6,0-0.9,0c-1.4-0.1-2.8,0.5-3.8,1.6v-1.4h-2.5v11.1h2.6v-5.6c-0.2-1.6,0.9-3.1,2.5-3.3
			C174.5,127.4,174.7,127.4,174.9,127.4L174.9,127.4z M157.2,121v15.4h2.6V121H157.2z M111.3,125.3v11.1h2.6V131
			c-0.2-1.7,0.9-3.2,2.6-3.4c0.2,0,0.4,0,0.6,0c0.2,0,0.4,0,0.6,0.1v-2.5c-1.5-0.2-3,0.5-3.9,1.7v-1.6H111.3z M68.2,125.3v11.1h2.6
			V131c-0.2-1.7,0.9-3.2,2.6-3.4c0.2,0,0.4,0,0.6,0c0.2,0,0.4,0,0.6,0.1v-2.5c-1.5-0.2-3,0.5-3.9,1.7v-1.6H68.2z M15.7,121.8v14.5
			H26v-2.3h-7.6v-12.3L15.7,121.8L15.7,121.8z M368.5,125.3v11.1h2.6v-11.1H368.5z M183.4,125.3v11.1h2.6v-11.1H183.4z M163.2,125.3
			v11.1h2.6v-11.1H163.2z M120,125.3v11.1h2.6v-11.1H120z M396.2,130.1v3.6h2.2v-3.6h3.7v-2.1h-3.7v-3.6h-2.2v3.6h-3.7v2.1H396.2z
			 M224,130.1v3.6h2.2v-3.6h3.7v-2.1h-3.7v-3.6H224v3.6h-3.7v2.1H224z M370.9,120.9l-2.8,2.8h2.2l3.6-2.8L370.9,120.9z M165.6,120.9
			l-2.8,2.8h2.2l3.6-2.8L165.6,120.9z M184.8,120.3c-0.9,0.1-1.5,0.8-1.5,1.7c0.1,0.9,0.8,1.5,1.7,1.5c0.8-0.1,1.5-0.8,1.5-1.6
			C186.4,121,185.7,120.3,184.8,120.3C184.8,120.3,184.8,120.3,184.8,120.3L184.8,120.3z M121.3,120.3c-0.9,0.1-1.5,0.8-1.5,1.7
			s0.8,1.5,1.7,1.5c0.8-0.1,1.5-0.8,1.5-1.6C123,121,122.3,120.3,121.3,120.3C121.4,120.3,121.3,120.3,121.3,120.3L121.3,120.3z
			 M378.4,134.6c-1.3,0-2.1-0.6-2.1-1.5c0-1,0.7-1.5,2.2-1.5h2.7v1.3C380.7,134,379.6,134.7,378.4,134.6L378.4,134.6z M271,134.6
			c-1.3,0-2.1-0.6-2.1-1.5c0-1,0.7-1.5,2.2-1.5h2.7v1.3C273.3,134,272.2,134.7,271,134.6L271,134.6z M80.8,134.6
			c-1.3,0-2.1-0.6-2.1-1.5c0-1,0.7-1.5,2.2-1.5h2.7v1.3C83.1,134,82,134.7,80.8,134.6L80.8,134.6z M31.8,134.6
			c-1.3,0-2.1-0.6-2.1-1.5c0-1,0.7-1.5,2.2-1.5h2.7v1.3C34.2,134,33,134.7,31.8,134.6L31.8,134.6z M345.7,134.3
			c-1.8,0-3.3-1.4-3.3-3.2c0-0.1,0-0.2,0-0.3c-0.1-1.8,1.3-3.4,3.1-3.5c1.8-0.1,3.4,1.3,3.5,3.1c0,0.1,0,0.2,0,0.3
			c0.1,1.8-1.2,3.3-3,3.5C345.9,134.3,345.8,134.3,345.7,134.3L345.7,134.3z M326.3,134.3c-1.8,0-3.3-1.4-3.3-3.2c0-0.1,0-0.2,0-0.3
			c-0.1-1.8,1.3-3.4,3.1-3.5c1.8-0.1,3.4,1.3,3.5,3.1c0,0.1,0,0.2,0,0.4c0.1,1.8-1.2,3.3-3,3.5C326.5,134.3,326.4,134.3,326.3,134.3
			L326.3,134.3z M206.5,134.3c-1.8,0-3.3-1.4-3.3-3.2c0-0.1,0-0.2,0-0.3c-0.1-1.8,1.3-3.4,3.1-3.5c1.8-0.1,3.4,1.3,3.5,3.1
			c0,0.1,0,0.2,0,0.3c0.1,1.8-1.2,3.3-3,3.5C206.7,134.3,206.6,134.3,206.5,134.3L206.5,134.3z M131,134.3c-1.8,0-3.3-1.4-3.3-3.2
			c0-0.1,0-0.2,0-0.3c-0.1-1.8,1.3-3.4,3.1-3.5c1.8-0.1,3.4,1.3,3.5,3.1c0,0.1,0,0.2,0,0.4c0.1,1.8-1.2,3.3-3,3.5
			C131.2,134.3,131.1,134.3,131,134.3L131,134.3z M103.3,134.3c-1.8,0-3.3-1.4-3.3-3.2c0-0.1,0-0.2,0-0.3c-0.1-1.8,1.3-3.4,3.1-3.5
			c1.8-0.1,3.4,1.3,3.5,3.1c0,0.1,0,0.2,0,0.4c0.1,1.8-1.2,3.3-3,3.5C103.5,134.3,103.4,134.3,103.3,134.3L103.3,134.3z M59.8,134.3
			c-1.8,0-3.3-1.4-3.3-3.2c0-0.1,0-0.2,0-0.3c-0.1-1.8,1.3-3.4,3.1-3.5c1.8-0.1,3.4,1.3,3.5,3.1c0,0.1,0,0.2,0,0.4
			c0.1,1.8-1.2,3.3-3,3.5C60,134.3,59.9,134.3,59.8,134.3z M46.4,134.3c-1.8,0-3.3-1.4-3.3-3.2c0-0.1,0-0.2,0-0.3
			c-0.1-1.8,1.3-3.4,3.1-3.5c1.8-0.1,3.4,1.3,3.5,3.1c0,0.1,0,0.2,0,0.4c0.1,1.8-1.2,3.3-3,3.5C46.6,134.3,46.5,134.3,46.4,134.3
			L46.4,134.3z M359.2,133.7c-1.7-0.1-3.1-1.6-3-3.4c0.1-1.7,1.6-3.1,3.4-3c1.7,0.1,3,1.5,3,3.1c0,1.7-1.4,3.2-3.1,3.2
			C359.3,133.7,359.3,133.7,359.2,133.7z M284.8,133.7c-1.7-0.1-3.1-1.6-3-3.4s1.6-3.1,3.4-3c1.7,0.1,3,1.5,3,3.1
			c0,1.7-1.4,3.2-3.1,3.2C285,133.7,284.9,133.7,284.8,133.7z M466.6,130h-6.3c0.3-1.7,2-2.9,3.7-2.6
			C465.3,127.6,466.3,128.6,466.6,130z M431.2,130h-6.3c0.3-1.7,2-2.9,3.7-2.6C429.9,127.6,431,128.6,431.2,130z M302.1,130h-6.3
			c0.3-1.7,2-2.9,3.7-2.6C300.8,127.6,301.9,128.6,302.1,130z"/>
		<path id="Trazado_36" class="st1" d="M436.7,71c-0.1-1.1-0.2-2.3-0.2-3.6c0-1.3,0-2.6,0-4V48.5c0-2.4-0.3-4.8-0.9-7.1
			c-0.6-2.2-1.6-4.2-3.1-5.9c-1.5-1.8-3.5-3.1-5.7-4c-2.8-1-5.8-1.6-8.7-1.5h-0.3c-2.2,0-4.4,0.2-6.6,0.6c-1.9,0.3-3.7,0.8-5.5,1.4
			c-1.3,0.5-2.6,1-3.8,1.7l2.4,8.6c1-0.7,2.1-1.2,3.3-1.6c1.3-0.5,2.6-0.9,4-1.2c1.4-0.3,2.9-0.4,4.3-0.5c0.7,0,1.3,0,2,0.1
			c0.6,0.1,1.3,0.2,1.9,0.4c0.9,0.3,1.7,0.7,2.3,1.4c0.5,0.5,0.9,1.1,1.1,1.8c0.2,0.6,0.3,1.2,0.3,1.8v0.6c-1.9,0-3.8,0.1-5.6,0.2
			c-1.5,0.2-3,0.4-4.4,0.7c-2.7,0.5-5.3,1.6-7.7,3c-2.1,1.3-3.8,3-5,5.1c-1.2,2.2-1.8,4.7-1.7,7.3c0,1.7,0.3,3.4,0.9,4.9
			c0.6,1.6,1.5,3,2.7,4.2c1.2,1.3,2.6,2.3,4.2,2.9c1.8,0.7,3.7,1.1,5.7,1.1c1.8,0,3.7-0.3,5.4-0.8c0.5-0.2,1-0.3,1.4-0.5
			c2-0.9,3.8-2.2,5.1-3.9h0.3l0.8,4.3H437C436.9,73.1,436.8,72.1,436.7,71 M423.8,58.3c0,0.4,0,0.8,0,1.2c-0.1,0.4-0.1,0.8-0.2,1.1
			c-0.3,0.9-0.8,1.8-1.4,2.5c-0.6,0.7-1.4,1.3-2.3,1.8c-0.6,0.3-1.3,0.5-2,0.6c-0.3,0-0.6,0.1-1,0.1c-0.9,0-1.8-0.2-2.6-0.6
			c-0.8-0.4-1.4-1-1.8-1.7c-0.5-0.9-0.7-1.8-0.7-2.8c0-1.5,0.5-3,1.6-4.1c1.2-1.1,2.7-1.8,4.3-2.1l0.1,0c2-0.4,4-0.6,6-0.5
			L423.8,58.3z"/>
		<path id="Trazado_37" class="st1" d="M333.9,36.1h-0.2c-0.7-1.2-1.6-2.2-2.6-3.1c-1.1-0.9-2.4-1.7-3.8-2.1c-1-0.3-1.9-0.6-2.9-0.7
			c-0.7-0.1-1.4-0.1-2.1-0.1c-2.5,0-5,0.5-7.3,1.6c-2.3,1.1-4.4,2.6-6,4.5c-1.8,2.1-3.2,4.5-4.1,7.1c-1,3-1.6,6.2-1.5,9.3
			c0,2.9,0.4,5.7,1.3,8.5c0.8,2.4,2,4.7,3.7,6.6c1.5,1.8,3.4,3.3,5.6,4.3c3.3,1.5,7,1.9,10.5,1.2c1.1-0.2,2.1-0.6,3.1-1.1
			c1.9-0.9,3.6-2.4,4.8-4.2h0.2v2.8c0.1,2.2-0.4,4.4-1.4,6.4c-0.9,1.6-2.2,2.9-3.9,3.7c-0.9,0.4-1.8,0.7-2.8,0.9
			c-0.9,0.2-1.8,0.3-2.8,0.2c-1.6,0-3.2-0.2-4.7-0.5c-1.4-0.3-2.8-0.7-4.2-1.2c-1.1-0.4-2.2-0.9-3.3-1.5l-2.5,10.1
			c1.4,0.8,2.8,1.4,4.4,1.8c1.7,0.5,3.4,0.9,5.2,1.1c1.8,0.3,3.6,0.4,5.5,0.4c0.8,0,1.6,0,2.5-0.1c1.2-0.1,2.4-0.2,3.7-0.4
			c2-0.3,3.9-0.9,5.8-1.6c1.9-0.8,3.6-1.8,5.1-3.2c1.6-1.4,2.8-3.2,3.7-5.1c1-2.1,1.6-4.2,2-6.5c0.4-2.5,0.6-5.1,0.6-7.7V43.7
			c0-2.1,0-4,0.1-5.5c0-1.6,0.1-2.9,0.1-4.1c0.1-1.2,0.1-2.2,0.2-3.1h-11.3L333.9,36.1z M332.3,54.7c0,0.6,0,1.2-0.1,1.8
			c0,0.6-0.2,1.1-0.3,1.7c-0.3,1-0.7,2-1.4,2.8c-0.6,0.8-1.4,1.5-2.4,1.9c-1,0.5-2,0.7-3.1,0.7c-0.2,0-0.4,0-0.6,0
			c-1.5-0.1-2.8-0.6-4-1.5c-1.3-1.1-2.3-2.5-2.9-4.1c-0.7-1.9-1-3.8-1-5.8c0-2.3,0.4-4.5,1.2-6.6c0.6-1.6,1.7-3.1,3.1-4.1
			c1.1-0.8,2.3-1.3,3.7-1.4c0.2,0,0.4,0,0.6,0c1.1,0,2.2,0.2,3.2,0.8c0.9,0.5,1.7,1.2,2.3,2c0.7,0.9,1.2,2,1.4,3.1
			c0.1,0.4,0.2,0.8,0.2,1.2c0,0.4,0.1,0.9,0.1,1.3L332.3,54.7z"/>
		<path id="Trazado_38" class="st1" d="M388.9,34.5c-1.3-1.5-2.9-2.6-4.7-3.4c-1.9-0.8-3.9-1.1-5.9-1.1c-1.6,0-3.2,0.2-4.7,0.7
			c-1.3,0.4-2.6,1-3.7,1.7c-1,0.6-1.9,1.4-2.7,2.2c-0.7,0.7-1.2,1.4-1.7,2.2h-0.3l-0.6-5.9h-11.3c0.1,1.9,0.2,4,0.2,6.3
			c0.1,2.3,0.1,4.8,0.1,7.4v29.2h13V49.2c0-0.6,0-1.2,0.1-1.8c0.2-1.4,0.8-2.8,1.7-3.9c0.6-0.8,1.3-1.4,2.2-1.9c1-0.5,2-0.7,3.1-0.7
			c1.4-0.1,2.7,0.4,3.8,1.2c1,0.9,1.7,2,2.1,3.2c0.5,1.6,0.7,3.2,0.7,4.9v23.8h13V48.4c0-2.8-0.3-5.5-1.1-8.2
			C391.4,38.1,390.4,36.2,388.9,34.5"/>
		<path id="Trazado_39" class="st1" d="M273.4,26.1c-1.4-2.1-3.2-3.9-5.2-5.5c-1.9-1.5-4-2.7-6.2-3.6c-2.5-1-5-1.7-7.7-2.1
			c-0.7-0.1-1.5-0.2-2.3-0.3c-2.5-0.3-5-0.4-7.5-0.4c-3.3,0-6.5,0.1-9.5,0.3s-5.7,0.5-8.1,0.9v58c1.6,0.2,3.6,0.4,6.1,0.6
			c2.4,0.2,5.4,0.3,8.7,0.3c3.4,0,6.9-0.2,10.3-0.8c1.7-0.3,3.3-0.6,4.9-1.1c4.2-1.1,8-3,11.3-5.8c1.9-1.7,3.6-3.6,5-5.8
			c1.5-2.5,2.6-5.1,3.4-7.9c0.8-3.3,1.3-6.7,1.2-10.1c0-3.2-0.4-6.3-1.2-9.4C276.1,30.9,274.9,28.4,273.4,26.1 M261.7,55
			c-1.5,2.9-3.8,5.3-6.7,6.8c-0.9,0.5-1.8,0.9-2.8,1.2c-2.4,0.7-4.9,1.1-7.5,1c-0.8,0-1.7,0-2.5,0c-0.7,0-1.4-0.1-2.1-0.2V25.1
			c0.8-0.2,1.5-0.3,2.3-0.4c1.2-0.1,2.4-0.2,3.6-0.2c2.1,0,4.1,0.2,6.1,0.8c1.2,0.3,2.5,0.8,3.6,1.4c2.7,1.4,4.9,3.6,6.2,6.3
			c1.6,3.2,2.3,6.7,2.2,10.3C264.3,47.4,263.5,51.4,261.7,55"/>
		<rect id="Rectángulo_6" x="284.4" y="31" class="st1" width="13" height="42.9"/>
		<path id="Trazado_40" class="st2" d="M216.4,70.3c0-1.4-0.1-2.8-0.1-4.4c0-1.6,0-3.2,0-4.8V11.6h-13v23.3h-0.2
			c-1-1.6-2.5-2.8-4.3-3.5c-1.2-0.5-2.6-0.9-3.9-1.1c-0.9-0.1-1.9-0.2-2.8-0.2c-2.5,0-4.9,0.5-7.1,1.5c-2.3,1-4.3,2.6-6,4.5
			c-1.8,2.1-3.2,4.5-4.1,7.1c-1,3.1-1.5,6.4-1.5,9.7c0,3.1,0.4,6.1,1.4,9.1c0.8,2.5,2.1,4.9,3.8,6.9c1.5,1.9,3.5,3.4,5.7,4.4
			c2.2,1,4.6,1.6,7,1.6c1.2,0,2.5-0.1,3.7-0.4c0.5-0.1,1-0.3,1.5-0.4c1.6-0.5,3.2-1.3,4.5-2.4c1.4-1.1,2.5-2.5,3.4-4h0.2l0.6,6.3
			h11.5C216.5,72.9,216.4,71.7,216.4,70.3 M203.2,54.7c0,0.5,0,1.1-0.1,1.6c0,0.5-0.1,1-0.3,1.5c-0.2,1.2-0.7,2.3-1.5,3.3
			c-0.7,0.9-1.6,1.7-2.6,2.3c-1.1,0.5-2.3,0.8-3.4,0.8c-0.2,0-0.4,0-0.5,0c-1.5-0.1-3-0.6-4.2-1.4c-1.4-1.1-2.4-2.5-3.1-4.1
			c-0.8-2-1.1-4.1-1.1-6.3c0-1.6,0.2-3.2,0.6-4.7c0.3-1.4,0.9-2.7,1.7-3.9c0.7-1.1,1.7-2,2.8-2.6c1-0.5,2.1-0.9,3.3-0.9
			c0.2,0,0.4,0,0.6,0c2.5,0,4.8,1.2,6.2,3.3c0.7,1,1.2,2.1,1.4,3.3c0.1,0.4,0.1,0.8,0.1,1.2c0.1,0.4,0.1,0.8,0.1,1.2L203.2,54.7z"/>
		<path id="Trazado_41" class="st2" d="M98.5,67.4c-0.1-1.3-0.1-2.6-0.1-4V48.5c0-2.4-0.3-4.8-0.9-7.1c-0.6-2.2-1.6-4.2-3.1-5.9
			c-1.5-1.8-3.5-3.1-5.6-4C86,30.5,83,30,80,30h-0.4c-2.2,0-4.4,0.2-6.6,0.6c-1.9,0.3-3.7,0.8-5.5,1.4c-1.3,0.5-2.6,1-3.8,1.7
			l2.4,8.6c1-0.6,2.1-1.2,3.2-1.6c1.3-0.5,2.6-0.9,4-1.2c1.4-0.3,2.8-0.4,4.3-0.5c0.7,0,1.3,0,2,0.1c0.7,0.1,1.3,0.2,1.9,0.4
			c0.9,0.3,1.7,0.7,2.3,1.4c0.5,0.5,0.9,1.1,1.1,1.8c0.2,0.6,0.3,1.2,0.3,1.8v0.6c-1.9,0-3.8,0.1-5.6,0.2c-1.5,0.2-3,0.4-4.4,0.7
			c-2.7,0.6-5.3,1.6-7.7,3c-2.1,1.3-3.8,3-5,5.1c-1.2,2.2-1.8,4.7-1.8,7.3c0,1.7,0.3,3.4,0.9,4.9c0.6,1.6,1.5,3,2.6,4.2
			c1.2,1.3,2.7,2.3,4.3,2.9c1.8,0.7,3.7,1.1,5.7,1.1c1.8,0,3.6-0.3,5.4-0.8c0.5-0.1,1-0.3,1.5-0.5c2-0.9,3.8-2.2,5.1-3.9h0.3
			l0.8,4.3H99c-0.2-0.9-0.3-1.9-0.3-2.8C98.6,69.9,98.5,68.7,98.5,67.4 M85.8,58.3c0,0.4,0,0.8,0,1.2c-0.1,0.4-0.1,0.7-0.2,1.1
			c-0.3,0.9-0.8,1.8-1.4,2.5c-0.7,0.7-1.4,1.3-2.3,1.8c-0.7,0.3-1.4,0.5-2.1,0.6c-0.3,0-0.6,0.1-0.9,0.1c-0.9,0-1.8-0.2-2.6-0.6
			c-0.8-0.4-1.4-1-1.8-1.7c-0.5-0.9-0.7-1.8-0.7-2.8c0-1.5,0.6-3,1.6-4.1c1.2-1.1,2.7-1.8,4.3-2.1l0.1,0c2-0.4,4-0.6,6.1-0.5
			L85.8,58.3z"/>
		<rect id="Rectángulo_7" x="106.6" y="11.6" class="st2" width="12.9" height="62.3"/>
		<path id="Trazado_42" class="st2" d="M167.4,60.1V31h-13.1v25.5c0,0.5,0,1.1-0.1,1.6c-0.1,0.5-0.2,0.9-0.4,1.3
			c-0.3,0.8-0.7,1.5-1.3,2.1c-0.6,0.7-1.3,1.3-2.1,1.8c-1,0.5-2,0.7-3.1,0.7c-1.3,0-2.7-0.4-3.7-1.2c-1-0.9-1.7-2.1-2.1-3.4
			c-0.5-1.7-0.7-3.5-0.7-5.4V31h-13.1v25.1c0,2.9,0.3,5.7,1.1,8.5c0.6,2.1,1.6,4.1,3,5.8c1.3,1.5,2.9,2.6,4.7,3.3
			c1.9,0.7,3.9,1.1,5.9,1.1c1.7,0,3.4-0.2,5-0.7c1.3-0.4,2.6-1,3.8-1.8c1-0.6,1.9-1.4,2.7-2.3c0.6-0.7,1.2-1.4,1.7-2.2h0.3l0.6,6.1
			h11.3c-0.1-1.8-0.2-3.8-0.2-6.1C167.4,65.5,167.4,62.9,167.4,60.1"/>
		<path id="Trazado_43" class="st2" d="M50,43.2c-2.6-1.9-5.4-3.4-8.4-4.4c-2.1-0.8-4.1-1.6-6.1-2.6c-1.3-0.6-2.5-1.5-3.5-2.5
			c-0.7-0.9-1.1-2-1.1-3.2c0-1,0.3-2,0.9-2.9c0.7-0.9,1.7-1.6,2.8-2.1c1.5-0.6,3.1-0.8,4.7-0.8c1.7,0,3.4,0.2,5.1,0.5
			c1.4,0.3,2.7,0.6,4.1,1.1c1.1,0.4,2.1,0.8,2.9,1.2l2.9-10.7c-2-1-4.1-1.7-6.2-2.2c-2.8-0.6-5.6-0.9-8.5-0.9
			c-3.1,0-6.2,0.4-9.1,1.4c-2.5,0.8-4.8,2.1-6.9,3.7c-1.8,1.5-3.3,3.5-4.3,5.6c-1,2.2-1.5,4.6-1.5,7c0,2.7,0.7,5.3,2,7.6
			c1.4,2.3,3.3,4.3,5.5,5.7c2.6,1.7,5.4,3.1,8.3,4.1c1.9,0.7,3.8,1.5,5.6,2.5c1.2,0.6,2.3,1.5,3.1,2.6c0.7,0.9,1,2.1,1,3.2
			c0,1.2-0.3,2.4-1.1,3.4c-0.8,1-1.8,1.8-3,2.2c-1.6,0.6-3.3,0.8-5,0.8c-1.8,0-3.6-0.2-5.4-0.5c-1.7-0.3-3.3-0.8-4.9-1.4
			c-1.4-0.5-2.8-1.1-4.1-1.8L17,71.1c1.3,0.7,2.8,1.3,4.2,1.8c3.9,1.3,8,1.9,12.1,1.9c3.5,0.1,6.9-0.4,10.3-1.5
			c2.7-0.8,5.1-2.2,7.2-4c1.9-1.6,3.3-3.6,4.3-5.9c0.9-2.2,1.4-4.6,1.4-7.1C56.7,51.2,54.3,46.3,50,43.2"/>
		<path id="Trazado_44" class="st1" d="M296.8,11.7c2.9,3.5,2.6,8.7-0.8,11.7c-3.3,3-8.3,2.7-11.2-0.5c-0.1-0.1-0.1-0.2-0.2-0.2
			c-3-3.5-2.6-8.7,0.7-11.7c3.3-3,8.3-2.7,11.3,0.6C296.7,11.6,296.7,11.6,296.8,11.7"/>
		<path id="Trazado_45" class="st2" d="M28.4,98.2l0,0.2c0.2,0.3,0.4,0.6,0.4,0.9c0,0.3-0.3,0.6-0.8,0.8c-0.3,0-0.7,0-1.2,0
			c-1.2,0-2.4-0.1-3.6-0.2c-3.6-0.4-5.6-1.2-6-2.5c0-3.6,0.1-7.2,0.5-10.8c0.2-1.6,0.4-3.2,0.8-4.8l1.5-0.4c0.1,0.6,0.1,1.3,0.1,1.9
			c0,1.1-0.1,2.1-0.2,3.2L19.5,90c-0.1,1.1-0.2,2.3-0.2,3.4c0,1.1,0.1,2.2,0.3,3.3c1.1,0.6,2.3,0.9,3.5,1.1c1.2,0.2,2.4,0.3,3.7,0.4
			C27.2,98.2,27.8,98.2,28.4,98.2"/>
		<path id="Trazado_46" class="st2" d="M33.4,100.1H33c-1,0.1-2-0.6-2.3-1.5c-0.3-0.6-0.4-1.3-0.5-2l0-0.4c0-0.9,0.8-2,2.3-3.2
			c0.8-0.6,1.8-0.9,2.8-0.9c0.5,0,1.1,0.1,1.6,0.1c0.5,0.1,1.1,0.1,1.6,0.1c0.1-1.2-0.6-2.3-1.6-2.8c-0.3-0.2-0.6-0.2-0.9-0.2
			c-0.6,0-1.1,0.2-1.6,0.6L32.5,91c-0.3,0-0.5-0.2-0.6-0.4c-0.2-0.2-0.3-0.4-0.3-0.7l0.1-0.5c1.1-1.2,2.7-1.9,4.3-2.1
			c1.5-0.1,2.8,0.8,3.4,2.2c0.4,1.2,0.7,2.5,0.8,3.8c0.1,1.3,0.4,2.6,0.7,3.9C38.7,98.9,36.1,99.9,33.4,100.1 M37.9,94.2
			c-0.7-0.2-1.4-0.4-2.1-0.4c-1.4,0-2.7,0.7-3.5,1.8c-0.3,0.3-0.4,0.8-0.4,1.2c0,0.6,0.3,1.1,0.9,1.3c0.3,0.1,0.6,0.1,0.9,0.1
			c1.2-0.1,2.4-0.3,3.6-0.6c0.5-0.1,1-0.4,1.4-0.8l-0.1-1.5C38.5,94.9,38.2,94.5,37.9,94.2"/>
		<path id="Trazado_47" class="st2" d="M62.2,97.8c-0.8,1.3-2.3,2.1-3.8,2.1c-0.8,0.1-1.6,0.1-2.4,0.1h-3.2c-0.5-0.4-0.8-1-0.8-1.6
			l0.1-0.4l0.2-0.1l0.8,0.2c0.1,0,0.8,0.1,1.9,0.1c0.6,0,1.1,0,1.4,0c2.5,0,3.7-0.6,3.9-1.8c0-0.5-1.3-1.3-4-2.2
			c-0.3-0.1-1.3-0.5-2.9-1c-0.3-0.1-0.6-0.3-0.8-0.6C52.2,92.4,52,92,52,91.5c0-0.1,0-0.3,0.1-0.4c0.3-1,1.9-2,4.8-2.9
			c1-0.3,2-0.6,3.1-0.7l0.2,1.3c-0.5,0.4-1.2,0.6-1.8,0.8c-0.7,0.2-1.5,0.4-2.2,0.8c-0.6,0.2-1,0.8-1.1,1.4c0,0.4,0.8,0.8,2.4,1.2
			c0.7,0.1,1.3,0.3,2,0.5c0.7,0.3,1.4,0.7,1.9,1.3c0.6,0.6,1,1.4,1,2.2C62.4,97.2,62.3,97.5,62.2,97.8"/>
		<path id="Trazado_48" class="st2" d="M67,100.1h-0.5c-1,0-2-0.6-2.3-1.5c-0.2-0.7-0.4-1.3-0.5-2l0-0.4c0-0.9,0.7-2,2.3-3.2
			c0.8-0.6,1.8-0.9,2.9-0.9c0.5,0,1.1,0.1,1.6,0.1c0.5,0.1,1.1,0.1,1.6,0.1c0.1-1.2-0.6-2.3-1.6-2.8c-0.3-0.2-0.6-0.2-0.9-0.2
			c-0.6,0-1.1,0.2-1.6,0.6L66.1,91c-0.3,0-0.5-0.2-0.6-0.4c-0.2-0.2-0.3-0.4-0.3-0.7l0.1-0.5c1.1-1.2,2.6-1.9,4.3-2.1
			c1.5-0.1,2.8,0.8,3.4,2.2c0.4,1.2,0.7,2.5,0.8,3.8c0.1,1.3,0.3,2.6,0.7,3.9C72.3,98.9,69.7,99.9,67,100.1 M71.5,94.2
			c-0.7-0.2-1.4-0.4-2.1-0.4c-1.4,0-2.7,0.7-3.5,1.8c-0.3,0.3-0.4,0.8-0.4,1.2c0,0.6,0.4,1.1,1,1.3c0.3,0.1,0.6,0.1,0.9,0.1
			c1.2-0.1,2.4-0.3,3.6-0.6c0.5-0.1,1-0.4,1.4-0.8l-0.1-1.5C72.1,94.9,71.8,94.5,71.5,94.2"/>
		<path id="Trazado_49" class="st2" d="M78.6,88.1l-0.3,4.2c-0.1,1.4-0.1,2.6-0.1,3.6c0,1.3,0.1,2.7,0.3,4c-0.5,0.2-0.8,0.3-0.9,0.3
			c-0.3,0.1-0.6,0.3-0.8,0.5c-0.3-1.7-0.4-3.5-0.4-5.2c0-2.7,0.2-6.6,0.7-11.8h0.4c0.5,0,0.9,0.3,1.2,0.6
			C78.8,85.6,78.7,86.8,78.6,88.1"/>
		<path id="Trazado_50" class="st2" d="M92,99.8c-0.4-0.4-0.7-0.8-0.9-1c-0.4-0.5-0.7-1-0.9-1.6c-0.2,0.1-0.8,0.5-1.7,1.1
			c-0.6,0.4-1.2,0.7-1.8,1c-0.7,0.3-1.4,0.5-2.2,0.5h-0.4l-0.2,0c-2,0-3.1-3-3.1-9.1v-1.1c0-0.8,0.6-1.1,1.8-1.2c0.3,1,0.4,2,0.4,3
			c0.1,1.8,0.1,2.9,0.2,3.3c0.1,1,0.5,2,1.2,2.7c0.2,0.1,0.4,0.2,0.6,0.1c1.4-0.2,2.7-0.9,3.6-2c1.2-1.3,1.8-3.1,1.7-4.8
			c0-0.7,0-1.1,0-1.3s-0.1-0.5-0.1-0.9c0-0.2,0.1-0.3,0.4-0.5c0.2-0.1,0.4-0.2,0.7-0.2c0.2,0,0.4,0,0.6,0.1c0.3,0.2,0.5,0.8,0.5,1.9
			c0,0.7-0.1,1.3-0.1,1.9c-0.2,1.8-0.3,2.7-0.3,2.9V95c0,0.6,0.1,1.3,0.3,1.9c0.2,0.4,0.5,0.8,0.8,1.1c0.4,0.4,0.7,0.8,1.1,1.2
			C93.5,99.6,92.8,99.9,92,99.8"/>
		<path id="Trazado_51" class="st2" d="M104.2,100c-0.6,0.1-1.1,0.3-1.6,0.7v-1.5c-0.6,0.3-1.3,0.4-1.9,0.5
			c-1.6,0.2-2.4,0.3-2.5,0.3c-1.2,0-2.3-0.6-2.9-1.7c-0.6-1-0.9-2.2-0.9-3.4c-0.1-2.1,0.8-4,2.6-5.1c1.5-0.9,3.2-1.4,5-1.3
			c-0.3-1.6-0.4-3.2-0.4-4.8c0.2-0.2,0.4-0.2,0.6-0.2c0.5,0,0.9,0.2,1.2,0.6c0,0.1,0.3,2.4,0.7,6.6c0.3,2.2,0.4,4.4,0.4,6.7
			C104.3,98.2,104.2,99.2,104.2,100 M102.3,92.7c0-0.6-0.1-1.2-0.4-1.8c-0.4-0.1-0.8-0.1-1.2-0.1c-1.3,0-2.5,0.4-3.6,1.1
			c-0.5,0.4-0.8,0.9-0.9,1.5C96.1,94,96,94.6,96,95.2c0,0.9,0.4,1.7,1.1,2.2c0.4,0.3,0.8,0.5,1.3,0.5c1.5,0.1,3-0.5,4-1.5
			C102.4,95.2,102.3,94,102.3,92.7"/>
		<path id="Trazado_52" class="st2" d="M128.8,98.6c0,0.1-0.6,0.3-1.7,0.6c-2,0.5-4,0.7-6.1,0.6h-1.2c-1.6-0.1-3-0.8-4-2.1
			c-0.6-0.8-0.8-1.8-0.8-2.9c-0.2-2.7,1.4-5.2,3.9-6.3c1.3-0.6,2.7-0.9,4.1-0.9c1,0,1.9,0.5,2.5,1.2c0.6,0.6,1,1.3,1.3,2l0.1,0.3
			l0,0.3l-0.2,0.1c-3.1,1.8-6.4,3-9.9,3.7l-0.1,0.1c0,0.4,0.2,0.8,0.4,1.1c0.2,0.4,0.4,0.7,0.8,0.8c1,0.4,2.1,0.6,3.2,0.6
			c0.8,0,1.6-0.1,2.3-0.2l2.6-0.5c0.7-0.2,1.5-0.3,2.2-0.3l0.3,0.1c0,0,0,0.1,0,0.3L128.8,98.6z M124.1,90.8
			c-0.2-0.9-0.8-1.3-1.8-1.3c-0.4,0-0.7,0.1-1.1,0.2c-1.4,0.3-2.6,1.1-3.5,2.2c-0.3,0.3-0.5,0.8-0.6,1.3c0,0.2,0.1,0.4,0.2,0.5
			c0.8-0.2,1.6-0.4,2.3-0.8c0.4-0.2,1.2-0.6,2.5-1.1c0.2-0.1,0.7-0.3,1.4-0.6C123.7,90.9,123.9,90.9,124.1,90.8"/>
		<path id="Trazado_53" class="st2" d="M139.8,97.8c-0.8,1.3-2.3,2.1-3.8,2.1c-0.8,0.1-1.6,0.1-2.4,0.1h-3.2c-0.5-0.4-0.8-1-0.8-1.6
			l0-0.4l0.2-0.1l0.8,0.2c0.1,0,0.8,0.1,1.9,0.1c0.7,0,1.1,0,1.4,0c2.5,0,3.7-0.6,3.9-1.8c0-0.5-1.3-1.3-4-2.2
			c-0.3-0.1-1.3-0.5-2.9-1c-0.3-0.1-0.6-0.3-0.8-0.6c-0.3-0.3-0.5-0.8-0.5-1.2c0-0.1,0-0.3,0.1-0.4c0.3-1,2-2,4.8-2.9
			c1-0.3,2-0.6,3.1-0.7l0.2,1.3c-0.6,0.4-1.2,0.6-1.8,0.8c-0.7,0.2-1.5,0.4-2.2,0.8c-0.6,0.2-1,0.8-1,1.4c0,0.4,0.8,0.8,2.4,1.2
			c0.7,0.1,1.3,0.3,2,0.5c0.7,0.3,1.4,0.7,1.9,1.3c0.6,0.6,1,1.4,1,2.2C140,97.2,140,97.5,139.8,97.8"/>
		<path id="Trazado_54" class="st2" d="M159.7,93.6c0,0.4-0.2,0.9-0.4,1.3c-1.1,1.2-2.7,1.9-4.4,2c-0.6,0-1.1,0-1.7-0.1
			c0,0.3,0.2,2.2,0.6,5.6c-0.3,0.3-0.6,0.4-1,0.4c-0.1,0-0.4,0-0.9,0c-0.6-3-1-6-1.1-9c-0.1-1.9-0.2-3.9-0.1-5.8
			c1.2-0.4,2.5-0.5,3.7-0.6c1.8-0.1,3.5,0.5,4.7,1.8c0.4,0.6,0.7,1.4,0.7,2.2C159.9,92.2,159.8,92.9,159.7,93.6 M157.2,90.2
			c-1-0.6-2.1-0.9-3.2-0.9c-0.5,0-0.9,0.1-1.4,0.3c0,0.5,0,1.1,0,1.7c0,0.5,0.1,1.7,0.3,3.5c1,0.1,1.6,0.1,2,0.1
			c0.9-0.1,1.8-0.5,2.5-1.2c0.3-0.3,0.3-0.9,0.3-2C157.7,90.8,157.5,90.3,157.2,90.2"/>
		<path id="Trazado_55" class="st2" d="M164.9,100.1h-0.4c-1,0.1-2-0.5-2.3-1.5c-0.3-0.6-0.4-1.3-0.5-2l0-0.4c0-0.9,0.8-2,2.3-3.2
			c0.8-0.6,1.8-0.9,2.9-0.9c0.5,0,1.1,0.1,1.6,0.1c0.5,0.1,1.1,0.1,1.6,0.1c0.1-1.2-0.6-2.3-1.6-2.8c-0.3-0.2-0.6-0.2-0.9-0.2
			c-0.6,0-1.1,0.2-1.6,0.6L164,91c-0.3,0-0.5-0.2-0.6-0.4c-0.1-0.2-0.2-0.5-0.2-0.7l0.1-0.5c1.1-1.2,2.6-1.9,4.3-2.1
			c1.5-0.1,2.8,0.8,3.4,2.2c0.4,1.2,0.7,2.5,0.8,3.8c0.1,1.3,0.4,2.6,0.7,3.9C170.2,98.9,167.6,99.9,164.9,100.1 M169.3,94.2
			c-0.7-0.2-1.4-0.4-2.1-0.4c-1.4,0-2.7,0.7-3.4,1.8c-0.3,0.3-0.4,0.8-0.4,1.2c-0.1,0.6,0.3,1.1,0.9,1.3c0.3,0.1,0.6,0.1,0.9,0.1
			c1.2-0.1,2.4-0.3,3.6-0.6c0.5-0.1,1-0.4,1.4-0.8l-0.1-1.5C170,94.9,169.7,94.5,169.3,94.2"/>
		<path id="Trazado_56" class="st2" d="M186,90c-0.5-0.5-1.2-0.8-1.9-0.8c-0.9-0.2-1.9-0.1-2.7,0.2c-0.9,0.4-1.6,0.9-2.3,1.6
			c-1,0.9-1.9,1.9-2.5,3.1c-0.1,0.8-0.1,1.6,0,2.3c0,0.5,0.1,1.4,0.3,2.8c0.1,0.7,0.2,1.3,0.2,1.7l-1.5,0.1c-0.1-0.9-0.2-1.9-0.4-3
			l-0.5-3.7c-0.3-1.7-0.4-3.5-0.4-5.3l0.3,0l0.2,0c0.2-0.2,0.4-0.3,0.7-0.3l0.4,0.1l0.2,2.4c1.4-2.4,3.8-4,6.6-4.3
			c0.7,0,1.3,0,2,0.1c0.6,0,1.3,0.2,1.8,0.5c0.1,0.4,0.1,0.8,0.1,1.2C186.5,89.6,186.3,90,186,90"/>
		<path id="Trazado_57" class="st2" d="M190.1,100.1h-0.5c-1,0.1-2-0.5-2.3-1.5c-0.3-0.7-0.4-1.3-0.5-2l0-0.4c0-0.9,0.8-2,2.3-3.2
			c0.8-0.6,1.8-0.9,2.9-0.9c0.4,0,0.9,0,1.6,0.1c0.5,0.1,1.1,0.1,1.6,0.1c0.1-1.2-0.6-2.3-1.6-2.8c-0.3-0.2-0.6-0.2-0.9-0.2
			c-0.6,0-1.1,0.2-1.6,0.6l-1.7,1.1c-0.3,0-0.5-0.2-0.6-0.4c-0.2-0.2-0.3-0.4-0.3-0.7l0.2-0.5c1.1-1.2,2.6-1.9,4.3-2.1
			c1.5-0.1,2.8,0.8,3.4,2.2c0.4,1.2,0.7,2.5,0.8,3.8c0.1,1.3,0.4,2.6,0.7,3.9C195.4,98.9,192.8,99.9,190.1,100.1 M194.5,94.2
			c-0.7-0.2-1.4-0.4-2.1-0.4c-1.4,0-2.7,0.7-3.5,1.8c-0.3,0.3-0.4,0.8-0.4,1.2c0,0.6,0.3,1.1,0.9,1.3c0.3,0.1,0.6,0.1,0.9,0.1
			c1.2-0.1,2.4-0.3,3.6-0.6c0.5-0.1,1-0.4,1.4-0.8l-0.1-1.5C195.2,94.9,194.9,94.5,194.5,94.2"/>
		<path id="Trazado_58" class="st2" d="M220.2,88c0.2,0.1,0.2,0.3,0.2,0.7c0,0.8-0.2,1.2-0.7,1.2l-4.8,0.9c0,0.3,0,0.7-0.1,1.2
			c-0.1,1.1-0.1,1.8-0.1,2.1c-0.1,1.6,0.4,3.1,1.5,4.2c0.2,0.2,0.4,0.3,0.7,0.3c0.5-0.1,1-0.2,1.5-0.4c0.3-0.1,0.7-0.2,1-0.2l0.3,0
			c0.2,0.4,0.3,0.8,0.3,1.2c-1,0.9-2.3,1.4-3.7,1.2c-0.5,0-1-0.2-1.4-0.6c-1.3-1.6-2-3.6-1.9-5.7c-0.1-0.9-0.1-1.9-0.1-3.1
			c-0.9,0.1-1.9,0.2-2.8,0.5c-0.9,0.2-1.8,0.6-2.7,1c-0.2-0.3-0.3-0.6-0.4-0.9l-0.3-0.9c0.5-0.4,1.1-0.7,1.8-0.9
			c0.4-0.1,1.2-0.2,2.3-0.4c0.8-0.1,1.6-0.2,2.3-0.5c0.2-0.8,0.4-1.5,0.5-2.1c0.2-0.8,0.3-1.5,0.4-2.3c0.1-0.3,0.5-0.4,0.9-0.4
			c0.3,0,0.5,0,0.7,0.2c-0.1,0.8-0.3,1.6-0.5,2.3c-0.1,0.5-0.2,1-0.2,1.5c0,0.2,0,0.4,0,0.5c1.2-0.1,2.4-0.2,3.6-0.5
			C219.2,88.1,219.7,88,220.2,88"/>
		<path id="Trazado_59" class="st2" d="M236.7,96.4c-0.5,2.5-2.9,4.1-5.4,3.8c-1.6,0.1-3.2-0.1-4.7-0.5c-1.4-0.4-2.6-1.3-3.3-2.5
			c-0.8-1.2-1.2-2.6-1.1-4.1c0-1.1,0.3-2.1,0.9-3c1.2-1.9,3.2-3.1,5.5-3.2c1.6,0.1,3.1,0.5,4.6,1.2c1.2,0.5,2.2,1.4,2.8,2.6
			c0.7,1.2,1,2.5,1,3.8C236.9,95.1,236.8,95.8,236.7,96.4 M235,95.8c0.2-0.4,0.3-0.8,0.3-1.3c0-1-0.3-1.9-0.9-2.7
			c-0.5-0.7-1.1-1.3-1.8-1.8c-1.2-0.8-2.6-1.3-4.1-1.3c-1.6-0.2-3,0.8-3.5,2.3c-0.4,0.9-0.6,1.9-0.7,2.8c0,0.5,0.1,1,0.3,1.5
			c0.4,1.1,1.5,1.9,2.7,2.1c0.1,0,0.4,0.1,1,0.1l0.4,0.1c1.5,0.2,2.4,0.3,2.7,0.3C232.8,98,234.2,97.2,235,95.8"/>
		<path id="Trazado_60" class="st2" d="M248.3,100c-0.6,0.1-1.1,0.3-1.6,0.7v-1.5c-0.6,0.3-1.3,0.4-1.9,0.5
			c-1.6,0.2-2.4,0.3-2.6,0.3c-1.2,0-2.3-0.6-2.9-1.7c-0.6-1-0.9-2.2-0.9-3.4c-0.1-2,0.8-4,2.6-5.1c1.5-0.9,3.2-1.4,4.9-1.3
			c-0.2-1.6-0.4-3.2-0.4-4.8c0.1-0.2,0.4-0.2,0.6-0.2c0.5,0,0.9,0.2,1.2,0.6c0,0.1,0.2,2.3,0.7,6.6c0.3,2.7,0.4,4.9,0.4,6.7
			C248.4,98.2,248.3,99.2,248.3,100 M246.4,92.7c0-0.6-0.1-1.2-0.3-1.8c-0.4-0.1-0.8-0.1-1.2-0.1c-1.3,0-2.5,0.4-3.6,1.1
			c-0.5,0.4-0.8,0.9-0.9,1.5c-0.2,0.6-0.3,1.2-0.3,1.8c0,0.9,0.4,1.7,1.1,2.2c0.4,0.3,0.8,0.5,1.3,0.5c1.5,0.1,3-0.5,4-1.5
			C246.5,95.2,246.4,94,246.4,92.7"/>
		<path id="Trazado_61" class="st2" d="M265.1,96.4c-0.5,2.5-2.9,4.1-5.4,3.8c-1.6,0.1-3.2-0.1-4.7-0.5c-1.4-0.4-2.6-1.3-3.3-2.5
			c-0.8-1.2-1.1-2.6-1.1-4.1c0-1.1,0.3-2.1,0.9-3c1.2-1.9,3.2-3.1,5.5-3.2c1.6,0.1,3.2,0.5,4.6,1.2c1.2,0.5,2.2,1.4,2.8,2.6
			c0.6,1.2,1,2.5,0.9,3.8C265.3,95.1,265.3,95.8,265.1,96.4 M263.4,95.8c0.2-0.4,0.3-0.8,0.3-1.3c0-1-0.3-1.9-0.9-2.7
			c-0.5-0.7-1.1-1.3-1.8-1.8c-1.2-0.8-2.7-1.3-4.1-1.3c-1.6-0.2-3,0.8-3.5,2.3c-0.4,0.9-0.6,1.9-0.7,2.8c0,0.5,0.1,1,0.3,1.5
			c0.5,1.1,1.5,1.9,2.7,2.1c0.1,0,0.4,0.1,1,0.1l0.4,0.1c1.5,0.2,2.5,0.3,2.7,0.3C261.3,98,262.7,97.2,263.4,95.8"/>
		<path id="Trazado_62" class="st2" d="M277.3,97.8c-0.8,1.3-2.3,2.1-3.8,2.1c-0.8,0.1-1.6,0.1-2.4,0.1h-3.2c-0.5-0.4-0.8-1-0.8-1.6
			l0-0.4l0.2-0.1l0.8,0.2c0.1,0,0.8,0.1,1.9,0.1c0.6,0,1.1,0,1.4,0c2.5,0,3.8-0.6,3.9-1.8c0.1-0.5-1.3-1.3-4-2.2
			c-0.3-0.1-1.3-0.5-2.9-1c-0.7-0.3-1.2-1-1.3-1.8c0-0.1,0-0.3,0.1-0.4c0.3-1,1.9-2,4.8-2.9c1-0.3,2-0.6,3.1-0.7l0.2,1.3
			c-0.5,0.4-1.2,0.6-1.8,0.8c-0.7,0.2-1.5,0.4-2.2,0.8c-0.6,0.2-1,0.8-1,1.4c0,0.4,0.8,0.8,2.3,1.2c0.7,0.1,1.3,0.3,2,0.5
			c0.7,0.2,1.4,0.7,1.9,1.3c0.6,0.6,1,1.4,1,2.2C277.5,97.2,277.4,97.5,277.3,97.8"/>
		<path id="Trazado_63" class="st1" d="M452.9,58.2c-4.3-0.1-7.9,3.3-8,7.6c-0.1,4.3,3.3,7.9,7.6,8c4.3,0.1,7.9-3.3,8-7.6
			c0-0.1,0-0.1,0-0.2C460.5,61.8,457.1,58.3,452.9,58.2 M452.9,72.8c-3.8,0.1-6.9-2.9-7-6.7c-0.1-3.8,2.9-6.9,6.7-7
			c3.8-0.1,6.9,2.9,7,6.7c0,0.1,0,0.1,0,0.2C459.6,69.7,456.6,72.8,452.9,72.8"/>
		<path id="Trazado_64" class="st1" d="M449.4,70.6v-9.1h3.9c0.6,0,1.2,0.1,1.8,0.2c0.4,0.2,0.8,0.5,1,0.9c0.2,0.4,0.4,0.9,0.4,1.4
			c0,0.6-0.2,1.2-0.6,1.6c-0.5,0.5-1.2,0.8-1.9,0.9c0.3,0.1,0.5,0.3,0.7,0.4c0.4,0.4,0.7,0.8,1,1.2l1.5,2.5h-1.5l-1.2-1.9
			c-0.3-0.5-0.6-1-0.8-1.3c-0.2-0.2-0.4-0.4-0.6-0.6c-0.2-0.1-0.3-0.2-0.5-0.2c-0.2,0-0.4-0.1-0.7,0h-1.4v4.1L449.4,70.6z
			 M450.6,65.5h2.5c0.4,0,0.9,0,1.3-0.2c0.3-0.1,0.5-0.3,0.7-0.5c0.2-0.2,0.2-0.5,0.2-0.8c0-0.4-0.2-0.8-0.5-1.1
			c-0.4-0.3-0.9-0.5-1.4-0.4h-2.8L450.6,65.5z"/>
	</g>
</g>
</svg>
