<svg id="Capa_1" data-name="Capa 1" xmlns="http://www.w3.org/2000/svg" viewBox="0 0 451.92 165.61"><defs><style>.cls-1,.cls-2{fill:#fdfeff;}.cls-2{fill-rule:evenodd;}.cls-3{fill:#f6b63e;}.cls-4{fill:#fff;}</style></defs><path class="cls-1" d="M414.83,75c-.08-1.06-.15-2.21-.19-3.46s-.05-2.55-.05-3.89V53.2a25,25,0,0,0-.87-6.92,15.43,15.43,0,0,0-3-5.71,13.6,13.6,0,0,0-5.49-3.85,22.63,22.63,0,0,0-8.47-1.45h-.32a38.16,38.16,0,0,0-6.43.59,34.14,34.14,0,0,0-5.29,1.39A24.81,24.81,0,0,0,381,38.93l2.32,8.33a15.7,15.7,0,0,1,3.18-1.57,21.54,21.54,0,0,1,3.84-1.14,20.92,20.92,0,0,1,4.16-.44,18.67,18.67,0,0,1,1.93.12,7.58,7.58,0,0,1,1.84.41A5.56,5.56,0,0,1,400.56,46a4.56,4.56,0,0,1,1.08,1.74,5.72,5.72,0,0,1,.28,1.77v.61a50,50,0,0,0-5.45.23,36.94,36.94,0,0,0-4.31.7,23.16,23.16,0,0,0-7.49,2.92,13.9,13.9,0,0,0-4.82,5A14.31,14.31,0,0,0,378.16,66a12.93,12.93,0,0,0,.89,4.79,12.07,12.07,0,0,0,2.57,4.06,11.84,11.84,0,0,0,4.1,2.83,14.13,14.13,0,0,0,5.51,1.07,17.38,17.38,0,0,0,5.24-.78,13.54,13.54,0,0,0,1.38-.53,13,13,0,0,0,5-3.79h.25l.75,4.17h11.34C415,77,414.94,76.08,414.83,75Zm-12.5-12.37c0,.4,0,.77,0,1.14s-.12.73-.2,1.08A7.06,7.06,0,0,1,398.46,69a7,7,0,0,1-2,.58,7.38,7.38,0,0,1-.93.06,5.85,5.85,0,0,1-2.54-.53,4.18,4.18,0,0,1-1.77-1.64,5.56,5.56,0,0,1-.66-2.75,5.31,5.31,0,0,1,1.57-4,9,9,0,0,1,4.19-2.06l.14,0a25.13,25.13,0,0,1,5.86-.51Z"/><path class="cls-1" d="M315.15,41.14H315a12.24,12.24,0,0,0-2.57-3,11,11,0,0,0-3.64-2.06,12.51,12.51,0,0,0-2.85-.66c-.65-.07-1.32-.11-2-.12A17,17,0,0,0,291,41.2a20.73,20.73,0,0,0-4,6.88,26.84,26.84,0,0,0-1.47,9,26.4,26.4,0,0,0,1.28,8.23,18.9,18.9,0,0,0,3.55,6.41,15.57,15.57,0,0,0,5.42,4.19,16.55,16.55,0,0,0,10.18,1.14A13.77,13.77,0,0,0,309,76a12.14,12.14,0,0,0,4.63-4h.16v2.73A12.87,12.87,0,0,1,312.36,81a8.66,8.66,0,0,1-3.75,3.57,11.2,11.2,0,0,1-2.69.9,13.13,13.13,0,0,1-2.69.25,27.14,27.14,0,0,1-4.59-.46,29.11,29.11,0,0,1-4-1.19,22.37,22.37,0,0,1-3.16-1.5L289,92.29a19.88,19.88,0,0,0,4.24,1.79,31.55,31.55,0,0,0,5,1.07,38,38,0,0,0,5.31.37c.8,0,1.59,0,2.39,0a35.59,35.59,0,0,0,3.56-.41,23.93,23.93,0,0,0,5.62-1.58A18.36,18.36,0,0,0,320,90.42a16.23,16.23,0,0,0,3.62-4.93,23.6,23.6,0,0,0,1.92-6.29,41.11,41.11,0,0,0,.59-7.48V48.53c0-2.05,0-3.85.05-5.37s.06-2.84.12-4,.11-2.12.15-3H315.56Zm-1.57,18.09c0,.56,0,1.16-.09,1.76a7.43,7.43,0,0,1-.33,1.64,6.94,6.94,0,0,1-1.38,2.72,6.46,6.46,0,0,1-2.28,1.87,6.72,6.72,0,0,1-3,.68,4.09,4.09,0,0,1-.61,0A7,7,0,0,1,302,66.42a9,9,0,0,1-2.81-4,15.67,15.67,0,0,1-1-5.61,17.54,17.54,0,0,1,1.13-6.43,9.42,9.42,0,0,1,3-4,6.78,6.78,0,0,1,3.55-1.35,6.08,6.08,0,0,1,.61,0,6.5,6.5,0,0,1,5.4,2.7,9,9,0,0,1,1.39,3,5.8,5.8,0,0,1,.19,1.12,10.24,10.24,0,0,1,.07,1.25Z"/><path class="cls-1" d="M368.56,39.6a12.35,12.35,0,0,0-4.6-3.26,15,15,0,0,0-5.76-1.07,15.92,15.92,0,0,0-4.54.67,13.89,13.89,0,0,0-3.6,1.66,14.56,14.56,0,0,0-2.66,2.15,12.2,12.2,0,0,0-1.69,2.15h-.26l-.58-5.7H333.94c.08,1.84.16,3.85.23,6.06s.1,4.62.1,7.2V77.77h12.59v-24a15.73,15.73,0,0,1,.11-1.73,8.72,8.72,0,0,1,.38-1.49,8.24,8.24,0,0,1,1.24-2.31,7,7,0,0,1,2.12-1.82,6.28,6.28,0,0,1,3-.7,5.84,5.84,0,0,1,3.71,1.14,6.53,6.53,0,0,1,2,3.14,15.49,15.49,0,0,1,.64,4.7v23H372.7V53.12a26.09,26.09,0,0,0-1.1-7.95A15.4,15.4,0,0,0,368.56,39.6Z"/><path class="cls-1" d="M256.51,31.49a21.47,21.47,0,0,0-5-5.3,25.29,25.29,0,0,0-6-3.45,32.83,32.83,0,0,0-7.43-2c-.72-.11-1.44-.21-2.21-.3a64.8,64.8,0,0,0-7.24-.36c-3.22,0-6.27.09-9.2.3s-5.53.5-7.86.89V77.51c1.55.22,3.52.41,5.87.58s5.19.26,8.44.27a61.52,61.52,0,0,0,10-.76,43.37,43.37,0,0,0,4.78-1.06,28.58,28.58,0,0,0,11-5.58,25.25,25.25,0,0,0,4.82-5.65,29.05,29.05,0,0,0,3.25-7.71,39.64,39.64,0,0,0,1.21-9.83,35,35,0,0,0-1.17-9.12A23.84,23.84,0,0,0,256.51,31.49Zm-11.36,28a15,15,0,0,1-6.54,6.63,17.39,17.39,0,0,1-2.73,1.13,23.61,23.61,0,0,1-7.24,1c-.8,0-1.61,0-2.41,0a9.54,9.54,0,0,1-2-.22V30.51a16.63,16.63,0,0,1,2.21-.35A34,34,0,0,1,230,30a22.94,22.94,0,0,1,5.91.73,17.88,17.88,0,0,1,3.49,1.34,14,14,0,0,1,6,6.12,21.27,21.27,0,0,1,2.12,10A24.31,24.31,0,0,1,245.15,59.49Z"/><rect class="cls-1" x="267.13" y="36.2" width="12.58" height="41.56"/><path class="cls-1" d="M201.21,74.33c0-1.32-.07-2.76-.12-4.3s-.05-3.1-.05-4.68v-48H188.46V40h-.17a9.21,9.21,0,0,0-4.17-3.43,14.09,14.09,0,0,0-3.78-1.06,23.73,23.73,0,0,0-2.74-.19,16.9,16.9,0,0,0-6.93,1.47,17.27,17.27,0,0,0-5.79,4.32,20.54,20.54,0,0,0-4,6.93,29.24,29.24,0,0,0-1.43,9.38,27.65,27.65,0,0,0,1.36,8.78,20.43,20.43,0,0,0,3.7,6.73,16.43,16.43,0,0,0,5.49,4.3,15.79,15.79,0,0,0,6.77,1.52,16.12,16.12,0,0,0,3.56-.39,13.64,13.64,0,0,0,1.46-.41,13.09,13.09,0,0,0,4.35-2.35,12.86,12.86,0,0,0,3.29-3.9h.18l.57,6.12h11.2C201.32,76.81,201.26,75.67,201.21,74.33Zm-12.75-15.1a11,11,0,0,1-.07,1.55,9.88,9.88,0,0,1-.27,1.44,8.28,8.28,0,0,1-1.41,3.21,7.1,7.1,0,0,1-2.53,2.19,7.35,7.35,0,0,1-3.34.8l-.5,0A7.6,7.6,0,0,1,176.27,67a9.08,9.08,0,0,1-3-4A17,17,0,0,1,172.2,57a17.25,17.25,0,0,1,.58-4.6,11.5,11.5,0,0,1,1.66-3.76,7.89,7.89,0,0,1,2.7-2.54,7.63,7.63,0,0,1,3.2-.9l.56,0a7.26,7.26,0,0,1,3.49.89,7.33,7.33,0,0,1,2.52,2.28,8.94,8.94,0,0,1,1.38,3.21c0,.36.09.74.1,1.14a6.63,6.63,0,0,1,.07,1.14Z"/><path class="cls-1" d="M86.85,71.54c0-1.25,0-2.55,0-3.89V53.2a25.38,25.38,0,0,0-.89-6.92,15.12,15.12,0,0,0-3-5.71,13.6,13.6,0,0,0-5.47-3.85A22.89,22.89,0,0,0,69,35.27h-.34a37.79,37.79,0,0,0-6.4.59,35.05,35.05,0,0,0-5.31,1.39,24,24,0,0,0-3.69,1.67l2.32,8.33a17.78,17.78,0,0,1,3.15-1.57,22.77,22.77,0,0,1,3.88-1.14,20.75,20.75,0,0,1,4.15-.44,17.38,17.38,0,0,1,1.9.12,8,8,0,0,1,1.88.41A5.65,5.65,0,0,1,72.77,46a4.52,4.52,0,0,1,1.07,1.74,5,5,0,0,1,.28,1.77v.61a50.62,50.62,0,0,0-5.47.23,36.94,36.94,0,0,0-4.29.7,23.39,23.39,0,0,0-7.49,2.92,14.1,14.1,0,0,0-4.83,5A14.53,14.53,0,0,0,50.34,66a12.92,12.92,0,0,0,.92,4.79A12.3,12.3,0,0,0,53.8,74.8a12.11,12.11,0,0,0,4.12,2.83,14.18,14.18,0,0,0,5.52,1.07,17.13,17.13,0,0,0,5.21-.78,12.43,12.43,0,0,0,1.41-.53,12.87,12.87,0,0,0,5-3.79h.26L76,77.77H87.38A24.86,24.86,0,0,1,87.05,75C87,73.94,86.9,72.79,86.85,71.54ZM74.54,62.63c0,.4,0,.77-.05,1.14a10.93,10.93,0,0,1-.2,1.08,6.57,6.57,0,0,1-1.37,2.4A7.26,7.26,0,0,1,70.67,69a6.82,6.82,0,0,1-2,.58,6.62,6.62,0,0,1-.91.06,6,6,0,0,1-2.55-.53,4.19,4.19,0,0,1-1.75-1.64,5.56,5.56,0,0,1-.67-2.75,5.39,5.39,0,0,1,1.57-4,9,9,0,0,1,4.22-2.06l.09,0a25.45,25.45,0,0,1,5.89-.51Z"/><rect class="cls-1" x="94.74" y="17.35" width="12.55" height="60.42"/><path class="cls-1" d="M153.69,64.41V36.21H141V60.94c0,.5,0,1-.06,1.5a5,5,0,0,1-.34,1.3,8.18,8.18,0,0,1-1.23,2.07,6.44,6.44,0,0,1-2.08,1.73,6.28,6.28,0,0,1-3,.7,5.6,5.6,0,0,1-3.61-1.16,6.88,6.88,0,0,1-2-3.32,17.26,17.26,0,0,1-.68-5.2V36.21H115.32V60.6a28.29,28.29,0,0,0,1.1,8.24,15.12,15.12,0,0,0,3,5.62,11.8,11.8,0,0,0,4.52,3.21,15.27,15.27,0,0,0,5.69,1A16.2,16.2,0,0,0,134.4,78a13.46,13.46,0,0,0,3.65-1.75,13.77,13.77,0,0,0,2.59-2.2,13.4,13.4,0,0,0,1.61-2.14h.26l.57,5.87H154c-.09-1.75-.19-3.73-.23-6S153.69,67.15,153.69,64.41Z"/><path class="cls-1" d="M39.88,48.06a32.47,32.47,0,0,0-8.15-4.29,60.61,60.61,0,0,1-5.88-2.53,10.65,10.65,0,0,1-3.4-2.45,4.89,4.89,0,0,1-.19-5.85,6.21,6.21,0,0,1,2.71-2,12.1,12.1,0,0,1,4.52-.76,26.07,26.07,0,0,1,8.89,1.51c1.11.43,2,.82,2.81,1.2L44,22.53a27.07,27.07,0,0,0-6-2.1,37.45,37.45,0,0,0-8.25-.88,28.62,28.62,0,0,0-8.84,1.32,19.67,19.67,0,0,0-6.66,3.64A15.84,15.84,0,0,0,10.07,30,16.65,16.65,0,0,0,8.61,36.8a14.24,14.24,0,0,0,1.94,7.37,17.78,17.78,0,0,0,5.31,5.55,35.56,35.56,0,0,0,8.1,4,35,35,0,0,1,5.39,2.39,9.08,9.08,0,0,1,3,2.55,5.18,5.18,0,0,1,.94,3.12,5.32,5.32,0,0,1-1,3.28,6.35,6.35,0,0,1-3,2.15,13.44,13.44,0,0,1-4.89.78,26.89,26.89,0,0,1-5.26-.53,29.86,29.86,0,0,1-4.79-1.33,30.14,30.14,0,0,1-4-1.72L7.87,75.13A22,22,0,0,0,12,76.84a37.92,37.92,0,0,0,5.5,1.33,39.69,39.69,0,0,0,6.24.53,31.51,31.51,0,0,0,10-1.45,19.17,19.17,0,0,0,7-3.88,15.84,15.84,0,0,0,4.16-5.68,17.29,17.29,0,0,0,1.36-6.84,15.18,15.18,0,0,0-6.34-12.79Z"/><path class="cls-2" d="M279.19,17.48a8.23,8.23,0,0,1-.73,11.39,7.73,7.73,0,0,1-11.11-.75,8.22,8.22,0,0,1,.73-11.39A7.73,7.73,0,0,1,279.19,17.48Z"/><path class="cls-1" d="M18.92,101.36a.78.78,0,0,0,0,.16,1.93,1.93,0,0,1,.4.85c0,.34-.26.62-.8.83-.24,0-.64,0-1.17,0a33.38,33.38,0,0,1-3.51-.18c-3.46-.4-5.42-1.19-5.8-2.42a91.55,91.55,0,0,1,.5-10.45,40.45,40.45,0,0,1,.77-4.7l1.42-.36a15.6,15.6,0,0,1,.11,1.82c0,.91-.09,1.94-.2,3.07l-.42,3.38A30.06,30.06,0,0,0,10,96.68a15.14,15.14,0,0,0,.31,3.23,10.06,10.06,0,0,0,3.38,1,34.63,34.63,0,0,0,3.55.36C17.74,101.34,18.3,101.36,18.92,101.36Z"/><path class="cls-1" d="M23.76,103.23h-.44a2.3,2.3,0,0,1-2.26-1.45,9,9,0,0,1-.52-2c0-.12,0-.26,0-.39,0-.9.75-1.93,2.2-3.08a4.36,4.36,0,0,1,2.77-.86c.38,0,.89,0,1.56.11a13.49,13.49,0,0,0,1.54.13A2.91,2.91,0,0,0,27,93a1.81,1.81,0,0,0-.87-.22,3,3,0,0,0-1.58.56l-1.66,1.09a.7.7,0,0,1-.59-.38,1.14,1.14,0,0,1-.25-.68.9.9,0,0,1,.13-.45,6.78,6.78,0,0,1,4.15-2,3.31,3.31,0,0,1,3.27,2.12,14.82,14.82,0,0,1,.78,3.68,22.6,22.6,0,0,0,.69,3.81C29.58,101.83,27.12,102.73,23.76,103.23Zm4.34-5.77a7.08,7.08,0,0,0-2-.36,4,4,0,0,0-3.36,1.78,2,2,0,0,0-.39,1.15,1.17,1.17,0,0,0,.9,1.23,2.65,2.65,0,0,0,.87.1,33.24,33.24,0,0,0,3.44-.54,3.15,3.15,0,0,0,1.35-.78l-.12-1.41A1.81,1.81,0,0,0,28.1,97.46Z"/><path class="cls-1" d="M51.65,101c-.56,1.17-1.81,1.85-3.72,2.08a21.54,21.54,0,0,1-2.36.12H42.48a2,2,0,0,1-.82-1.59,2.47,2.47,0,0,1,.05-.34.21.21,0,0,1,.18-.07l.77.16c.12,0,.75.07,1.89.13.63,0,1.09,0,1.36,0,2.37,0,3.63-.57,3.77-1.73,0-.5-1.23-1.23-3.84-2.16l-2.8-1a1.73,1.73,0,0,1-.77-.56,1.7,1.7,0,0,1-.5-1.2,1.51,1.51,0,0,1,.07-.41q.49-1.47,4.65-2.79a16.13,16.13,0,0,1,3-.7l.16,1.25A5,5,0,0,1,47.9,93a12.58,12.58,0,0,0-2.11.74,1.52,1.52,0,0,0-1,1.35c0,.41.77.78,2.3,1.11a16.58,16.58,0,0,1,1.91.51,4.5,4.5,0,0,1,1.88,1.23,3.16,3.16,0,0,1,1,2.14A2,2,0,0,1,51.65,101Z"/><path class="cls-1" d="M56.35,103.23H55.9a2.29,2.29,0,0,1-2.26-1.45,9,9,0,0,1-.52-2,1.67,1.67,0,0,1,0-.39c0-.9.73-1.93,2.21-3.08a4.3,4.3,0,0,1,2.77-.86c.36,0,.87,0,1.54.11a13.8,13.8,0,0,0,1.55.13A2.88,2.88,0,0,0,59.6,93a1.77,1.77,0,0,0-.88-.22,3,3,0,0,0-1.57.56l-1.66,1.09a.71.71,0,0,1-.58-.38,1.14,1.14,0,0,1-.25-.68.82.82,0,0,1,.14-.45,6.76,6.76,0,0,1,4.13-2,3.28,3.28,0,0,1,3.26,2.12,13.78,13.78,0,0,1,.8,3.68,19.87,19.87,0,0,0,.69,3.81C62.15,101.83,59.7,102.73,56.35,103.23Zm4.33-5.77a7.14,7.14,0,0,0-2-.36,4,4,0,0,0-3.35,1.78,2,2,0,0,0-.42,1.15,1.17,1.17,0,0,0,.92,1.23,2.53,2.53,0,0,0,.85.1,31.39,31.39,0,0,0,3.46-.54,3.29,3.29,0,0,0,1.37-.78l-.14-1.41A1.81,1.81,0,0,0,60.68,97.46Z"/><path class="cls-1" d="M67.62,91.58l-.25,4.11c-.06,1.37-.12,2.53-.12,3.44A26.48,26.48,0,0,0,67.5,103l-.86.32a2.2,2.2,0,0,0-.75.53,28.59,28.59,0,0,1-.36-5q0-3.87.67-11.4h.36a1.9,1.9,0,0,1,1.18.58C67.74,89.15,67.69,90.32,67.62,91.58Z"/><path class="cls-1" d="M80.61,102.93c-.37-.4-.67-.73-.87-1a6.07,6.07,0,0,1-.84-1.54c-.23.13-.79.48-1.65,1.07a11,11,0,0,1-1.77,1,5.21,5.21,0,0,1-2.1.46H73l-.2,0c-2,0-3-2.94-3-8.83V93c0-.73.56-1.1,1.7-1.12a10.54,10.54,0,0,1,.37,2.94c.06,1.76.11,2.82.17,3.22a4.14,4.14,0,0,0,1.17,2.6.88.88,0,0,0,.54.15c1,0,2.2-.65,3.51-1.94a6.36,6.36,0,0,0,1.61-4.7c0-.67,0-1.1,0-1.28s-.07-.48-.08-.84c0-.17.11-.34.38-.48a1.33,1.33,0,0,1,.65-.2,1.29,1.29,0,0,1,.54.12c.33.21.48.82.48,1.81a16.9,16.9,0,0,1-.13,1.89c-.2,1.7-.29,2.65-.29,2.8v.25a5.58,5.58,0,0,0,.3,1.8,3.18,3.18,0,0,0,.8,1c.47.47.8.85,1,1.14A2.41,2.41,0,0,1,80.61,102.93Z"/><path class="cls-1" d="M92.38,103.15a3.53,3.53,0,0,0-1.54.65v-1.49a8,8,0,0,1-1.88.5c-1.52.22-2.36.32-2.47.32a3.14,3.14,0,0,1-2.82-1.63,6.12,6.12,0,0,1-.88-3.34,5.45,5.45,0,0,1,2.49-5,9,9,0,0,1,4.81-1.28,30.36,30.36,0,0,1-.39-4.64.68.68,0,0,1,.57-.21,1.38,1.38,0,0,1,1.17.57q0,.19.64,6.43a63.75,63.75,0,0,1,.4,6.45C92.48,101.4,92.43,102.29,92.38,103.15ZM90.57,96a5.11,5.11,0,0,0-.34-1.74,7,7,0,0,0-1.17-.1,6.63,6.63,0,0,0-3.48,1.11,2.31,2.31,0,0,0-.88,1.41,6.92,6.92,0,0,0-.26,1.79,2.45,2.45,0,0,0,1.07,2.13,2.13,2.13,0,0,0,1.23.5,5.26,5.26,0,0,0,3.9-1.5C90.64,98.44,90.62,97.25,90.57,96Z"/><path class="cls-1" d="M116.25,101.79c0,.1-.55.3-1.66.58a24.14,24.14,0,0,1-5.88.62h-1.14a5.21,5.21,0,0,1-3.9-2,4.81,4.81,0,0,1-.78-2.78,6.22,6.22,0,0,1,3.82-6.1,9.59,9.59,0,0,1,4-.9,3.36,3.36,0,0,1,2.47,1.16,6,6,0,0,1,1.23,1.94,1.29,1.29,0,0,0,.06.26,1,1,0,0,0,0,.25l-.17.15a31.89,31.89,0,0,1-9.62,3.59s0,.07,0,.14a2.41,2.41,0,0,0,.36,1.09,1.69,1.69,0,0,0,.75.82,7.88,7.88,0,0,0,3.11.61,13.21,13.21,0,0,0,2.27-.23l2.54-.49a13.66,13.66,0,0,1,2.16-.29c.14,0,.22,0,.26.14l0,.33Zm-4.58-7.59a1.55,1.55,0,0,0-1.77-1.31,4.39,4.39,0,0,0-1.06.16,6.28,6.28,0,0,0-3.38,2.11,2,2,0,0,0-.57,1.22.54.54,0,0,0,.22.46,10.76,10.76,0,0,0,2.22-.75L109.71,95l1.4-.62A3,3,0,0,1,111.67,94.2Z"/><path class="cls-1" d="M127,101c-.55,1.17-1.78,1.85-3.71,2.08a21.48,21.48,0,0,1-2.35.12h-3.1a2,2,0,0,1-.8-1.59,2.05,2.05,0,0,1,0-.34s.08-.07.17-.07l.78.16c.11,0,.74.07,1.87.13.65,0,1.1,0,1.36,0,2.38,0,3.64-.57,3.79-1.73,0-.5-1.22-1.23-3.84-2.16-.31-.12-1.27-.44-2.81-1a1.94,1.94,0,0,1-.78-.56,1.76,1.76,0,0,1-.48-1.2,1.91,1.91,0,0,1,.06-.41c.33-1,1.89-1.91,4.66-2.79a16,16,0,0,1,3-.7l.17,1.25a5,5,0,0,1-1.77.76,12.49,12.49,0,0,0-2.09.74,1.51,1.51,0,0,0-1,1.35c0,.41.76.78,2.29,1.11a15.11,15.11,0,0,1,1.9.51,4.47,4.47,0,0,1,1.89,1.23,3.08,3.08,0,0,1,1,2.14A2,2,0,0,1,127,101Z"/><path class="cls-1" d="M146.23,96.9a2.77,2.77,0,0,1-.42,1.23,6.08,6.08,0,0,1-4.26,1.91,8,8,0,0,1-1.67-.06c0,.32.22,2.12.6,5.41a1.34,1.34,0,0,1-.92.41l-.87,0a64.12,64.12,0,0,1-1.09-8.75,41.32,41.32,0,0,1-.06-5.61,13.72,13.72,0,0,1,3.6-.55,5.7,5.7,0,0,1,4.57,1.78,3.81,3.81,0,0,1,.63,2.1A8.33,8.33,0,0,1,146.23,96.9Zm-2.38-3.32a5.88,5.88,0,0,0-3.12-.88,6.63,6.63,0,0,0-1.35.26c0,.49,0,1,.05,1.6s.13,1.65.3,3.42c1,.07,1.59.1,1.91.09A3.72,3.72,0,0,0,144,97c.25-.25.34-.89.27-1.93C144.24,94.2,144.08,93.72,143.85,93.58Z"/><path class="cls-1" d="M151.27,103.23h-.44a2.29,2.29,0,0,1-2.26-1.45,8.41,8.41,0,0,1-.52-2,1.67,1.67,0,0,1,0-.39c0-.9.74-1.93,2.21-3.08a4.29,4.29,0,0,1,2.76-.86c.38,0,.89,0,1.55.11a13.62,13.62,0,0,0,1.55.13A2.92,2.92,0,0,0,154.53,93a1.74,1.74,0,0,0-.88-.22,3.09,3.09,0,0,0-1.57.56l-1.65,1.09a.71.71,0,0,1-.61-.38,1.26,1.26,0,0,1-.23-.68.82.82,0,0,1,.14-.45,6.8,6.8,0,0,1,4.14-2,3.31,3.31,0,0,1,3.26,2.12,13.55,13.55,0,0,1,.78,3.68,21.17,21.17,0,0,0,.71,3.81C157.08,101.83,154.66,102.73,151.27,103.23Zm4.34-5.77a7.09,7.09,0,0,0-2.05-.36,3.94,3.94,0,0,0-3.34,1.78,2,2,0,0,0-.41,1.15,1.17,1.17,0,0,0,.89,1.23,2.77,2.77,0,0,0,.87.1,31.75,31.75,0,0,0,3.46-.54,3.25,3.25,0,0,0,1.36-.78l-.14-1.41A1.8,1.8,0,0,0,155.61,97.46Z"/><path class="cls-1" d="M171.72,93.44a3.25,3.25,0,0,0-1.82-.81,5.24,5.24,0,0,0-2.64.23A7.7,7.7,0,0,0,165,94.37a10,10,0,0,0-2.45,3,12.13,12.13,0,0,0,0,2.28c0,.44.13,1.37.3,2.76.1.72.15,1.28.2,1.65l-1.49.1c-.08-.84-.18-1.81-.34-2.93l-.49-3.6a37.81,37.81,0,0,1-.43-5.12h.28l.18,0a1.9,1.9,0,0,1,.66-.3.45.45,0,0,1,.39.14l.18,2.36c1.68-2.59,3.81-4,6.39-4.18a12.16,12.16,0,0,1,1.94.09,3.69,3.69,0,0,1,1.78.44,5.25,5.25,0,0,1,.14,1.16C172.23,93,172.05,93.4,171.72,93.44Z"/><path class="cls-1" d="M175.7,103.23h-.44a2.29,2.29,0,0,1-2.26-1.45,8.41,8.41,0,0,1-.52-2,1.26,1.26,0,0,1,0-.39c0-.9.73-1.93,2.21-3.08a4.29,4.29,0,0,1,2.76-.86c.37,0,.87,0,1.55.11a13.93,13.93,0,0,0,1.56.13A2.94,2.94,0,0,0,179,93a1.78,1.78,0,0,0-.89-.22,3.06,3.06,0,0,0-1.56.56l-1.66,1.09a.72.72,0,0,1-.59-.38,1.14,1.14,0,0,1-.25-.68.77.77,0,0,1,.16-.45,6.76,6.76,0,0,1,4.13-2,3.3,3.3,0,0,1,3.26,2.12,13.55,13.55,0,0,1,.78,3.68,22.12,22.12,0,0,0,.71,3.81C181.51,101.83,179.07,102.73,175.7,103.23ZM180,97.46a6.85,6.85,0,0,0-2-.36,3.92,3.92,0,0,0-3.35,1.78,1.87,1.87,0,0,0-.4,1.15,1.16,1.16,0,0,0,.89,1.23,2.65,2.65,0,0,0,.86.1,32.13,32.13,0,0,0,3.46-.54,3.09,3.09,0,0,0,1.35-.78l-.12-1.41A1.78,1.78,0,0,0,180,97.46Z"/><path class="cls-1" d="M204.9,91.5c.17,0,.24.27.24.65,0,.76-.24,1.13-.69,1.13l-4.64.84c0,.29,0,.68-.05,1.16,0,1.08-.07,1.77-.07,2.07a5.41,5.41,0,0,0,1.44,4.11.89.89,0,0,0,.64.26,7.2,7.2,0,0,0,1.45-.41,3.27,3.27,0,0,1,1-.2,1.07,1.07,0,0,1,.3,0,3.56,3.56,0,0,1,.31,1.16c-.64.8-1.86,1.2-3.59,1.2a2.22,2.22,0,0,1-1.4-.6q-1.53-1.31-1.86-5.54c-.07-.83-.11-1.85-.11-3a23,23,0,0,0-2.73.44,11.84,11.84,0,0,0-2.58,1,3.94,3.94,0,0,1-.38-.89l-.31-.89a4,4,0,0,1,1.77-.84,21.48,21.48,0,0,1,2.26-.36,14.12,14.12,0,0,0,2.23-.45c.21-.77.37-1.44.49-2a19.07,19.07,0,0,0,.41-2.26c.15-.27.45-.39.92-.39a1.73,1.73,0,0,1,.73.15,12.89,12.89,0,0,1-.51,2.26,6.16,6.16,0,0,0-.22,1.5,2.4,2.4,0,0,0,.05.52,27.88,27.88,0,0,0,3.52-.46A10.89,10.89,0,0,1,204.9,91.5Z"/><path class="cls-1" d="M220.89,99.61c-.56,2.43-2.3,3.64-5.26,3.64a16.39,16.39,0,0,1-4.55-.5,5.51,5.51,0,0,1-3.21-2.38,7.11,7.11,0,0,1-1.09-4,4.91,4.91,0,0,1,.88-2.89,6.27,6.27,0,0,1,5.3-3.06,11.37,11.37,0,0,1,4.45,1.12,5.72,5.72,0,0,1,2.75,2.51,7.34,7.34,0,0,1,.94,3.69A9.23,9.23,0,0,1,220.89,99.61Zm-1.67-.54a2.77,2.77,0,0,0,.27-1.22,4.48,4.48,0,0,0-.9-2.57,6,6,0,0,0-1.78-1.75,7.53,7.53,0,0,0-4-1.25,3.22,3.22,0,0,0-3.41,2.22,9.1,9.1,0,0,0-.65,2.75,3.84,3.84,0,0,0,.26,1.42,3.16,3.16,0,0,0,2.62,2l1,.13.36,0c1.49.19,2.36.28,2.61.28A3.81,3.81,0,0,0,219.22,99.07Z"/><path class="cls-1" d="M232.13,103.15a3.59,3.59,0,0,0-1.54.65v-1.49a8.25,8.25,0,0,1-1.88.5c-1.53.22-2.36.32-2.49.32a3.13,3.13,0,0,1-2.8-1.63,6.21,6.21,0,0,1-.89-3.34,5.49,5.49,0,0,1,2.49-5,9,9,0,0,1,4.8-1.28,31.52,31.52,0,0,1-.36-4.64.67.67,0,0,1,.57-.21,1.43,1.43,0,0,1,1.18.57c0,.13.23,2.27.63,6.43q.38,3.87.38,6.45C232.22,101.4,232.18,102.29,232.13,103.15ZM230.31,96a5.38,5.38,0,0,0-.33-1.74,7,7,0,0,0-1.17-.1,6.63,6.63,0,0,0-3.48,1.11,2.4,2.4,0,0,0-.88,1.41,6.9,6.9,0,0,0-.25,1.79,2.44,2.44,0,0,0,1.05,2.13,2.18,2.18,0,0,0,1.23.5,5.31,5.31,0,0,0,3.91-1.5C230.39,98.44,230.36,97.25,230.31,96Z"/><path class="cls-1" d="M248.47,99.61c-.55,2.43-2.32,3.64-5.24,3.64a16.42,16.42,0,0,1-4.56-.5,5.5,5.5,0,0,1-3.22-2.38,7.27,7.27,0,0,1-1.08-4,4.91,4.91,0,0,1,.87-2.89,6.3,6.3,0,0,1,5.33-3.06A11.49,11.49,0,0,1,245,91.59a5.81,5.81,0,0,1,2.73,2.51,7.32,7.32,0,0,1,.91,3.69A8.52,8.52,0,0,1,248.47,99.61Zm-1.68-.54a2.53,2.53,0,0,0,.28-1.22,4.54,4.54,0,0,0-.89-2.57,6,6,0,0,0-1.79-1.75,7.49,7.49,0,0,0-4-1.25A3.23,3.23,0,0,0,237,94.5a9.33,9.33,0,0,0-.64,2.75,4.29,4.29,0,0,0,.25,1.42,3.21,3.21,0,0,0,2.65,2l1,.13.36,0c1.5.19,2.38.28,2.63.28A3.77,3.77,0,0,0,246.79,99.07Z"/><path class="cls-1" d="M260.27,101c-.57,1.17-1.8,1.85-3.7,2.08a21.89,21.89,0,0,1-2.37.12h-3.1a2,2,0,0,1-.81-1.59c0-.06,0-.18,0-.34a.2.2,0,0,1,.18-.07l.78.16c.1,0,.74.07,1.88.13.63,0,1.1,0,1.35,0,2.38,0,3.65-.57,3.78-1.73.06-.5-1.23-1.23-3.83-2.16l-2.82-1a1.85,1.85,0,0,1-.77-.56,1.82,1.82,0,0,1-.49-1.2,2.05,2.05,0,0,1,.07-.41q.49-1.47,4.65-2.79a15.78,15.78,0,0,1,3-.7l.17,1.25a5.17,5.17,0,0,1-1.76.76,11.91,11.91,0,0,0-2.11.74,1.53,1.53,0,0,0-1,1.35c0,.41.75.78,2.27,1.11a16.71,16.71,0,0,1,1.93.51,4.3,4.3,0,0,1,1.87,1.23,3.1,3.1,0,0,1,1,2.14A1.86,1.86,0,0,1,260.27,101Z"/><path class="cls-1" d="M430.56,62.58a7.6,7.6,0,1,0,7.4,7.59A7.5,7.5,0,0,0,430.56,62.58Zm0,14.21A6.62,6.62,0,1,1,437,70.17,6.54,6.54,0,0,1,430.56,76.79Z"/><path class="cls-1" d="M427.22,74.59V65.76H431a5.16,5.16,0,0,1,1.75.23,2,2,0,0,1,1,.84,2.56,2.56,0,0,1,.36,1.34,2.28,2.28,0,0,1-.59,1.58,3,3,0,0,1-1.84.82,2.84,2.84,0,0,1,.69.44,6.43,6.43,0,0,1,.95,1.17l1.5,2.41h-1.44l-1.13-1.84c-.34-.53-.61-.93-.82-1.21a2.78,2.78,0,0,0-.59-.6,1.72,1.72,0,0,0-.52-.23,3,3,0,0,0-.63,0h-1.32v3.93Zm1.14-4.94h2.45a3.68,3.68,0,0,0,1.22-.16,1.31,1.31,0,0,0,.66-.53,1.41,1.41,0,0,0,.24-.79,1.33,1.33,0,0,0-.45-1,2.07,2.07,0,0,0-1.4-.4h-2.72Z"/><rect class="cls-3" x="7.87" y="110.71" width="430.08" height="39"/><path class="cls-4" d="M18.6,123.16h3v10.66h5.69v2.61H18.6Z"/><path class="cls-4" d="M34.94,136.43v-1.19a3.4,3.4,0,0,1-1.33,1,5,5,0,0,1-1.88.34,3.59,3.59,0,0,1-2.56-.89,3,3,0,0,1-1-2.3,2.71,2.71,0,0,1,1-2.25,4.54,4.54,0,0,1,2.87-.82h2.81v-.19a1.52,1.52,0,0,0-.54-1.26,2.43,2.43,0,0,0-1.59-.45,6.32,6.32,0,0,0-3,.89l-.91-2a12.46,12.46,0,0,1,2.27-.89,9,9,0,0,1,2.34-.29,4.75,4.75,0,0,1,3.17,1,3.4,3.4,0,0,1,1.15,2.7l0,6.65ZM34.12,134a1.7,1.7,0,0,0,.8-1.1V132h-2.3a2.22,2.22,0,0,0-1.26.28,1,1,0,0,0-.41.88,1.14,1.14,0,0,0,.43.94,1.79,1.79,0,0,0,1.17.35A2.81,2.81,0,0,0,34.12,134Z"/><path class="cls-4" d="M49.08,126.79a4.4,4.4,0,0,1,1.69,1.85,6.15,6.15,0,0,1,.59,2.75,5.83,5.83,0,0,1-.59,2.7,4.28,4.28,0,0,1-1.66,1.81,4.71,4.71,0,0,1-2.49.65,4.24,4.24,0,0,1-1.89-.41A3.77,3.77,0,0,1,43.34,135v1.48H40.42V122.36h2.92v5.37a3.56,3.56,0,0,1,1.37-1.19,4.15,4.15,0,0,1,1.85-.41A4.79,4.79,0,0,1,49.08,126.79Zm-1.38,6.54a3.29,3.29,0,0,0,0-4.06,2.53,2.53,0,0,0-3.65,0,3.27,3.27,0,0,0,0,4.07,2.35,2.35,0,0,0,1.83.78A2.31,2.31,0,0,0,47.7,133.33Z"/><path class="cls-4" d="M60.76,126.78a4.71,4.71,0,0,1,1.93,1.82,5.8,5.8,0,0,1,0,5.45,4.69,4.69,0,0,1-1.93,1.84,6,6,0,0,1-2.85.66,6.06,6.06,0,0,1-2.88-.66,4.61,4.61,0,0,1-1.92-1.84,5.73,5.73,0,0,1,0-5.45A4.62,4.62,0,0,1,55,126.78a6.18,6.18,0,0,1,2.88-.65A6.11,6.11,0,0,1,60.76,126.78Zm-4.7,2.56a3.26,3.26,0,0,0,0,4.06,2.56,2.56,0,0,0,3.68,0,3.26,3.26,0,0,0,0-4.06,2.56,2.56,0,0,0-3.68,0Z"/><path class="cls-4" d="M69.61,126.63a4.11,4.11,0,0,1,2-.52v2.76a2.7,2.7,0,0,0-.45,0,3,3,0,0,0-2.14.73,2.52,2.52,0,0,0-.78,1.94v4.91H65.3v-10.2h2.93v1.84A3.69,3.69,0,0,1,69.61,126.63Z"/><path class="cls-4" d="M78.79,136.43v-1.19a3.26,3.26,0,0,1-1.33,1,5,5,0,0,1-1.87.34,3.63,3.63,0,0,1-2.57-.89,3,3,0,0,1-.94-2.3,2.71,2.71,0,0,1,1-2.25,4.58,4.58,0,0,1,2.87-.82h2.81v-.19a1.52,1.52,0,0,0-.54-1.26,2.42,2.42,0,0,0-1.58-.45,6.38,6.38,0,0,0-3,.89l-.91-2A12.53,12.53,0,0,1,75,126.4a9,9,0,0,1,2.33-.29,4.76,4.76,0,0,1,3.18,1,3.47,3.47,0,0,1,1.15,2.7l0,6.65ZM78,134a1.69,1.69,0,0,0,.79-1.1V132H76.48a2.22,2.22,0,0,0-1.26.28,1,1,0,0,0-.41.88,1.16,1.16,0,0,0,.42.94,1.83,1.83,0,0,0,1.17.35A2.84,2.84,0,0,0,78,134Z"/><path class="cls-4" d="M90.49,135.86a4.59,4.59,0,0,1-1.26.53,5.47,5.47,0,0,1-1.39.18,3.34,3.34,0,0,1-2.32-.82,3,3,0,0,1-.89-2.33v-4.73H83.21v-2h1.42v-2.8h2.91v2.8H90.3v2H87.54v4.21c0,.79.31,1.18.92,1.18a3.36,3.36,0,0,0,1.43-.38Z"/><path class="cls-4" d="M99.65,126.78a4.68,4.68,0,0,1,1.92,1.82,5.73,5.73,0,0,1,0,5.45,4.67,4.67,0,0,1-1.92,1.84,6.55,6.55,0,0,1-5.73,0A4.69,4.69,0,0,1,92,134.05a5.8,5.8,0,0,1,0-5.45,4.71,4.71,0,0,1,1.93-1.82,6.64,6.64,0,0,1,5.73,0Zm-4.71,2.56a3.26,3.26,0,0,0,0,4.06,2.39,2.39,0,0,0,1.85.78,2.35,2.35,0,0,0,1.83-.78,3.26,3.26,0,0,0,0-4.06,2.35,2.35,0,0,0-1.83-.78A2.39,2.39,0,0,0,94.94,129.34Z"/><path class="cls-4" d="M108.5,126.63a4.08,4.08,0,0,1,2-.52v2.76a2.83,2.83,0,0,0-.46,0,3,3,0,0,0-2.13.73,2.49,2.49,0,0,0-.79,1.94v4.91h-2.92v-10.2h2.92v1.84A3.71,3.71,0,0,1,108.5,126.63Z"/><path class="cls-4" d="M114.67,122.15a1.61,1.61,0,0,1,.45,1.18,1.58,1.58,0,0,1-.45,1.17,1.63,1.63,0,0,1-2.28,0,1.78,1.78,0,0,1,0-2.34,1.64,1.64,0,0,1,2.28,0Zm-2.59,4.08H115v10.2h-2.92Z"/><path class="cls-4" d="M125.27,126.78a4.71,4.71,0,0,1,1.93,1.82,5.8,5.8,0,0,1,0,5.45,4.69,4.69,0,0,1-1.93,1.84,6,6,0,0,1-2.85.66,6.06,6.06,0,0,1-2.88-.66,4.67,4.67,0,0,1-1.92-1.84,5.8,5.8,0,0,1,0-5.45,4.68,4.68,0,0,1,1.92-1.82,6.18,6.18,0,0,1,2.88-.65A6.11,6.11,0,0,1,125.27,126.78Zm-4.7,2.56a3.26,3.26,0,0,0,0,4.06,2.56,2.56,0,0,0,3.68,0,3.26,3.26,0,0,0,0-4.06,2.56,2.56,0,0,0-3.68,0Z"/><path class="cls-4" d="M138.79,128.62a2.31,2.31,0,0,0-1.79.75,2.77,2.77,0,0,0-.7,2,2.88,2.88,0,0,0,.69,2,2.22,2.22,0,0,0,1.74.77,2.63,2.63,0,0,0,2.37-1.2l2,1.37A4.3,4.3,0,0,1,141.3,136a6,6,0,0,1-2.72.59,5.54,5.54,0,0,1-2.71-.65,4.46,4.46,0,0,1-1.83-1.82,5.44,5.44,0,0,1-.66-2.71,5.53,5.53,0,0,1,.66-2.74,4.53,4.53,0,0,1,1.84-1.84,5.53,5.53,0,0,1,2.74-.66,5.88,5.88,0,0,1,2.6.56,4.67,4.67,0,0,1,1.82,1.59l-2,1.42A2.78,2.78,0,0,0,138.79,128.62Z"/><path class="cls-4" d="M145,122.36H148v14.07H145Z"/><path class="cls-4" d="M153,121.92l2.58,1L153,125l-2.13-.19Zm-2.11,4.31h2.92v10.2h-2.92Z"/><path class="cls-4" d="M165.77,127.18a3.91,3.91,0,0,1,1,2.84v6.41h-2.93v-5.55a2.1,2.1,0,0,0-.54-1.53,2,2,0,0,0-1.47-.56,2.14,2.14,0,0,0-1.7.75,2.77,2.77,0,0,0-.63,1.87v5H156.6v-10.2h2.92V128a3.82,3.82,0,0,1,3.53-1.9A3.58,3.58,0,0,1,165.77,127.18Z"/><path class="cls-4" d="M171.9,122.15a1.64,1.64,0,0,1,.44,1.18,1.62,1.62,0,0,1-.44,1.17,1.52,1.52,0,0,1-1.15.46,1.5,1.5,0,0,1-1.13-.47,1.78,1.78,0,0,1,0-2.34,1.53,1.53,0,0,1,1.13-.46A1.56,1.56,0,0,1,171.9,122.15Zm-2.59,4.08h2.92v10.2h-2.92Z"/><path class="cls-4" d="M179.57,128.62a2.33,2.33,0,0,0-1.79.75,2.81,2.81,0,0,0-.69,2,2.87,2.87,0,0,0,.68,2,2.23,2.23,0,0,0,1.74.77,2.61,2.61,0,0,0,2.37-1.2l2,1.37a4.33,4.33,0,0,1-1.82,1.67,6,6,0,0,1-2.72.59,5.54,5.54,0,0,1-2.71-.65,4.58,4.58,0,0,1-1.83-1.82,5.44,5.44,0,0,1-.66-2.71,5.53,5.53,0,0,1,.66-2.74,4.59,4.59,0,0,1,1.84-1.84,5.53,5.53,0,0,1,2.74-.66,5.88,5.88,0,0,1,2.6.56,4.6,4.6,0,0,1,1.82,1.59l-2,1.42A2.79,2.79,0,0,0,179.57,128.62Z"/><path class="cls-4" d="M192.86,126.78a4.62,4.62,0,0,1,1.92,1.82,5.73,5.73,0,0,1,0,5.45,4.61,4.61,0,0,1-1.92,1.84,6.55,6.55,0,0,1-5.73,0,4.69,4.69,0,0,1-1.93-1.84,5.8,5.8,0,0,1,0-5.45,4.71,4.71,0,0,1,1.93-1.82,6.64,6.64,0,0,1,5.73,0Zm-4.71,2.56a3.26,3.26,0,0,0,0,4.06,2.39,2.39,0,0,0,1.85.78,2.35,2.35,0,0,0,1.83-.78,3.26,3.26,0,0,0,0-4.06,2.35,2.35,0,0,0-1.83-.78A2.39,2.39,0,0,0,188.15,129.34Z"/><path class="cls-4" d="M209.41,129.28v1.94h-3.25v3.2h-1.85v-3.2h-3.25v-1.94h3.25v-3.22h1.85v3.22Z"/><path class="cls-4" d="M215.93,123.16h3v13.27h-3Z"/><path class="cls-4" d="M238,127.17a4,4,0,0,1,1,2.85v6.41h-2.9v-5.55a2.15,2.15,0,0,0-.53-1.54,1.92,1.92,0,0,0-1.45-.55,2.11,2.11,0,0,0-1.65.74,2.81,2.81,0,0,0-.6,1.86v5H229v-5.55a2.14,2.14,0,0,0-.53-1.53,1.87,1.87,0,0,0-1.43-.56,2.13,2.13,0,0,0-1.66.74,2.77,2.77,0,0,0-.62,1.86v5h-2.92v-10.2h2.92V128a4.13,4.13,0,0,1,5.64-1.26,3.34,3.34,0,0,1,1.27,1.74,3.74,3.74,0,0,1,1.43-1.75,4.39,4.39,0,0,1,2.25-.61A3.52,3.52,0,0,1,238,127.17Z"/><path class="cls-4" d="M247.44,136.43v-1.19a3.26,3.26,0,0,1-1.33,1,5,5,0,0,1-1.88.34,3.63,3.63,0,0,1-2.56-.89,3,3,0,0,1-.94-2.3,2.71,2.71,0,0,1,1-2.25,4.56,4.56,0,0,1,2.87-.82h2.81v-.19a1.52,1.52,0,0,0-.54-1.26,2.42,2.42,0,0,0-1.58-.45,6.38,6.38,0,0,0-3,.89l-.91-2a12.53,12.53,0,0,1,2.28-.89,9,9,0,0,1,2.33-.29,4.76,4.76,0,0,1,3.18,1,3.47,3.47,0,0,1,1.15,2.7v6.65Zm-.82-2.39a1.67,1.67,0,0,0,.8-1.1V132h-2.29a2.28,2.28,0,0,0-1.27.28,1,1,0,0,0-.4.88,1.16,1.16,0,0,0,.42.94,1.83,1.83,0,0,0,1.17.35A2.78,2.78,0,0,0,246.62,134Z"/><path class="cls-4" d="M262.39,126.23v9.25a4.55,4.55,0,0,1-.69,2.52,4.48,4.48,0,0,1-1.91,1.65,6.71,6.71,0,0,1-2.85.58,7.84,7.84,0,0,1-4.43-1.35l1.08-2a5.35,5.35,0,0,0,3.16,1,3,3,0,0,0,2-.62,2.05,2.05,0,0,0,.74-1.66v-1.16a3.49,3.49,0,0,1-1.29,1.1,4,4,0,0,1-1.79.38,4.39,4.39,0,0,1-2.32-.61,4.23,4.23,0,0,1-1.58-1.74A5.76,5.76,0,0,1,252,131a5.51,5.51,0,0,1,.56-2.53,4.18,4.18,0,0,1,1.58-1.7,4.49,4.49,0,0,1,2.32-.61,3.9,3.9,0,0,1,1.77.39,3.83,3.83,0,0,1,1.31,1.09v-1.38ZM258.82,133a2.72,2.72,0,0,0,.67-1.9,2.77,2.77,0,0,0-.67-1.92,2.38,2.38,0,0,0-3.45,0,2.82,2.82,0,0,0-.68,1.92,2.77,2.77,0,0,0,.67,1.9,2.41,2.41,0,0,0,3.46,0Z"/><path class="cls-4" d="M273.19,127.56a5.71,5.71,0,0,1,1.28,4c0,.3,0,.54,0,.7h-7.32a2.62,2.62,0,0,0,.95,1.51,2.69,2.69,0,0,0,1.69.54,3.61,3.61,0,0,0,1.38-.27,4,4,0,0,0,1.2-.81l1.53,1.56a5.19,5.19,0,0,1-1.89,1.33,6.29,6.29,0,0,1-2.47.47,5.9,5.9,0,0,1-2.82-.65,4.53,4.53,0,0,1-1.86-1.82,6,6,0,0,1,0-5.45,4.7,4.7,0,0,1,1.86-1.84,5.57,5.57,0,0,1,2.73-.66A4.77,4.77,0,0,1,273.19,127.56Zm-1.47,2.94a2.34,2.34,0,0,0-.65-1.62,2.18,2.18,0,0,0-1.61-.6,2.24,2.24,0,0,0-1.58.59,2.84,2.84,0,0,0-.81,1.63Z"/><path class="cls-4" d="M285.56,127.18a3.94,3.94,0,0,1,1,2.84v6.41h-2.92v-5.55a2.1,2.1,0,0,0-.54-1.53,2,2,0,0,0-1.47-.56,2.18,2.18,0,0,0-1.71.75,2.81,2.81,0,0,0-.62,1.87v5h-2.92v-10.2h2.92V128a3.82,3.82,0,0,1,3.53-1.9A3.6,3.6,0,0,1,285.56,127.18Z"/><path class="cls-4" d="M296.56,126.78a4.62,4.62,0,0,1,1.92,1.82,5.73,5.73,0,0,1,0,5.45,4.61,4.61,0,0,1-1.92,1.84,6,6,0,0,1-2.85.66,6.06,6.06,0,0,1-2.88-.66,4.61,4.61,0,0,1-1.92-1.84,5.73,5.73,0,0,1,0-5.45,4.62,4.62,0,0,1,1.92-1.82,6.18,6.18,0,0,1,2.88-.65A6.11,6.11,0,0,1,296.56,126.78Zm-4.7,2.56a3.22,3.22,0,0,0,0,4.06,2.56,2.56,0,0,0,3.68,0,3.26,3.26,0,0,0,0-4.06,2.56,2.56,0,0,0-3.68,0Z"/><path class="cls-4" d="M301.2,122.36h2.92v14.07H301.2Z"/><path class="cls-4" d="M314.5,126.78a4.71,4.71,0,0,1,1.93,1.82,5.8,5.8,0,0,1,0,5.45,4.69,4.69,0,0,1-1.93,1.84,6.53,6.53,0,0,1-5.72,0,4.69,4.69,0,0,1-1.93-1.84,5.8,5.8,0,0,1,0-5.45,4.71,4.71,0,0,1,1.93-1.82,6.62,6.62,0,0,1,5.72,0Zm-4.7,2.56a3.26,3.26,0,0,0,0,4.06,2.38,2.38,0,0,0,1.85.78,2.35,2.35,0,0,0,1.83-.78,3.26,3.26,0,0,0,0-4.06,2.35,2.35,0,0,0-1.83-.78A2.38,2.38,0,0,0,309.8,129.34Z"/><path class="cls-4" d="M328.61,126.23v9.25a4.55,4.55,0,0,1-.69,2.52,4.48,4.48,0,0,1-1.91,1.65,6.71,6.71,0,0,1-2.85.58,7.79,7.79,0,0,1-2.38-.36,8,8,0,0,1-2.06-1l1.09-2a5.35,5.35,0,0,0,3.16,1,3,3,0,0,0,2-.62,2,2,0,0,0,.73-1.66v-1.16a3.34,3.34,0,0,1-1.29,1.1,3.89,3.89,0,0,1-1.78.38,4.37,4.37,0,0,1-2.32-.61,4.23,4.23,0,0,1-1.58-1.74,5.76,5.76,0,0,1-.56-2.58,5.51,5.51,0,0,1,.56-2.53,4.18,4.18,0,0,1,1.58-1.7,4.46,4.46,0,0,1,2.32-.61,3.9,3.9,0,0,1,1.77.39,3.79,3.79,0,0,1,1.3,1.09v-1.38ZM325,133a2.71,2.71,0,0,0,.66-1.9,2.76,2.76,0,0,0-.66-1.92,2.38,2.38,0,0,0-3.45,0,2.82,2.82,0,0,0-.68,1.92,2.77,2.77,0,0,0,.67,1.9,2.41,2.41,0,0,0,3.46,0Z"/><path class="cls-4" d="M333.39,121.92l2.58,1L333.39,125l-2.13-.19Zm-2.11,4.31h2.92v10.2h-2.92Z"/><path class="cls-4" d="M342.93,136.43v-1.19a3.33,3.33,0,0,1-1.33,1,5,5,0,0,1-1.88.34,3.61,3.61,0,0,1-2.56-.89,3,3,0,0,1-1-2.3,2.71,2.71,0,0,1,1-2.25,4.54,4.54,0,0,1,2.87-.82h2.81v-.19a1.52,1.52,0,0,0-.54-1.26,2.42,2.42,0,0,0-1.58-.45,6.35,6.35,0,0,0-3,.89l-.91-2a12.53,12.53,0,0,1,2.28-.89,8.9,8.9,0,0,1,2.33-.29,4.79,4.79,0,0,1,3.18,1,3.43,3.43,0,0,1,1.14,2.7l0,6.65Zm-.82-2.39a1.67,1.67,0,0,0,.8-1.1V132h-2.3a2.22,2.22,0,0,0-1.26.28,1,1,0,0,0-.4.88,1.16,1.16,0,0,0,.42.94,1.81,1.81,0,0,0,1.17.35A2.78,2.78,0,0,0,342.11,134Z"/><path class="cls-4" d="M360.32,129.28v1.94h-3.24v3.2h-1.86v-3.2H352v-1.94h3.24v-3.22h1.86v3.22Z"/><path class="cls-4" d="M366.85,123.16h3v10.66h5.7v2.61h-8.69Z"/><path class="cls-4" d="M385.39,127.56a5.71,5.71,0,0,1,1.28,4c0,.3,0,.54,0,.7h-7.32a2.62,2.62,0,0,0,.95,1.51,2.67,2.67,0,0,0,1.69.54,3.61,3.61,0,0,0,1.38-.27,4,4,0,0,0,1.2-.81l1.53,1.56a5.19,5.19,0,0,1-1.89,1.33,6.32,6.32,0,0,1-2.47.47,5.87,5.87,0,0,1-2.82-.65,4.53,4.53,0,0,1-1.86-1.82,6,6,0,0,1,0-5.45,4.7,4.7,0,0,1,1.86-1.84,5.57,5.57,0,0,1,2.73-.66A4.77,4.77,0,0,1,385.39,127.56Zm-1.47,2.94a2.34,2.34,0,0,0-.65-1.62,2.18,2.18,0,0,0-1.61-.6,2.24,2.24,0,0,0-1.58.59,2.79,2.79,0,0,0-.81,1.63Z"/><path class="cls-4" d="M397.76,127.18a3.94,3.94,0,0,1,1,2.84v6.41h-2.92v-5.55a2.1,2.1,0,0,0-.54-1.53,2,2,0,0,0-1.47-.56,2.18,2.18,0,0,0-1.71.75,2.81,2.81,0,0,0-.62,1.87v5h-2.92v-10.2h2.92V128a3.81,3.81,0,0,1,3.52-1.9A3.61,3.61,0,0,1,397.76,127.18Z"/><path class="cls-4" d="M407.61,135.86a4.73,4.73,0,0,1-1.26.53,5.52,5.52,0,0,1-1.39.18,3.34,3.34,0,0,1-2.32-.82,3,3,0,0,1-.89-2.33v-4.73h-1.42v-2h1.42v-2.8h2.9v2.8h2.77v2h-2.77v4.21c0,.79.31,1.18.93,1.18a3.29,3.29,0,0,0,1.42-.38Z"/><path class="cls-4" d="M417.43,127.56a5.71,5.71,0,0,1,1.28,4c0,.3,0,.54,0,.7h-7.32a2.62,2.62,0,0,0,.95,1.51,2.66,2.66,0,0,0,1.68.54,3.66,3.66,0,0,0,1.39-.27,3.81,3.81,0,0,0,1.19-.81l1.54,1.56a5.19,5.19,0,0,1-1.89,1.33,6.32,6.32,0,0,1-2.47.47,5.87,5.87,0,0,1-2.82-.65,4.53,4.53,0,0,1-1.86-1.82,5.43,5.43,0,0,1-.65-2.71,5.53,5.53,0,0,1,.66-2.74,4.58,4.58,0,0,1,1.86-1.84,5.57,5.57,0,0,1,2.73-.66A4.8,4.8,0,0,1,417.43,127.56ZM416,130.5a2.34,2.34,0,0,0-.65-1.62,2.18,2.18,0,0,0-1.61-.6,2.24,2.24,0,0,0-1.58.59,2.73,2.73,0,0,0-.81,1.63Z"/><path class="cls-4" d="M425.4,128.49a4.91,4.91,0,0,0-1.46-.25,1.62,1.62,0,0,0-.85.19.62.62,0,0,0-.32.57.69.69,0,0,0,.43.64,8.6,8.6,0,0,0,1.43.51,15.74,15.74,0,0,1,1.78.64,3.31,3.31,0,0,1,1.21.93,2.46,2.46,0,0,1,.51,1.62A2.73,2.73,0,0,1,427,135.7a4.94,4.94,0,0,1-3,.85,8.09,8.09,0,0,1-2.41-.37,6.22,6.22,0,0,1-2-1.06l.95-2a5.86,5.86,0,0,0,1.74.94,5.52,5.52,0,0,0,1.81.33,1.85,1.85,0,0,0,.94-.2.64.64,0,0,0,.35-.59.77.77,0,0,0-.45-.69,7.78,7.78,0,0,0-1.43-.53,12.67,12.67,0,0,1-1.74-.61,3,3,0,0,1-1.18-.92,2.47,2.47,0,0,1-.5-1.6,2.75,2.75,0,0,1,1.14-2.35,4.73,4.73,0,0,1,2.89-.83,7.46,7.46,0,0,1,2.08.29,7.27,7.27,0,0,1,1.9.84l-1,2A8.55,8.55,0,0,0,425.4,128.49Z"/></svg>