<svg xmlns="http://www.w3.org/2000/svg" viewBox="0 0 577.81 122.4"><defs><style>.cls-1,.cls-3{fill:#87868a;}.cls-2{fill:#5d9e6a;}.cls-3{fill-rule:evenodd;}</style></defs><title>Recurso 3</title><g id="Capa_2" data-name="Capa 2"><g id="Capa_1-2" data-name="Capa 1"><path class="cls-1" d="M546.75,81c-.12-1.44-.21-3-.26-4.66s-.07-3.42-.07-5.22V51.69a33.42,33.42,0,0,0-1.17-9.31,21,21,0,0,0-4-7.67,18.46,18.46,0,0,0-7.39-5.17,30.3,30.3,0,0,0-11.37-1.94h-.43a51.58,51.58,0,0,0-8.64.79,45,45,0,0,0-7.1,1.87,31.32,31.32,0,0,0-5,2.25l3.11,11.18a21.33,21.33,0,0,1,4.28-2.1,29.81,29.81,0,0,1,5.15-1.54,27.88,27.88,0,0,1,5.6-.59,25.35,25.35,0,0,1,2.59.16,10.73,10.73,0,0,1,2.47.56,7.45,7.45,0,0,1,3,1.76A6.06,6.06,0,0,1,529,44.28a8,8,0,0,1,.37,2.37v.83a66,66,0,0,0-7.32.31,51.91,51.91,0,0,0-5.79.93,31.43,31.43,0,0,0-10.07,3.93,18.82,18.82,0,0,0-6.48,6.69,19.24,19.24,0,0,0-2.26,9.48,17.47,17.47,0,0,0,1.19,6.43,16.25,16.25,0,0,0,3.46,5.45,15.86,15.86,0,0,0,5.5,3.81A19.08,19.08,0,0,0,515,85.94a23.27,23.27,0,0,0,7-1,19.17,19.17,0,0,0,1.86-.71,17.56,17.56,0,0,0,6.68-5.09H531l1,5.6h15.22C547,83.64,546.89,82.43,546.75,81ZM530,64.36c0,.53,0,1-.05,1.53s-.17,1-.28,1.45a8.82,8.82,0,0,1-1.85,3.23,9,9,0,0,1-5.69,3.06,9.11,9.11,0,0,1-1.26.09,7.76,7.76,0,0,1-3.41-.72A5.53,5.53,0,0,1,515,70.8a7.48,7.48,0,0,1-.89-3.69,7.19,7.19,0,0,1,2.11-5.31A12.12,12.12,0,0,1,521.89,59l.19,0a32.9,32.9,0,0,1,7.87-.69Z"/><path class="cls-1" d="M412.83,35.48h-.24a16.58,16.58,0,0,0-3.45-4.07,14.83,14.83,0,0,0-4.88-2.77,17.53,17.53,0,0,0-3.84-.88c-.86-.09-1.78-.15-2.74-.16a23.11,23.11,0,0,0-9.48,2.06,23.36,23.36,0,0,0-7.87,5.9A27.82,27.82,0,0,0,375,44.8a36.06,36.06,0,0,0-2,12.14A35.48,35.48,0,0,0,374.7,68a25.52,25.52,0,0,0,4.77,8.61,21,21,0,0,0,7.27,5.63,22,22,0,0,0,13.68,1.52,17.93,17.93,0,0,0,4.08-1.43,16.11,16.11,0,0,0,6.21-5.42h.22v3.67A17.19,17.19,0,0,1,409.08,89a11.54,11.54,0,0,1-5,4.8A15.28,15.28,0,0,1,400.42,95a17.74,17.74,0,0,1-3.62.32,35.14,35.14,0,0,1-6.16-.61,39.44,39.44,0,0,1-5.42-1.6,30.15,30.15,0,0,1-4.24-2l-3.31,13.13a26.83,26.83,0,0,0,5.69,2.41,42.78,42.78,0,0,0,6.71,1.44,52.28,52.28,0,0,0,7.15.49c1.07,0,2.13,0,3.2-.07,1.61-.11,3.19-.28,4.79-.54a32.93,32.93,0,0,0,7.55-2.12,24.44,24.44,0,0,0,6.63-4.12,21.42,21.42,0,0,0,4.86-6.62,31.58,31.58,0,0,0,2.59-8.46,55.78,55.78,0,0,0,.79-10V45.41c0-2.75,0-5.17.07-7.21s.08-3.81.15-5.32.15-2.85.22-4H413.38Zm-2.12,24.31c0,.75,0,1.56-.11,2.36a10.39,10.39,0,0,1-.45,2.21A9.35,9.35,0,0,1,408.3,68a8.7,8.7,0,0,1-3.07,2.51,8.93,8.93,0,0,1-4,.92,5.63,5.63,0,0,1-.83,0,9.37,9.37,0,0,1-5.22-2,12.1,12.1,0,0,1-3.77-5.31,21,21,0,0,1-1.31-7.54A23.48,23.48,0,0,1,391.64,48a12.61,12.61,0,0,1,4-5.37,9.09,9.09,0,0,1,4.76-1.82,7.45,7.45,0,0,1,.83,0,8.72,8.72,0,0,1,7.25,3.64,12,12,0,0,1,1.87,4,8,8,0,0,1,.25,1.5,13.37,13.37,0,0,1,.09,1.69Z"/><path class="cls-1" d="M484.57,33.42A16.57,16.57,0,0,0,478.41,29a20.33,20.33,0,0,0-7.75-1.43,21,21,0,0,0-6.1.9,18.69,18.69,0,0,0-4.83,2.22,19.68,19.68,0,0,0-3.58,2.89,17.41,17.41,0,0,0-2.27,2.89h-.35l-.78-7.65H438.06c.12,2.47.22,5.16.31,8.14s.14,6.2.14,9.66v38h16.92V52.48a19.28,19.28,0,0,1,.15-2.33,10.46,10.46,0,0,1,.51-2,10.9,10.9,0,0,1,1.66-3.11,9.43,9.43,0,0,1,2.86-2.45,8.42,8.42,0,0,1,4-.94,7.86,7.86,0,0,1,5,1.53,8.84,8.84,0,0,1,2.74,4.22,21,21,0,0,1,.86,6.32v31h16.91V51.58a35,35,0,0,0-1.47-10.68A20.65,20.65,0,0,0,484.57,33.42Z"/><path class="cls-1" d="M334.05,22.52a29.38,29.38,0,0,0-6.75-7.13,34.07,34.07,0,0,0-8-4.63,44.1,44.1,0,0,0-10-2.7c-1-.15-1.94-.28-3-.4a86.26,86.26,0,0,0-9.74-.48c-4.32,0-8.41.12-12.35.4s-7.43.68-10.57,1.19V84.35c2.09.3,4.74.54,7.9.77s7,.35,11.34.36a82.12,82.12,0,0,0,13.42-1A57.33,57.33,0,0,0,312.75,83a38.37,38.37,0,0,0,14.78-7.5A34,34,0,0,0,334,68a38.7,38.7,0,0,0,4.37-10.36A53.52,53.52,0,0,0,340,44.4a47,47,0,0,0-1.57-12.26A32.45,32.45,0,0,0,334.05,22.52ZM318.78,60.14A20.07,20.07,0,0,1,310,69a22.89,22.89,0,0,1-3.66,1.52,31.49,31.49,0,0,1-9.74,1.33c-1.07,0-2.15,0-3.22,0a13,13,0,0,1-2.7-.3V21.2a25.13,25.13,0,0,1,3-.47,44,44,0,0,1,4.73-.21,30.64,30.64,0,0,1,7.95,1A23.83,23.83,0,0,1,311,23.3a18.82,18.82,0,0,1,8.1,8.22A28.54,28.54,0,0,1,322,45C321.93,51.08,320.89,56.14,318.78,60.14Z"/><rect class="cls-1" x="348.31" y="28.85" width="16.9" height="55.84"/><path class="cls-2" d="M259.75,80.08c0-1.78-.1-3.71-.16-5.79s-.07-4.16-.07-6.28V3.52H242.61V33.88h-.23a12.24,12.24,0,0,0-5.59-4.6,18.88,18.88,0,0,0-5.08-1.42A28.71,28.71,0,0,0,228,27.6a22.59,22.59,0,0,0-9.31,2,23.23,23.23,0,0,0-7.79,5.8,27.65,27.65,0,0,0-5.35,9.3,39,39,0,0,0-1.92,12.61,37.22,37.22,0,0,0,1.82,11.8,27.86,27.86,0,0,0,5,9,22.12,22.12,0,0,0,7.38,5.77,21.05,21.05,0,0,0,9.1,2,21.68,21.68,0,0,0,4.78-.52,17.68,17.68,0,0,0,2-.55,17.45,17.45,0,0,0,5.85-3.16,17.22,17.22,0,0,0,4.42-5.24h.24l.76,8.22H260C259.89,83.41,259.81,81.87,259.75,80.08ZM242.61,59.79a15.33,15.33,0,0,1-.09,2.08,11.51,11.51,0,0,1-.36,1.93,11,11,0,0,1-1.9,4.32,9.39,9.39,0,0,1-3.39,2.94,9.81,9.81,0,0,1-4.49,1.07l-.67,0a10.36,10.36,0,0,1-5.47-1.86,12.12,12.12,0,0,1-4-5.34,22.49,22.49,0,0,1-1.46-8.19,23.35,23.35,0,0,1,.77-6.18,15.7,15.7,0,0,1,2.23-5,10.64,10.64,0,0,1,3.63-3.41,10.38,10.38,0,0,1,4.3-1.21l.75,0A9.85,9.85,0,0,1,237.15,42a10.06,10.06,0,0,1,3.38,3.08,11.8,11.8,0,0,1,1.85,4.3,12.23,12.23,0,0,1,.14,1.54,9.26,9.26,0,0,1,.09,1.53Z"/><path class="cls-2" d="M106.11,76.32C106,74.64,106,72.9,106,71.1V51.69a34.18,34.18,0,0,0-1.19-9.31,20.73,20.73,0,0,0-4-7.67,18.38,18.38,0,0,0-7.35-5.17A30.7,30.7,0,0,0,82.11,27.6h-.46a51.29,51.29,0,0,0-8.6.79,47.3,47.3,0,0,0-7.13,1.87,30.7,30.7,0,0,0-5,2.25L64.09,43.7a23.82,23.82,0,0,1,4.23-2.1,31.33,31.33,0,0,1,5.21-1.54,27.52,27.52,0,0,1,5.57-.59,23.5,23.5,0,0,1,2.55.16,11.16,11.16,0,0,1,2.53.56,7.43,7.43,0,0,1,3,1.76,6,6,0,0,1,1.44,2.33A6.89,6.89,0,0,1,89,46.65v.83a67,67,0,0,0-7.36.31,52.49,52.49,0,0,0-5.76.93,31.46,31.46,0,0,0-10.06,3.93,18.85,18.85,0,0,0-6.49,6.69,19.46,19.46,0,0,0-2.28,9.48,17.26,17.26,0,0,0,1.23,6.43,16.51,16.51,0,0,0,3.42,5.45,16.27,16.27,0,0,0,5.53,3.81,19.13,19.13,0,0,0,7.42,1.43,22.76,22.76,0,0,0,7-1,15.7,15.7,0,0,0,1.89-.71,17.29,17.29,0,0,0,6.68-5.09h.34l1,5.6h15.24a31.61,31.61,0,0,1-.44-3.71C106.26,79.54,106.18,78,106.11,76.32Zm-16.55-12a15.29,15.29,0,0,1-.06,1.53,12.85,12.85,0,0,1-.27,1.45,8.79,8.79,0,0,1-1.84,3.23,9.9,9.9,0,0,1-3,2.29,9.16,9.16,0,0,1-2.72.77,7.73,7.73,0,0,1-1.21.09A7.85,7.85,0,0,1,77,73a5.48,5.48,0,0,1-2.35-2.2,7.48,7.48,0,0,1-.91-3.69,7.31,7.31,0,0,1,2.11-5.31A12.17,12.17,0,0,1,81.53,59l.12,0a33.39,33.39,0,0,1,7.91-.69Z"/><rect class="cls-2" x="116.71" y="3.52" width="16.87" height="81.17"/><path class="cls-2" d="M195.91,66.75V28.86h-17V62.08c0,.68,0,1.37-.08,2a6.74,6.74,0,0,1-.46,1.73,10.32,10.32,0,0,1-1.66,2.79A8.75,8.75,0,0,1,173.87,71a8.56,8.56,0,0,1-4,.94A7.6,7.6,0,0,1,165,70.33a9.18,9.18,0,0,1-2.71-4.46,23.11,23.11,0,0,1-.91-7v-30h-17V61.62a38.47,38.47,0,0,0,1.47,11.08,20.4,20.4,0,0,0,4,7.55,15.89,15.89,0,0,0,6.07,4.31,20.65,20.65,0,0,0,7.65,1.38A21.4,21.4,0,0,0,170,85a17.85,17.85,0,0,0,4.9-2.35,18.67,18.67,0,0,0,3.48-3,17.75,17.75,0,0,0,2.16-2.87h.35l.76,7.88h14.71c-.12-2.34-.26-5-.32-8S195.91,70.42,195.91,66.75Z"/><path class="cls-2" d="M43,44.78a43.47,43.47,0,0,0-11-5.76,83.37,83.37,0,0,1-7.9-3.41,14.55,14.55,0,0,1-4.57-3.28,6.6,6.6,0,0,1-.25-7.87A8.46,8.46,0,0,1,23,21.78a16.38,16.38,0,0,1,6.08-1,37.13,37.13,0,0,1,6.66.61A35.91,35.91,0,0,1,41,22.79c1.48.57,2.75,1.1,3.77,1.61l3.78-13.93a37.9,37.9,0,0,0-8.08-2.81A50.47,50.47,0,0,0,29.37,6.48,37.82,37.82,0,0,0,17.5,8.26a26.53,26.53,0,0,0-8.95,4.87A21.51,21.51,0,0,0,3,20.49,22.2,22.2,0,0,0,1,29.66a18.89,18.89,0,0,0,2.6,9.89A23.93,23.93,0,0,0,10.74,47a48.31,48.31,0,0,0,10.87,5.37,47.6,47.6,0,0,1,7.24,3.2A12,12,0,0,1,32.91,59a7,7,0,0,1,1.27,4.2,7.12,7.12,0,0,1-1.38,4.4,8.57,8.57,0,0,1-4,2.88,18,18,0,0,1-6.58,1,36.74,36.74,0,0,1-7.06-.7,40.07,40.07,0,0,1-6.44-1.8,39.53,39.53,0,0,1-5.3-2.3L0,81.15a30.11,30.11,0,0,0,5.51,2.3,51.8,51.8,0,0,0,15.76,2.49A42.06,42.06,0,0,0,34.65,84a25.84,25.84,0,0,0,9.46-5.22,21.37,21.37,0,0,0,5.59-7.63A23.4,23.4,0,0,0,51.52,62,20.37,20.37,0,0,0,43,44.78Z"/><path class="cls-3" d="M364.51,3.7a11.06,11.06,0,0,1-1,15.3,10.37,10.37,0,0,1-14.92-1,11,11,0,0,1,1-15.29A10.39,10.39,0,0,1,364.51,3.7Z"/><path class="cls-2" d="M14.84,116.38c0,.08,0,.16,0,.23a2.39,2.39,0,0,1,.54,1.14c0,.45-.34.82-1.06,1.11-.33,0-.87,0-1.58,0a45,45,0,0,1-4.71-.24c-4.65-.53-7.29-1.6-7.8-3.25a123,123,0,0,1,.68-14,51.14,51.14,0,0,1,1-6.3l1.91-.49A21.78,21.78,0,0,1,4,97a40.71,40.71,0,0,1-.28,4.12l-.56,4.54a42.51,42.51,0,0,0-.28,4.42,21.46,21.46,0,0,0,.41,4.34,13.45,13.45,0,0,0,4.55,1.4,43.17,43.17,0,0,0,4.77.49C13.26,116.36,14,116.38,14.84,116.38Z"/><path class="cls-2" d="M21.34,118.9h-.58a3.1,3.1,0,0,1-3-2,12,12,0,0,1-.7-2.63,4.53,4.53,0,0,1-.05-.53c0-1.21,1-2.58,3-4.13a5.83,5.83,0,0,1,3.71-1.16c.52,0,1.2.06,2.1.15a18.69,18.69,0,0,0,2.06.18,3.92,3.92,0,0,0-2.06-3.68,2.45,2.45,0,0,0-1.18-.29,4,4,0,0,0-2.12.76l-2.23,1.46a1,1,0,0,1-.79-.51,1.6,1.6,0,0,1-.33-.92,1.08,1.08,0,0,1,.18-.6c2.09-1.79,3.94-2.68,5.57-2.68a4.45,4.45,0,0,1,4.39,2.86,19.67,19.67,0,0,1,1.05,4.94,32,32,0,0,0,.92,5.12C29.17,117,25.86,118.23,21.34,118.9Zm5.84-7.75a9.35,9.35,0,0,0-2.75-.49,5.31,5.31,0,0,0-4.5,2.39,2.61,2.61,0,0,0-.53,1.55,1.56,1.56,0,0,0,1.2,1.65,3.44,3.44,0,0,0,1.17.14,44.19,44.19,0,0,0,4.63-.73,4.23,4.23,0,0,0,1.82-1l-.17-1.89A2.43,2.43,0,0,0,27.18,111.15Z"/><path class="cls-2" d="M58.82,115.88c-.75,1.56-2.43,2.48-5,2.79a27.63,27.63,0,0,1-3.17.16H46.5a2.63,2.63,0,0,1-1.11-2.13,3.77,3.77,0,0,1,.07-.47.32.32,0,0,1,.25-.09l1,.22c.15,0,1,.09,2.54.18.85,0,1.46,0,1.82,0,3.19,0,4.88-.76,5.07-2.32.06-.67-1.66-1.66-5.16-2.91L47.25,110a2.78,2.78,0,0,1-1.71-2.36,2.35,2.35,0,0,1,.09-.56c.45-1.31,2.54-2.56,6.25-3.74a21.48,21.48,0,0,1,4-.94l.21,1.68a6.56,6.56,0,0,1-2.34,1,15.52,15.52,0,0,0-2.83,1,2.05,2.05,0,0,0-1.39,1.81c0,.55,1,1.06,3.08,1.5a24.32,24.32,0,0,1,2.58.68,6.11,6.11,0,0,1,2.52,1.66,4.22,4.22,0,0,1,1.36,2.88A2.65,2.65,0,0,1,58.82,115.88Z"/><path class="cls-2" d="M65.13,118.9h-.6a3.11,3.11,0,0,1-3.05-2,13.4,13.4,0,0,1-.69-2.63,2.32,2.32,0,0,1,0-.53c0-1.21,1-2.58,3-4.13a5.8,5.8,0,0,1,3.72-1.16c.49,0,1.18.06,2.08.15a19.15,19.15,0,0,0,2.08.18,3.92,3.92,0,0,0-2.08-3.68,2.41,2.41,0,0,0-1.19-.29,4,4,0,0,0-2.11.76L64,107.08a1,1,0,0,1-.78-.51,1.53,1.53,0,0,1-.33-.92,1,1,0,0,1,.19-.6q3.12-2.68,5.55-2.68A4.43,4.43,0,0,1,73,105.23a19,19,0,0,1,1.08,4.94,26.32,26.32,0,0,0,.92,5.12C72.93,117,69.63,118.23,65.13,118.9Zm5.81-7.75a9.29,9.29,0,0,0-2.73-.49,5.34,5.34,0,0,0-4.51,2.39,2.66,2.66,0,0,0-.56,1.55,1.58,1.58,0,0,0,1.24,1.65,3.3,3.3,0,0,0,1.15.14,42.29,42.29,0,0,0,4.64-.73,4.33,4.33,0,0,0,1.83-1l-.18-1.89A2.4,2.4,0,0,0,70.94,111.15Z"/><path class="cls-2" d="M80.27,103.25l-.33,5.52c-.09,1.84-.16,3.4-.16,4.63a36.58,36.58,0,0,0,.33,5.24l-1.16.43a3.27,3.27,0,0,0-1,.71,37.41,37.41,0,0,1-.49-6.78q0-5.19.9-15.32a3.71,3.71,0,0,1,.48,0,2.56,2.56,0,0,1,1.59.78C80.43,100,80.37,101.56,80.27,103.25Z"/><path class="cls-2" d="M97.72,118.5c-.5-.54-.89-1-1.17-1.31a8,8,0,0,1-1.12-2.07c-.32.18-1.07.65-2.22,1.44a13.84,13.84,0,0,1-2.38,1.32,7,7,0,0,1-2.82.62h-.48l-.27,0c-2.65,0-4-4-4-11.86v-1.42c0-1,.75-1.47,2.28-1.5a14.1,14.1,0,0,1,.5,4c.08,2.37.14,3.79.23,4.32a5.51,5.51,0,0,0,1.57,3.5,1.19,1.19,0,0,0,.72.2q2.09,0,4.72-2.61c1.44-1.43,2.17-3.53,2.17-6.31,0-.9,0-1.48,0-1.72s-.1-.65-.12-1.13c0-.23.16-.45.52-.64a1.64,1.64,0,0,1,.87-.27,1.72,1.72,0,0,1,.73.16c.44.28.65,1.1.65,2.44a23,23,0,0,1-.18,2.53c-.26,2.29-.39,3.56-.39,3.77v.33a7.17,7.17,0,0,0,.41,2.42A4.09,4.09,0,0,0,99,116a18.79,18.79,0,0,1,1.4,1.53A3.23,3.23,0,0,1,97.72,118.5Z"/><path class="cls-2" d="M113.54,118.8a4.6,4.6,0,0,0-2.07.87v-2a10.53,10.53,0,0,1-2.53.68c-2,.29-3.17.42-3.31.42a4.22,4.22,0,0,1-3.8-2.19,8.29,8.29,0,0,1-1.18-4.48c0-3,1.08-5.25,3.35-6.69a12,12,0,0,1,6.46-1.72,40.36,40.36,0,0,1-.52-6.23.88.88,0,0,1,.76-.29,1.85,1.85,0,0,1,1.57.76q.06.27.86,8.65a83.5,83.5,0,0,1,.54,8.67C113.67,116.44,113.6,117.63,113.54,118.8Zm-2.43-9.62a7,7,0,0,0-.47-2.35,9.65,9.65,0,0,0-1.56-.13,8.79,8.79,0,0,0-4.67,1.49,3.1,3.1,0,0,0-1.19,1.9,9,9,0,0,0-.35,2.41,3.31,3.31,0,0,0,1.43,2.85A2.85,2.85,0,0,0,106,116a7.07,7.07,0,0,0,5.25-2C111.2,112.47,111.17,110.87,111.11,109.18Z"/><path class="cls-2" d="M145.6,117c0,.14-.73.4-2.22.79a32.6,32.6,0,0,1-7.9.82h-1.54a7,7,0,0,1-5.23-2.73,6.34,6.34,0,0,1-1.06-3.72,8.35,8.35,0,0,1,5.14-8.2,13,13,0,0,1,5.4-1.21,4.57,4.57,0,0,1,3.32,1.56,7.75,7.75,0,0,1,1.65,2.61,1.59,1.59,0,0,0,.08.34,1.37,1.37,0,0,0,0,.35l-.23.19a42.83,42.83,0,0,1-12.91,4.82.2.2,0,0,0-.08.19,3.31,3.31,0,0,0,.49,1.47,2.27,2.27,0,0,0,1,1.1,10.62,10.62,0,0,0,4.19.82,16.31,16.31,0,0,0,3.05-.32l3.41-.65a19,19,0,0,1,2.9-.39.34.34,0,0,1,.35.19s0,.15,0,.44Zm-6.15-10.2c-.21-1.18-1-1.75-2.38-1.75a5.87,5.87,0,0,0-1.42.22,8.47,8.47,0,0,0-4.55,2.83,2.66,2.66,0,0,0-.76,1.63.74.74,0,0,0,.3.63,14.77,14.77,0,0,0,3-1c.51-.24,1.6-.73,3.2-1.44.29-.14,1-.42,1.88-.84A6,6,0,0,1,139.45,106.76Z"/><path class="cls-2" d="M160,115.88c-.74,1.56-2.39,2.48-5,2.79a27.25,27.25,0,0,1-3.15.16h-4.17a2.63,2.63,0,0,1-1.08-2.13,4.71,4.71,0,0,1,0-.47.25.25,0,0,1,.23-.09l1.05.22c.15,0,1,.09,2.52.18.88,0,1.47,0,1.83,0,3.2,0,4.88-.76,5.09-2.32.06-.67-1.64-1.66-5.17-2.91l-3.77-1.3a2.49,2.49,0,0,1-1-.75,2.34,2.34,0,0,1-.65-1.61,2.26,2.26,0,0,1,.08-.56c.44-1.31,2.54-2.56,6.26-3.74a21.31,21.31,0,0,1,4-.94l.23,1.68a6.59,6.59,0,0,1-2.38,1,16.06,16.06,0,0,0-2.81,1,2,2,0,0,0-1.36,1.81c0,.55,1,1.06,3.07,1.5a21.61,21.61,0,0,1,2.56.68,6.08,6.08,0,0,1,2.53,1.66,4.11,4.11,0,0,1,1.34,2.88A2.54,2.54,0,0,1,160,115.88Z"/><path class="cls-2" d="M185.89,110.4a3.51,3.51,0,0,1-.58,1.64,8.1,8.1,0,0,1-5.71,2.57,10.16,10.16,0,0,1-2.24-.08c0,.44.29,2.86.8,7.28a1.83,1.83,0,0,1-1.24.54l-1.17.05a87.43,87.43,0,0,1-1.46-11.77,57.22,57.22,0,0,1-.09-7.53,18.78,18.78,0,0,1,4.85-.74c2.72,0,4.77.8,6.13,2.39a5,5,0,0,1,.85,2.83A11.81,11.81,0,0,1,185.89,110.4Zm-3.2-4.46a7.83,7.83,0,0,0-4.2-1.19,9.8,9.8,0,0,0-1.81.35c0,.67,0,1.39.06,2.16s.18,2.21.41,4.58a23,23,0,0,0,2.57.12,5,5,0,0,0,3.2-1.5c.33-.33.46-1.19.35-2.59C183.22,106.76,183,106.12,182.69,105.94Z"/><path class="cls-2" d="M192.65,118.9h-.58a3.08,3.08,0,0,1-3-2,11,11,0,0,1-.7-2.63,1.88,1.88,0,0,1-.06-.53c0-1.21,1-2.58,3-4.13A5.79,5.79,0,0,1,195,108.5c.51,0,1.2.06,2.09.15a18.63,18.63,0,0,0,2.07.18,3.93,3.93,0,0,0-2.07-3.68,2.41,2.41,0,0,0-1.19-.29,4,4,0,0,0-2.1.76l-2.23,1.46a1,1,0,0,1-.81-.51,1.72,1.72,0,0,1-.31-.92,1,1,0,0,1,.19-.6q3.14-2.68,5.56-2.68a4.45,4.45,0,0,1,4.38,2.86,18.4,18.4,0,0,1,1.05,4.94,28.24,28.24,0,0,0,.95,5.12C200.45,117,197.2,118.23,192.65,118.9Zm5.83-7.75a9.25,9.25,0,0,0-2.75-.49,5.33,5.33,0,0,0-4.49,2.39,2.77,2.77,0,0,0-.54,1.55,1.56,1.56,0,0,0,1.19,1.65,3.59,3.59,0,0,0,1.17.14,42.71,42.71,0,0,0,4.65-.73,4.29,4.29,0,0,0,1.82-1l-.18-1.89A2.39,2.39,0,0,0,198.48,111.15Z"/><path class="cls-2" d="M220.13,105.75a4.34,4.34,0,0,0-2.44-1.1,7,7,0,0,0-3.55.31,10.56,10.56,0,0,0-3,2,13.47,13.47,0,0,0-3.29,4.08,16,16,0,0,0-.05,3.06c.05.59.18,1.84.41,3.71.14,1,.2,1.72.26,2.22l-2,.13c-.1-1.12-.24-2.43-.46-3.93l-.65-4.84a52.63,52.63,0,0,1-.58-6.87l.37,0,.25,0a2.35,2.35,0,0,1,.89-.4.6.6,0,0,1,.52.18l.24,3.17q3.39-5.22,8.58-5.61a17.69,17.69,0,0,1,2.62.11,5.2,5.2,0,0,1,2.39.6,7.7,7.7,0,0,1,.18,1.56C220.81,105.15,220.57,105.7,220.13,105.75Z"/><path class="cls-2" d="M225.48,118.9h-.59a3.11,3.11,0,0,1-3-2,12.61,12.61,0,0,1-.7-2.63,2.32,2.32,0,0,1,0-.53c0-1.21,1-2.58,3-4.13a5.79,5.79,0,0,1,3.71-1.16c.5,0,1.17.06,2.09.15a18.89,18.89,0,0,0,2.09.18,4,4,0,0,0-2.09-3.68,2.45,2.45,0,0,0-1.2-.29,4,4,0,0,0-2.1.76l-2.23,1.46a1,1,0,0,1-.79-.51,1.61,1.61,0,0,1-.34-.92,1,1,0,0,1,.22-.6q3.12-2.68,5.55-2.68a4.43,4.43,0,0,1,4.38,2.86,17.72,17.72,0,0,1,1,4.94,31.2,31.2,0,0,0,1,5.12Q232.25,117.89,225.48,118.9Zm5.81-7.75a9.12,9.12,0,0,0-2.72-.49,5.31,5.31,0,0,0-4.51,2.39,2.55,2.55,0,0,0-.53,1.55,1.56,1.56,0,0,0,1.19,1.65,3.41,3.41,0,0,0,1.15.14,42.39,42.39,0,0,0,4.66-.73,4.17,4.17,0,0,0,1.82-1l-.17-1.89A2.45,2.45,0,0,0,231.29,111.15Z"/><path class="cls-2" d="M264.71,103.14c.22.07.32.37.32.88,0,1-.32,1.51-.93,1.51l-6.23,1.12c0,.4,0,.92-.07,1.57-.06,1.45-.1,2.37-.1,2.78a7.26,7.26,0,0,0,1.94,5.52,1.19,1.19,0,0,0,.87.35,10,10,0,0,0,1.94-.54,3.9,3.9,0,0,1,1.3-.27,2.08,2.08,0,0,1,.41,0,5,5,0,0,1,.41,1.55c-.86,1.09-2.5,1.62-4.82,1.62a3,3,0,0,1-1.88-.81c-1.38-1.17-2.2-3.65-2.5-7.44-.1-1.11-.14-2.48-.14-4a26.83,26.83,0,0,0-3.67.6,15.67,15.67,0,0,0-3.47,1.31,4.78,4.78,0,0,1-.51-1.2l-.41-1.19a5.2,5.2,0,0,1,2.37-1.14c.56-.13,1.56-.3,3-.48a18,18,0,0,0,3-.6c.29-1,.5-1.94.66-2.71a25.55,25.55,0,0,0,.55-3c.19-.36.6-.52,1.23-.52a2.32,2.32,0,0,1,1,.19,18.36,18.36,0,0,1-.67,3,7.89,7.89,0,0,0-.31,2,2.74,2.74,0,0,0,.07.69,38,38,0,0,0,4.73-.61A14.72,14.72,0,0,1,264.71,103.14Z"/><path class="cls-2" d="M286.18,114c-.74,3.26-3.08,4.89-7.07,4.89a21.46,21.46,0,0,1-6.1-.68,7.46,7.46,0,0,1-4.32-3.19,9.6,9.6,0,0,1-1.46-5.31,6.72,6.72,0,0,1,1.18-3.89c1.9-2.73,4.28-4.11,7.13-4.11a15.46,15.46,0,0,1,6,1.51,7.62,7.62,0,0,1,3.68,3.37,9.68,9.68,0,0,1,1.26,5A11.87,11.87,0,0,1,286.18,114Zm-2.24-.73a3.66,3.66,0,0,0,.36-1.63,6.06,6.06,0,0,0-1.2-3.46,8.15,8.15,0,0,0-2.4-2.36,10.15,10.15,0,0,0-5.33-1.68c-2.36,0-3.89,1-4.58,3a12.3,12.3,0,0,0-.88,3.71,5.25,5.25,0,0,0,.35,1.91c.47,1.4,1.66,2.29,3.53,2.68.14,0,.57.09,1.33.17l.49.07c2,.26,3.17.38,3.5.38A5.1,5.1,0,0,0,283.94,113.31Z"/><path class="cls-2" d="M301.29,118.8a4.7,4.7,0,0,0-2.07.87v-2a10.91,10.91,0,0,1-2.53.68c-2.05.29-3.16.42-3.34.42a4.19,4.19,0,0,1-3.76-2.19,8.29,8.29,0,0,1-1.19-4.48,7.39,7.39,0,0,1,3.33-6.69,12.06,12.06,0,0,1,6.45-1.72,44.22,44.22,0,0,1-.48-6.23.89.89,0,0,1,.77-.29,1.91,1.91,0,0,1,1.58.76c0,.18.3,3.06.85,8.65q.51,5.19.51,8.67C301.41,116.44,301.35,117.63,301.29,118.8Zm-2.44-9.62a7.6,7.6,0,0,0-.45-2.35,9.77,9.77,0,0,0-1.57-.13,8.9,8.9,0,0,0-4.68,1.49,3.28,3.28,0,0,0-1.18,1.9,9.41,9.41,0,0,0-.34,2.41,3.28,3.28,0,0,0,1.42,2.85,2.88,2.88,0,0,0,1.65.67,7.1,7.1,0,0,0,5.25-2C299,112.47,298.91,110.87,298.85,109.18Z"/><path class="cls-2" d="M323.25,114c-.75,3.26-3.13,4.89-7.06,4.89a21.44,21.44,0,0,1-6.11-.68,7.42,7.42,0,0,1-4.33-3.19,9.68,9.68,0,0,1-1.46-5.31,6.65,6.65,0,0,1,1.18-3.89c1.91-2.73,4.27-4.11,7.15-4.11a15.54,15.54,0,0,1,6,1.51,7.79,7.79,0,0,1,3.68,3.37,10,10,0,0,1,1.21,5A12.56,12.56,0,0,1,323.25,114Zm-2.27-.73a3.41,3.41,0,0,0,.38-1.63,6.06,6.06,0,0,0-1.2-3.46,8.12,8.12,0,0,0-2.39-2.36,10.17,10.17,0,0,0-5.37-1.68c-2.34,0-3.87,1-4.57,3a12.44,12.44,0,0,0-.86,3.71,6,6,0,0,0,.33,1.91,4.33,4.33,0,0,0,3.57,2.68c.12,0,.55.09,1.31.17l.49.07c2,.26,3.19.38,3.52.38A5,5,0,0,0,321,113.31Z"/><path class="cls-2" d="M339.09,115.88c-.76,1.56-2.41,2.48-5,2.79a27.82,27.82,0,0,1-3.18.16h-4.16a2.67,2.67,0,0,1-1.09-2.13,4.71,4.71,0,0,1,.05-.47.3.3,0,0,1,.25-.09l1,.22c.14,0,1,.09,2.53.18.84,0,1.48,0,1.81,0,3.19,0,4.9-.76,5.08-2.32.08-.67-1.66-1.66-5.14-2.91l-3.79-1.3a2.51,2.51,0,0,1-1-.75,2.48,2.48,0,0,1-.65-1.61,3,3,0,0,1,.09-.56c.45-1.31,2.53-2.56,6.26-3.74a20.87,20.87,0,0,1,4-.94l.22,1.68a6.71,6.71,0,0,1-2.36,1,15.52,15.52,0,0,0-2.83,1,2.06,2.06,0,0,0-1.36,1.81c0,.55,1,1.06,3.05,1.5a24.44,24.44,0,0,1,2.6.68,5.87,5.87,0,0,1,2.5,1.66,4.18,4.18,0,0,1,1.36,2.88A2.53,2.53,0,0,1,339.09,115.88Z"/><path class="cls-1" d="M567.88,64.28a10.21,10.21,0,1,0,9.93,10.2A10.09,10.09,0,0,0,567.88,64.28Zm0,19.1a8.89,8.89,0,1,1,8.66-8.9A8.8,8.8,0,0,1,567.88,83.38Z"/><path class="cls-1" d="M563.39,80.43V68.55h5.12a6.77,6.77,0,0,1,2.36.32A2.63,2.63,0,0,1,572.15,70a3.43,3.43,0,0,1,.48,1.79,3,3,0,0,1-.79,2.12A4,4,0,0,1,569.37,75a4.06,4.06,0,0,1,.93.59,8.76,8.76,0,0,1,1.27,1.58l2,3.24h-1.93L570.13,78c-.45-.71-.82-1.25-1.1-1.63a3.71,3.71,0,0,0-.79-.8,2.42,2.42,0,0,0-.7-.31,4.09,4.09,0,0,0-.85-.06h-1.77v5.28Zm1.53-6.64h3.29a5.11,5.11,0,0,0,1.64-.22,1.68,1.68,0,0,0,.89-.71,1.89,1.89,0,0,0,.32-1.07,1.74,1.74,0,0,0-.61-1.38,2.71,2.71,0,0,0-1.87-.55h-3.66Z"/></g></g></svg>