<svg xmlns="http://www.w3.org/2000/svg" width="105.108" height="42.048" viewBox="0 0 105.108 42.048">
  <g id="Grupo_6566" data-name="Grupo 6566" transform="translate(-290.989 -211.873)">
    <g id="Grupo_6564" data-name="Grupo 6564" transform="translate(290.989 211.873)">
      <path id="Trazado_1" data-name="Trazado 1" d="M612.461,214.07h4.59c2.708,0,4.452,1.392,4.452,3.764v.031c0,2.525-1.943,3.856-4.605,3.856h-1.469v3.06h-2.968Zm4.375,5.324c1.056,0,1.7-.551,1.7-1.392v-.031c0-.918-.643-1.408-1.714-1.408h-1.392v2.83Z" transform="translate(-581.126 -213.856)" fill="#35741c"/>
      <path id="Trazado_2" data-name="Trazado 2" d="M721.543,217.473v-.031a5.772,5.772,0,0,1,11.536-.031v.031a5.772,5.772,0,0,1-11.536.031Zm8.507,0v-.031a2.783,2.783,0,0,0-2.754-2.891,2.729,2.729,0,0,0-2.708,2.861v.031a2.78,2.78,0,0,0,2.739,2.892A2.732,2.732,0,0,0,730.05,217.473Z" transform="translate(-679.575 -211.873)" fill="#35741c"/>
      <path id="Trazado_3" data-name="Trazado 3" d="M856.208,214.07h5.064a4.68,4.68,0,0,1,3.488,1.163,3.32,3.32,0,0,1,.949,2.494v.031a3.387,3.387,0,0,1-2.2,3.289l2.555,3.733h-3.427l-2.157-3.244h-1.3v3.244h-2.968Zm4.927,5.141c1.01,0,1.591-.49,1.591-1.27v-.031c0-.842-.612-1.27-1.607-1.27h-1.943v2.57Z" transform="translate(-801.114 -213.856)" fill="#35741c"/>
      <path id="Trazado_4" data-name="Trazado 4" d="M1038.759,214.384h2.968v8.109h5.186v2.6h-8.155Z" transform="translate(-965.87 -214.139)" fill="#35741c"/>
      <path id="Trazado_5" data-name="Trazado 5" d="M1138.737,217.787v-.031a5.772,5.772,0,0,1,11.536-.031v.031a5.772,5.772,0,0,1-11.536.031Zm8.507,0v-.031a2.783,2.783,0,0,0-2.754-2.892,2.729,2.729,0,0,0-2.708,2.861v.031a2.78,2.78,0,0,0,2.739,2.892A2.732,2.732,0,0,0,1147.244,217.787Z" transform="translate(-1056.103 -212.156)" fill="#35741c"/>
      <path id="Trazado_6" data-name="Trazado 6" d="M1273.4,221.8l1.652-1.974a5.515,5.515,0,0,0,3.473,1.285c.8,0,1.224-.275,1.224-.734v-.031c0-.444-.352-.689-1.805-1.025-2.279-.52-4.039-1.163-4.039-3.366v-.031c0-1.989,1.576-3.427,4.146-3.427a6.741,6.741,0,0,1,4.406,1.423l-1.484,2.1a5.373,5.373,0,0,0-3-1.056c-.719,0-1.071.306-1.071.689v.031c0,.49.367.7,1.852,1.04,2.463.536,3.993,1.331,3.993,3.335v.031c0,2.188-1.729,3.488-4.33,3.488A7.48,7.48,0,0,1,1273.4,221.8Z" transform="translate(-1177.642 -212.439)" fill="#35741c"/>
      <g id="Grupo_6562" data-name="Grupo 6562" transform="translate(31.335 11.169)">
        <path id="Trazado_7" data-name="Trazado 7" d="M612.461,374.171h5.413c5.012,0,7.919,2.887,7.919,6.937v.04c0,4.05-2.948,7.057-8,7.057h-5.333Zm5.473,10.586c2.326,0,3.869-1.283,3.869-3.549v-.04c0-2.245-1.544-3.549-3.869-3.549h-1.584v7.137Z" transform="translate(-612.461 -369.52)" fill="#35741c"/>
        <path id="Trazado_8" data-name="Trazado 8" d="M769.8,374.171h11.288v3.308h-7.438V379.6h6.736v3.067h-6.736V384.9h7.539v3.308H769.8Z" transform="translate(-754.467 -369.52)" fill="#35741c"/>
        <path id="Trazado_9" data-name="Trazado 9" d="M906.989,374.171h4.11l3.348,5.433,3.348-5.433h4.11v14.034h-3.87v-8.06l-3.589,5.493h-.08l-3.569-5.453v8.02h-3.809Z" transform="translate(-878.28 -369.52)" fill="#fbab1f"/>
        <path id="Trazado_10" data-name="Trazado 10" d="M1079.977,331h3.749l5.975,14.135h-4.17l-1.022-2.506h-5.413l-1,2.506H1074Zm3.408,8.6-1.564-3.99-1.584,3.99Zm-1.023-13.152,3.549,1.143-2.947,2.566h-2.687Z" transform="translate(-1029.013 -326.452)" fill="#fbab1f"/>
        <path id="Trazado_11" data-name="Trazado 11" d="M1238.129,383.893l2.165-2.586a7.229,7.229,0,0,0,4.551,1.684c1.042,0,1.6-.361,1.6-.962v-.04c0-.582-.461-.9-2.366-1.343-2.987-.682-5.293-1.524-5.293-4.411v-.04c0-2.606,2.065-4.491,5.433-4.491a8.833,8.833,0,0,1,5.774,1.865l-1.945,2.747a7.039,7.039,0,0,0-3.93-1.383c-.942,0-1.4.4-1.4.9v.04c0,.642.481.922,2.426,1.363,3.228.7,5.233,1.744,5.233,4.371v.04c0,2.867-2.266,4.571-5.674,4.571A9.8,9.8,0,0,1,1238.129,383.893Z" transform="translate(-1177.142 -367.292)" fill="#fbab1f"/>
      </g>
      <g id="Grupo_6563" data-name="Grupo 6563" transform="translate(0 0.106)">
        <path id="Trazado_12" data-name="Trazado 12" d="M300.808,232.715h-9.819v-9.762h9.819V212.96h10.11v9.994h9.82v9.762h-9.82v9.993h-10.11Z" transform="translate(-290.989 -212.96)" fill="#fbab1f"/>
      </g>
    </g>
    <rect id="Rectángulo_3773" data-name="Rectángulo 3773" width="104.572" height="9.867" transform="translate(290.989 244.054)" fill="#35741c"/>
    <g id="Grupo_6565" data-name="Grupo 6565" transform="translate(295.278 245.645)">
      <path id="Trazado_13" data-name="Trazado 13" d="M334.987,564.116l.992-1.185a3.311,3.311,0,0,0,2.085.771c.478,0,.735-.165.735-.441v-.018c0-.266-.211-.413-1.084-.615-1.368-.312-2.424-.7-2.424-2.02v-.018c0-1.194.946-2.057,2.489-2.057a4.046,4.046,0,0,1,2.645.854l-.891,1.258a3.223,3.223,0,0,0-1.8-.634c-.432,0-.643.184-.643.413v.018c0,.294.22.422,1.111.625,1.478.321,2.4.8,2.4,2v.018c0,1.313-1.038,2.094-2.6,2.094A4.49,4.49,0,0,1,334.987,564.116Z" transform="translate(-334.987 -558.515)" fill="#fff"/>
      <path id="Trazado_14" data-name="Trazado 14" d="M427.595,559.193h1.717l2.737,6.474h-1.91l-.468-1.148h-2.479l-.459,1.148h-1.873Zm1.561,3.94-.716-1.827-.726,1.827Z" transform="translate(-416.098 -559.11)" fill="#fff"/>
      <path id="Trazado_15" data-name="Trazado 15" d="M535.172,559.663h1.781v4.867h3.113v1.561h-4.895Z" transform="translate(-515.659 -559.535)" fill="#fff"/>
      <path id="Trazado_16" data-name="Trazado 16" d="M620.616,563.272v-3.609h1.809v3.572c0,.927.468,1.368,1.185,1.368s1.185-.422,1.185-1.322v-3.618H626.6v3.563a2.688,2.688,0,0,1-3.012,2.985A2.656,2.656,0,0,1,620.616,563.272Z" transform="translate(-592.774 -559.535)" fill="#fff"/>
      <path id="Trazado_17" data-name="Trazado 17" d="M723.017,559.663H725.5c2.3,0,3.627,1.322,3.627,3.177v.018c0,1.855-1.35,3.232-3.664,3.232h-2.443Zm2.507,4.849a1.576,1.576,0,0,0,1.772-1.625v-.018a1.581,1.581,0,0,0-1.772-1.625H724.8v3.269Z" transform="translate(-685.194 -559.535)" fill="#fff"/>
      <path id="Trazado_18" data-name="Trazado 18" d="M881.468,559.663h2.48c2.3,0,3.627,1.322,3.627,3.177v.018c0,1.855-1.35,3.232-3.664,3.232h-2.443Zm2.507,4.849a1.576,1.576,0,0,0,1.772-1.625v-.018a1.581,1.581,0,0,0-1.772-1.625h-.725v3.269Z" transform="translate(-828.2 -559.535)" fill="#fff"/>
      <path id="Trazado_19" data-name="Trazado 19" d="M984.057,559.663h1.791v6.428h-1.791Z" transform="translate(-920.789 -559.535)" fill="#fff"/>
      <path id="Trazado_20" data-name="Trazado 20" d="M1042.369,561.706v-.018a3.337,3.337,0,0,1,3.462-3.343,3.75,3.75,0,0,1,2.608.937l-1.047,1.258a2.266,2.266,0,0,0-1.552-.606,1.688,1.688,0,0,0-1.644,1.763v.018a1.7,1.7,0,0,0,1.745,1.781,1.815,1.815,0,0,0,1.028-.266v-.78H1045.7v-1.3h2.957v2.893a4.345,4.345,0,0,1-2.792.992A3.305,3.305,0,0,1,1042.369,561.706Z" transform="translate(-973.417 -558.345)" fill="#fff"/>
      <path id="Trazado_21" data-name="Trazado 21" d="M1147.219,559.663h1.662l2.645,3.4v-3.4h1.763v6.428h-1.561l-2.746-3.526v3.526h-1.763Z" transform="translate(-1068.047 -559.535)" fill="#fff"/>
      <path id="Trazado_22" data-name="Trazado 22" d="M1248.775,559.193h1.717l2.737,6.474h-1.91l-.469-1.148h-2.479l-.459,1.148h-1.873Zm1.561,3.94-.716-1.827-.725,1.827Z" transform="translate(-1157.234 -559.11)" fill="#fff"/>
    </g>
  </g>
</svg>
