<svg id="Capa_1" data-name="Capa 1" xmlns="http://www.w3.org/2000/svg" viewBox="0 0 367.13 360.47"><defs><style>.cls-1{fill:#219f67;}</style></defs><path class="cls-1" d="M340.59,282v10.7c0,19.54-10.67,41.76-40.62,45.48a8.89,8.89,0,0,1-1.15.08H64.19C34.79,337,21.8,314.48,21.8,292.65V288.2a9.38,9.38,0,1,1,18.75,0v4.45c0,7.77,2.34,25.93,24,26.81H298.2c20.55-2.81,23.63-18,23.63-26.8V282a9.38,9.38,0,0,1,18.76,0Zm-41.77-250H64.19c-31.28,0-42.39,22.86-42.39,42.43V88.18a9.38,9.38,0,1,0,18.75,0V74.35c0-10.8,4.11-23.67,23.64-23.67H298.82c20,0,23,14.83,23,23.67V88.18a9.38,9.38,0,0,0,18.76,0V74.35C340.59,54.78,329.65,31.92,298.82,31.92ZM104.18,127.53a8.59,8.59,0,0,1-.14-2.62,33,33,0,0,1-2.22-6.51,31,31,0,0,1,9.92-30.73c14.17-12.21,30.43-9.34,42.29-7.25,3,.52,5.76,1,8.05,1.18,14.8,1.1,18.78-3.61,23.79-9.59a57.1,57.1,0,0,1,5.3-5.73,8.44,8.44,0,1,1,11.3,12.54,41.9,41.9,0,0,0-3.67,4c-5.79,6.89-14.58,17.31-38,15.57A96.73,96.73,0,0,1,151.11,97c-10.42-1.83-20.26-3.56-28.35,3.42a14.35,14.35,0,0,0-4.47,14.26c1,4.56,3.69,7.54,5.81,8.13,11.31,3.14,26.49,5.47,26.64,5.49l.66.13c10.3,2.42,29.39,12.29,27.91,32.37-.3,4-.64,7.19-.92,9.83-.77,7.29-.81,8.35.72,11.69.94,2.08,5.33,5.74,11.75,7,4.32.86,10.54.81,15.84-4.16,13.66-12.87,12.19-25.55,11-35.73-.17-1.42-.32-2.75-.42-4C216.19,133,220.8,120,231.79,104.81s23.59-30.68,24.12-31.33A8.44,8.44,0,1,1,269,84.13c-.13.16-12.93,15.9-23.52,30.56C237,126.44,233.37,135.77,234.09,144c.09,1.07.23,2.24.38,3.48,1.27,10.93,3.65,31.28-16.2,50a33.54,33.54,0,0,1-16.93,8.57c-.12.08-.18.2-.31.28-5.95,3.66-9.45,7.63-10.4,11.78a12.09,12.09,0,0,0,1.41,8.56,8.43,8.43,0,0,1,1.18,5.67c.06.4.15.8.19,1.2a19,19,0,0,1-9.19,18.3c-9.11,5.68-13.27,9-15.51,14.51-2.06,5.09-1.82,20-1,28.89a8.44,8.44,0,0,1-16.8,1.56c-.4-4.27-2.16-26.09,2.13-36.75s12.27-16.31,22.22-22.53a2.2,2.2,0,0,0,1.35-2.13,6.08,6.08,0,0,0-2-4.23,32.47,32.47,0,0,0-5.42-.75c-6.28-.59-14.88-1.39-23.1-7.56C133,213,133,201.37,133,182.06c0-2.25-.52-4.84-4.4-6.94-7.79-4.24-20.81-2.59-23.91-.58-5.31,3.44-8.22,7.35-8.91,12-1,6.86,2.91,16.11,10.76,25.38,15.69,18.55,15.73,36.65,14.31,55.1-1.19,15.4-1.53,31.11-1.54,31.27-.1,4.59-3.86,8.71-8.43,8.71h-.2c-4.65,0-8.34-4.43-8.24-9.09,0-.64.37-16.09,1.59-31.95,1.25-16.45,1.25-29.28-10.37-43-7.89-9.31-16.81-23.65-14.57-38.81.85-5.72,3.73-13.64,12.26-20.64a8.48,8.48,0,0,1,1.72-2C108.85,149.28,104.37,128.41,104.18,127.53Zm17.4,12.1a52.94,52.94,0,0,1-3.66,16.06c6.58.25,13.27,1.64,18.74,4.61,8.53,4.64,13.21,12.36,13.21,21.76,0,19.42.44,22.85,6.36,27.29,4.41,3.31,9.34,3.77,14.54,4.26,1.2.11,2.37.23,3.53.38a29.6,29.6,0,0,1,5.06-10.66c-7.19-3.12-13-8.15-15.61-14-3.49-7.67-3-12.48-2.14-20.46.26-2.5.58-5.51.86-9.3.75-10.12-12.67-14.1-14.68-14.64C145.3,144.57,132.54,142.51,121.58,139.63Z"/></svg>