<svg id="Capa_1" data-name="Capa 1" xmlns="http://www.w3.org/2000/svg" viewBox="0 0 388.41 309.93"><defs><style>.cls-1{fill:#219f67;}</style></defs><path class="cls-1" d="M83.63,261.56a8,8,0,0,1-8,8.05H69.15c-18.07,0-31.27-9.95-36.21-27.31a8.17,8.17,0,0,1-.31-2.2V77.56c0-22.8,21.8-33.42,36.52-33.42h1.06a8.06,8.06,0,0,1,0,16.11H69.15c-5.23,0-20.41,4.26-20.41,17.31V238.91c3.11,9.69,10,14.6,20.41,14.6h6.43A8.05,8.05,0,0,1,83.63,261.56ZM320.69,44.14h-3.53a8.06,8.06,0,1,0,0,16.11h3.53c5.86,0,17.94,4.23,17.94,17.31V238.93c-4,12.82-11.29,14.58-17.94,14.58h-8.9a8.05,8.05,0,0,0,0,16.1h8.9c17,0,28.65-9.44,33.74-27.31a8.16,8.16,0,0,0,.3-2.2V77.56C354.73,54.51,334.83,44.14,320.69,44.14ZM72.93,146.44a7.26,7.26,0,0,0,6.86,4.91,7.06,7.06,0,0,0,2.34-.4,7.25,7.25,0,0,0,4.52-9.2A50.11,50.11,0,0,1,169.5,90.11l18,18a7.47,7.47,0,0,0,10.26,0l18-18a50.11,50.11,0,0,1,85,42.92A7.25,7.25,0,1,0,315,135.18,64.6,64.6,0,0,0,205.44,79.85L192.6,92.71,179.74,79.85A64.61,64.61,0,0,0,72.93,146.44ZM264.24,188.6,192.6,260.25l-66.2-66.2a7.25,7.25,0,0,0-10.24,10.26l71.32,71.31a7.25,7.25,0,0,0,10.25,0l76.77-76.77a7.25,7.25,0,0,0-10.26-10.25Zm44.86-29a8.05,8.05,0,0,0-8.05-8.05H226.48a8.05,8.05,0,0,0-7,4l-19.87,34.36-24.19-64.55a8.07,8.07,0,0,0-7.38-5.22,8.24,8.24,0,0,0-7.58,4.92l-15.68,37.21H86.32a8.05,8.05,0,1,0,0,16.1h63.83a8.06,8.06,0,0,0,7.42-4.92l9.9-23.49,23.07,61.55a8.06,8.06,0,0,0,6.87,5.21l.67,0a8.07,8.07,0,0,0,7-4l26.08-45.09h69.92A8,8,0,0,0,309.1,159.56Z"/></svg>