<svg id="Capa_1" data-name="Capa 1" xmlns="http://www.w3.org/2000/svg" viewBox="0 0 367.13 175.58"><defs><style>.cls-1{fill:#219f67;}</style></defs><path class="cls-1" d="M352.67,52.85H333.85a66.92,66.92,0,0,0-54.58-28.31,63.39,63.39,0,0,0-10.68.95l-159.36,0A66.12,66.12,0,0,0,43.7,52.85H24.87a8.47,8.47,0,0,0,0,16.94h10.2a66,66,0,0,0-3.66,21.62A66.87,66.87,0,1,0,164.05,79.5a31.68,31.68,0,0,1,49.44.06A66.86,66.86,0,1,0,346.14,91.41a66,66,0,0,0-3.66-21.62h10.19a8.47,8.47,0,0,0,0-16.94ZM148.21,91.41A49.94,49.94,0,1,1,98.28,41.47,50,50,0,0,1,148.21,91.41Zm85.63-49a67.72,67.72,0,0,0-14.39,19.26,48.39,48.39,0,0,0-61.34,0,68,68,0,0,0-14.4-19.28Zm95.36,49a49.94,49.94,0,1,1-49.93-49.94A50,50,0,0,1,329.2,91.41Z"/></svg>