<svg id="Capa_1" data-name="Capa 1" xmlns="http://www.w3.org/2000/svg" viewBox="0 0 317.91 379.1"><defs><style>.cls-1{fill:#219f67;stroke:#219f67;stroke-miterlimit:10;stroke-width:0.75px;}</style></defs><path class="cls-1" d="M277.54,297l-67-81.92,44.38-57.59a5.42,5.42,0,0,0,.48-.67c20.13-35-25.14-112.6-30.38-121.33a0,0,0,0,0,0,0A6.3,6.3,0,0,0,223.69,34a4,4,0,0,0-.56-.32A4.94,4.94,0,0,0,222,33l0,0h0A168.5,168.5,0,0,0,96.36,33h0s0,0-.06,0a6,6,0,0,0-.88.53c-.25.16-.54.27-.78.45a7.07,7.07,0,0,0-1.27,1.51v0C88.09,44.25,42.79,121.82,63,156.85a3.28,3.28,0,0,0,.45.67l44.41,57.59L40.78,297a28.45,28.45,0,0,0,3.11,39.38l20.49,18.17a28.55,28.55,0,0,0,19,7.22c.85,0,1.74-.05,2.63-.14a28.63,28.63,0,0,0,19.89-11l53.27-69,53.26,69a28.79,28.79,0,0,0,19.92,11c.86.06,1.75.11,2.64.11a28.76,28.76,0,0,0,19-7.19l20.47-18.2A28.49,28.49,0,0,0,277.54,297ZM128,114.24a93.55,93.55,0,0,1,62.35,0l-31.17,38.11ZM245,150.48l-42.43,55L167,161.9l33.25-40.61c.95-1.19,19.72-24.7,24.58-60.78,14.05,27.91,30.93,70.49,20.22,90ZM213.36,42.65l-2,24c-.06.24-.08.45-.14.69-.3,1.41-.63,2.81-1,4.2-.18.71-.36,1.42-.56,2.13-.3,1.21-.65,2.4-1,3.56-.27.88-.53,1.77-.83,2.63s-.6,1.83-.92,2.73c-.41,1.18-.83,2.33-1.28,3.46-.17.53-.37,1.06-.59,1.6a124.65,124.65,0,0,1-7.81,16.07,105.77,105.77,0,0,0-76.21,0,126.31,126.31,0,0,1-7.93-16.4c-.12-.32-.27-.68-.38-1-.51-1.3-1-2.66-1.49-4-.26-.71-.5-1.46-.73-2.19-.36-1-.69-2.11-1-3.2s-.59-2-.86-3c-.27-.86-.48-1.78-.68-2.69-.33-1.22-.62-2.43-.89-3.68-.06-.27-.09-.56-.15-.83l-2-24a156.6,156.6,0,0,1,108.42,0ZM96.29,343.3a16.36,16.36,0,0,1-23.86,2.22L51.94,327.35a16.38,16.38,0,0,1-1.77-22.65L115.42,225l12.64,16.37,23.45,30.41Zm170.06-16-20.46,18.2A16.39,16.39,0,0,1,222,343.3L163.94,268l-43.58-56.55-47.1-61c-10.69-19.45,6.19-62,20.25-90,4.85,36.08,23.63,59.62,24.57,60.78l36.38,44.46,43.59,53.3s0,0,0,0l70.07,85.66a16.34,16.34,0,0,1-1.8,22.59Zm0,0"/></svg>