<svg id="Capa_1" data-name="Capa 1" xmlns="http://www.w3.org/2000/svg" viewBox="0 0 246.41 285.32"><defs><style>.cls-1{fill:#219f67;}</style></defs><path class="cls-1" d="M233.77,142.81a8.38,8.38,0,0,0-1.63-4.72c-.08-.22-.3-.58-.33-.51-9.87-13-56.05-13.76-66.2-13.76-11.39,0-68.17.92-68.17,19,0,.46,0,3.23,0,4.24l6.77,97.66a24.68,24.68,0,0,0,24.66,24.66h73.46A24.57,24.57,0,0,0,227,245.09l6.8-98.42Zm-12.52,27.78c-3.11,1.46-8.66,3.1-16.49,4.49V159a85.76,85.76,0,0,0,17.61-4.58ZM108.83,154.36A73,73,0,0,0,121.24,158v16.07A56,56,0,0,1,110,170.58Zm23.26,5.41a267.84,267.84,0,0,0,27,2V178a235.11,235.11,0,0,1-27-2Zm37.84,2c5.69-.09,14.55-.42,24-1.39v16.26c-6.84.76-14.89,1.25-24,1.38Zm-4.32-27.09c31.71,0,50.93,4.88,56.27,8.13-5.34,3.26-24.56,8.15-56.27,8.15s-51-4.89-56.28-8.15C114.67,139.56,133.89,134.68,165.61,134.68Zm50.52,110a13.81,13.81,0,0,1-13.79,13.81H128.88a13.92,13.92,0,0,1-13.81-14.18l-4.29-61.74c17.87,6.07,47,6.54,54.87,6.54s36.86-.46,54.77-6.46Z"/><path class="cls-1" d="M170.3,80.4a7.34,7.34,0,0,0-.07-2.25l10.91-10.91a3.94,3.94,0,0,0,0-5.57,3.86,3.86,0,0,0-3.39-1l3-3a3.94,3.94,0,0,0,0-5.57,3.86,3.86,0,0,0-3.39-1l3.16-3.15a3.94,3.94,0,0,0,0-5.57,3.89,3.89,0,0,0-3.89-.94L179,39a3.92,3.92,0,0,0,0-5.56,3.84,3.84,0,0,0-3.4-1l2.51-2.52a3.9,3.9,0,0,0-3.89-6.5l2.65-2.64a3.94,3.94,0,1,0-5.57-5.57L169,17.47a3.83,3.83,0,0,0-1-3.38,3.94,3.94,0,0,0-5.57,0l-2.5,2.5a3.88,3.88,0,0,0-1-3.39,3.94,3.94,0,0,0-5.57,0l-2.42,2.41a3.86,3.86,0,0,0-.94-3.88,3.92,3.92,0,0,0-5.56,0l-3.17,3.16a3.84,3.84,0,0,0-1-3.4,3.94,3.94,0,0,0-5.57,0l-3,3a3.85,3.85,0,0,0-1-3.39,3.94,3.94,0,0,0-5.57,0L114.31,21.79a7.93,7.93,0,0,0-2.67-.06A15.07,15.07,0,0,0,102,29.47c-1,2.37-1.2,6,.78,8.48.22.26,1.16,1.4,2.72,3l.94,1,1.23,1.24c4.3,4.3,11.26,10.51,20.48,12.45L14.31,169.37a5.9,5.9,0,1,0,8.35,8.35L136.47,63.91c1.95,9.23,8.16,16.19,12.46,20.49l1.24,1.23,1,.94c1.57,1.56,2.71,2.5,3,2.78,2.4,1.91,6,1.72,8.4.71A15,15,0,0,0,170.3,80.4Zm-10.8,2.42c-.28.11-.75.16-.46.35-.29-.25-1.17-1-2.35-2.17l-1-1c-5.53-5.52-14.93-14.71-11.17-27.63,0-.11,0-.21,0-.32a3.43,3.43,0,0,0,.07-.78,3.38,3.38,0,0,0-.07-.78c0-.11,0-.21,0-.32a2.64,2.64,0,0,0-.2-.37,3.52,3.52,0,0,0-.84-1.27,4.1,4.1,0,0,0-.56-.47,3.38,3.38,0,0,0-.73-.38,2.47,2.47,0,0,0-.36-.19c-.1,0-.2,0-.3,0a3.64,3.64,0,0,0-.81-.06,3.84,3.84,0,0,0-.76.06c-.11,0-.21,0-.32,0-12.94,3.75-22.14-5.67-27.63-11.17l-1-1a24.46,24.46,0,0,0-1.94-2,2.1,2.1,0,0,1,.12-.85,8.43,8.43,0,0,1,3.71-3c3.92,4.38,18.45,18.71,36.14,13.47-5.24,17.65,9.06,32.16,13.47,36.14A8.43,8.43,0,0,1,159.5,82.82Z"/></svg>