<svg xmlns="http://www.w3.org/2000/svg" xmlns:xlink="http://www.w3.org/1999/xlink" viewBox="0 0 457.88 293.3"><defs><style>.cls-1{fill:none;}.cls-2{isolation:isolate;}.cls-3{fill:#2ba652;}.cls-4{opacity:0.7;}.cls-5{clip-path:url(#clip-path);}.cls-6{mix-blend-mode:multiply;opacity:0.3;fill:url(#linear-gradient);}</style><clipPath id="clip-path"><rect class="cls-1" x="62.82" y="483.12" width="618.32" height="546.91"/></clipPath><linearGradient id="linear-gradient" x1="1701.76" y1="-767.13" x2="1215.31" y2="-528.1" gradientTransform="matrix(-1, 0, 0, 1, 1784.95, 1288.59)" gradientUnits="userSpaceOnUse"><stop offset="0" stop-color="#fff" stop-opacity="0"/><stop offset="1" stop-color="#666"/></linearGradient></defs><g class="cls-2"><g id="Capa_1" data-name="Capa 1"><path class="cls-3" d="M431.71,101.75A11.24,11.24,0,0,0,420.48,113v30H408.06L408,54.73c.22-3.59.9-13.56,1.28-16.58.31-2.39,4.51-4.68,6.59-5.34a10.11,10.11,0,0,0,7.15-8.5,11.11,11.11,0,0,0,1.19-4.94A11.23,11.23,0,0,0,413,8.14H315.63A11.2,11.2,0,0,0,308,27.58a9.69,9.69,0,0,0,3.43,4.05,52.62,52.62,0,0,1,6.8,5.13,21,21,0,0,1,1.3,11.85h0a10.07,10.07,0,0,0-.35,2.66V143H273.25l0-88.22c.22-3.59.89-13.56,1.28-16.58.3-2.39,4.5-4.68,6.59-5.34a10.11,10.11,0,0,0,7.14-8.5,11.11,11.11,0,0,0,1.19-4.94A11.23,11.23,0,0,0,278.18,8.14H180.82a11.2,11.2,0,0,0-7.62,19.44,9.84,9.84,0,0,0,3.43,4.05,51.92,51.92,0,0,1,6.8,5.13,21,21,0,0,1,1.3,11.85h0a10.07,10.07,0,0,0-.35,2.66V143H138.45l0-88.22c.22-3.59.89-13.56,1.28-16.58.31-2.39,4.5-4.68,6.59-5.34a10.14,10.14,0,0,0,7.15-8.5,11.16,11.16,0,0,0-10-16.17H46a11.2,11.2,0,0,0-7.62,19.44,9.84,9.84,0,0,0,3.43,4.05,51.24,51.24,0,0,1,6.8,5.13,21,21,0,0,1,1.3,11.85h0a10.5,10.5,0,0,0-.35,2.66V143H31V113a11.24,11.24,0,1,0-22.47,0V232.82a11.24,11.24,0,0,0,22.47,0v-30H49.58v38.59A44.54,44.54,0,0,0,94,286c24.12,0,44.49-20.92,44.49-45.7l0-37.44h45.91v38.59A44.54,44.54,0,0,0,228.82,286c24.12,0,44.49-20.92,44.49-45.7l0-37.44H319.2v38.59A44.54,44.54,0,0,0,363.63,286c24.12,0,44.49-20.92,44.49-45.7l0-37.44h12.38v30a11.23,11.23,0,0,0,22.46,0V113A11.24,11.24,0,0,0,431.71,101.75Zm-94.2-71.14h53a22.57,22.57,0,0,0-1.25,5c-.55,4.24-1.32,16.52-1.43,18.54V68.05H339.41V52.36A41.35,41.35,0,0,0,337.51,30.61Zm1.9,59.91h48.42l0,52.43H339.41ZM202.7,30.61h53a22.57,22.57,0,0,0-1.25,5c-.55,4.24-1.32,16.52-1.42,18.54l0,51.4H204.6V52.36A41.35,41.35,0,0,0,202.7,30.61ZM204.6,128H253v15H204.6ZM67.9,30.61h53a22,22,0,0,0-1.26,5c-.54,4.24-1.32,16.52-1.42,18.54V83H69.79V52.36A41.32,41.32,0,0,0,67.9,30.61Zm1.89,74.89h48.43l0,37.45H69.79Zm48.5,134.81c0,13.81-11.12,25.48-24.28,25.48a24.31,24.31,0,0,1-24.22-24.34V202.86h48.48Zm134.8,0c0,13.81-11.11,25.48-24.27,25.48a24.31,24.31,0,0,1-24.22-24.34V202.86h48.48Zm134.81,0c0,13.81-11.12,25.48-24.27,25.48a24.31,24.31,0,0,1-24.22-24.34V202.86h48.47ZM31,180.39v-15H420.48v15Z"/><g class="cls-4"><g class="cls-5"><path class="cls-6" d="M53.88,1051.85l666-604.64L445.57,154.73s-420-11.25-423.07-8.44-81,38-90.08,91.4S-136.4,634.22-136.4,665.16,53.88,1051.85,53.88,1051.85Z"/></g></g></g></g></svg>