<svg xmlns="http://www.w3.org/2000/svg" width="39.252" height="39.254" viewBox="0 0 39.252 39.254">
  <path id="Servicios_Autorizados_Consulta_Nutricional" data-name="Servicios Autorizados_Consulta Nutricional" d="M43.119,27.171H41.426a12.369,12.369,0,0,0-2.149-4.382c-3.2-4.136-7.536-2.944-10.117-2.242-.456.123-.873.231-1.251.309-.643-1.668-1.472-5.657,3.557-8.567a1.227,1.227,0,1,0-1.227-2.125,10.853,10.853,0,0,0-4.126,3.925,7.9,7.9,0,0,0-.81-1.148A8.724,8.724,0,0,0,18.586,10a1.227,1.227,0,0,0-1.227,1.227A8.7,8.7,0,0,0,20.3,17.942a7.458,7.458,0,0,0,4.8,1.869c.044.255.093.491.152.751h-.064c-2.591-.707-6.918-1.894-10.127,2.242A12.454,12.454,0,0,0,14.342,37H11.227A1.227,1.227,0,0,0,10,38.21v9.813a1.227,1.227,0,0,0,1.227,1.227H43.119a6.138,6.138,0,0,0,6.133-6.133V33.3A6.143,6.143,0,0,0,43.119,27.171ZM21.908,16.082a6.04,6.04,0,0,1-1.963-3.508,6.02,6.02,0,0,1,3.508,1.963,5.108,5.108,0,0,1,1.266,2.821A5.137,5.137,0,0,1,21.908,16.082ZM17,24.291c2.2-2.846,5.034-2.066,7.536-1.379a10.2,10.2,0,0,0,2.125.363,1.05,1.05,0,0,0,1.021,0,10.421,10.421,0,0,0,2.115-.368c2.507-.682,5.338-1.472,7.536,1.379,3.508,4.534,2.1,9.558-.275,12.7H17.291c-2.385-3.135-3.788-8.159-.285-12.693ZM46.8,43.117a3.685,3.685,0,0,1-3.68,3.68H41.892V45.57a1.227,1.227,0,1,0-2.453,0V46.8H36.986v-3.68a1.227,1.227,0,0,0-2.453,0V46.8H32.079V45.57a1.227,1.227,0,0,0-2.453,0V46.8H27.173V45.57a1.227,1.227,0,0,0-2.453,0V46.8H22.266v-3.68a1.227,1.227,0,0,0-2.453,0V46.8H17.36V45.57a1.227,1.227,0,0,0-2.453,0V46.8H12.453v-7.36H43.119a6.069,6.069,0,0,0,3.68-1.256Zm-3.68-6.133H40a13.007,13.007,0,0,0,1.806-7.36h1.31a3.68,3.68,0,1,1,0,7.36Z" transform="translate(-10 -9.996)" fill="#60a463"/>
</svg>
