<svg xmlns="http://www.w3.org/2000/svg" width="41.737" height="26.7" viewBox="0 0 41.737 26.7">
  <path id="Servicios_Autorizados_Laboratorio_Clínico" data-name="Servicios Autorizados_Laboratorio Clínico" d="M50.647,33.4a1.08,1.08,0,0,0-1.08,1.08v2.879H48.378v-8.47c0-.344.083-1.3.12-1.591s.433-.449.636-.522a.965.965,0,0,0,.683-.819,1.043,1.043,0,0,0,.115-.475,1.08,1.08,0,0,0-1.08-1.08H39.5a1.08,1.08,0,0,0-1.08,1.08,1.043,1.043,0,0,0,.349.8.949.949,0,0,0,.329.391,5.08,5.08,0,0,1,.652.49,2.05,2.05,0,0,1,.125,1.142h0a1.043,1.043,0,0,0-.031.25v8.8H35.427v-8.47c0-.344.083-1.3.125-1.591s.428-.449.631-.522a.981.981,0,0,0,.688-.819,1.1,1.1,0,0,0,.11-.475,1.08,1.08,0,0,0-1.074-1.08H26.545a1.08,1.08,0,0,0-1.074,1.08,1.043,1.043,0,0,0,.344.8.991.991,0,0,0,.329.391,4.839,4.839,0,0,1,.657.49,2.05,2.05,0,0,1,.125,1.142h0a.829.829,0,0,0-.037.25v8.8H22.476v-8.47c0-.344.089-1.3.125-1.591s.433-.449.631-.522a.975.975,0,0,0,.688-.819,1.1,1.1,0,0,0,.115-.475,1.08,1.08,0,0,0-1.08-1.08H13.6a1.08,1.08,0,0,0-.735,1.878.96.96,0,0,0,.334.391,5.08,5.08,0,0,1,.652.49,2.05,2.05,0,0,1,.125,1.142h0a1.043,1.043,0,0,0-.037.25v8.8H12.159V34.477a1.08,1.08,0,0,0-2.159,0V45.988a1.08,1.08,0,0,0,2.159,0V43.109h1.779v3.708A4.277,4.277,0,0,0,18.21,51.1a4.392,4.392,0,0,0,4.272-4.392v-3.6h4.407v3.708A4.277,4.277,0,0,0,31.155,51.1a4.392,4.392,0,0,0,4.277-4.392v-3.6h4.413v3.708A4.277,4.277,0,0,0,44.111,51.1a4.4,4.4,0,0,0,4.277-4.392v-3.6h1.189v2.879a1.08,1.08,0,1,0,2.159,0V34.477a1.08,1.08,0,0,0-1.09-1.08Zm-3.959-6.833a2.044,2.044,0,0,0-.12.475c-.052.407-.125,1.565-.136,1.784v1.34H41.78V28.656A3.959,3.959,0,0,0,41.6,26.57Zm-.256,10.791H41.78V32.323h4.652Zm-12.7-10.791a2.342,2.342,0,0,0-.12.475c-.052.407-.125,1.565-.136,1.784v4.934H28.829v-5.1a4,4,0,0,0-.177-2.086Zm-.266,10.791H28.829v-1.44h4.642ZM20.786,26.565a2.749,2.749,0,0,0-.12.475c-.052.407-.125,1.565-.136,1.784V31.6H15.883V28.656A4.016,4.016,0,0,0,15.7,26.57Zm-.25,10.791H15.883v-3.6h4.653Zm-2.326,11.8a2.331,2.331,0,0,1-2.326-2.337V43.109h4.653v3.6A2.425,2.425,0,0,1,18.21,49.154Zm12.946,0a2.337,2.337,0,0,1-2.326-2.337V43.109h4.642v3.6A2.425,2.425,0,0,1,31.155,49.154Zm12.951,0a2.331,2.331,0,0,1-2.326-2.337V43.109h4.658v3.6A2.42,2.42,0,0,1,44.106,49.154Zm5.461-8.2H12.159v-1.44H49.567Z" transform="translate(-10 -24.4)" fill="#359fda"/>
</svg>
