<svg xmlns="http://www.w3.org/2000/svg" width="30.685" height="39.324" viewBox="0 0 30.685 39.324">
  <path id="Servicios_Autorizados_Rayos_X" data-name="Servicios Autorizados_Rayos X" d="M40.588,24.209l.133.039.039-.133a.989.989,0,0,1,1.9.541l-.192.693,1.774,3.195.693.2a.988.988,0,1,1-.555,1.9l-.133-.039-.039.133a.983.983,0,0,1-.949.718,1.1,1.1,0,0,1-.275-.039.983.983,0,0,1-.678-1.224l.2-.688L40.735,26.3l-.693-.2a.989.989,0,1,1,.546-1.9ZM37.85,25.335l-.1.1.1.1a.991.991,0,0,1-1.4,1.4l-.492-.491H32.286l-.492.492a.989.989,0,0,1-1.4-1.4l.1-.1-.1-.1a.989.989,0,0,1,1.4-1.4l.492.492h3.657l.492-.492a.989.989,0,0,1,1.4,1.4ZM27.469,24.111l.039.138.133-.039a.989.989,0,1,1,.546,1.9l-.693.2L25.72,29.5l.2.688a.983.983,0,0,1-.654,1.224,1.062,1.062,0,0,1-.275.039.983.983,0,0,1-.949-.718L24,30.6l-.133.039a.993.993,0,0,1-.57-1.9l.693-.2,1.764-3.195-.2-.693a.989.989,0,0,1,1.9-.546Zm.6-2.531.708-.708-.708-.7a.991.991,0,1,1,1.4-1.4l1.111,1.116h7.058l1.111-1.116a.991.991,0,0,1,1.4,1.4l-.708.7.708.708a.989.989,0,0,1-1.4,1.4L37.644,21.86H30.586l-1.111,1.116a.989.989,0,0,1-1.4-1.4Zm6.041-3.352A4.119,4.119,0,1,0,30,14.114,4.119,4.119,0,0,0,34.115,18.228Zm0-6.267A2.143,2.143,0,1,1,31.977,14.1,2.143,2.143,0,0,1,34.115,11.961Zm-1.248,30.2V46.99l.58.713a.989.989,0,1,1-1.538,1.244l-.029-.034-.029.034A.989.989,0,1,1,30.31,47.7l.58-.713V42.159l-.58-.708a.989.989,0,0,1,1.538-1.244l.029.034.029-.034a.989.989,0,1,1,1.538,1.244Zm-4.36,2.6a.983.983,0,0,1-.983.983H22.2A3.441,3.441,0,0,1,18.76,42.3V18.5A3.441,3.441,0,0,1,22.2,15.082h4.3a.983.983,0,0,1,0,1.966H22.2a1.44,1.44,0,0,0-1.44,1.435V42.326a1.44,1.44,0,0,0,1.44,1.44h5.318a.983.983,0,0,1,.988.988ZM40.155,32.113a.991.991,0,0,1-1.4,0l-1.111-1.13H30.586l-1.111,1.13a.989.989,0,0,1-1.4-1.4l.708-.708-.708-.7a.991.991,0,0,1,1.4-1.4l1.111,1.116h7.058l1.111-1.116a.991.991,0,1,1,1.4,1.4l-.708.7.708.708a.983.983,0,0,1,0,1.4ZM49.445,18.5V42.326A3.441,3.441,0,0,1,46,45.767H40.711a.983.983,0,1,1,0-1.966h5.318a1.44,1.44,0,0,0,1.44-1.44V18.5a1.44,1.44,0,0,0-1.44-1.435h-4.3a.983.983,0,0,1,0-1.966h4.3a3.441,3.441,0,0,1,3.416,3.4ZM35.363,36.644V34.678L35,34.437a.988.988,0,0,1,1.1-1.642l.246.167L36.6,32.8a.988.988,0,1,1,1.1,1.642l-.359.241v1.966l.359.241a.988.988,0,0,1-1.1,1.642l-.246-.167-.246.167A.988.988,0,1,1,35,36.885Zm1.966,5.515V46.99l.58.713a.989.989,0,1,1-1.538,1.244l-.029-.034-.029.034A.989.989,0,1,1,34.773,47.7l.58-.713V42.159l-.57-.708a.989.989,0,0,1,1.538-1.244l.029.034.029-.034a.989.989,0,1,1,1.538,1.244ZM30.89,36.644V34.678l-.359-.241a.991.991,0,0,1,1.126-1.632l.246.167.246-.167a.988.988,0,1,1,1.1,1.642l-.359.241v1.966l.359.241a.984.984,0,1,1-1.1,1.632L31.9,38.36l-.246.167a.988.988,0,1,1-1.1-1.642Z" transform="translate(-18.76 -9.99)" fill="#6a52b2"/>
</svg>
