<svg xmlns="http://www.w3.org/2000/svg" width="39.078" height="28.337" viewBox="0 0 39.078 28.337">
  <path id="Servicios_Autorizados_Electrocardiograma" data-name="Servicios Autorizados_Electrocardiograma" d="M16.759,25.322a7.849,7.849,0,0,1,11.082,0L29.4,26.88l1.558-1.558a7.815,7.815,0,0,1,13.29,6.711.879.879,0,1,1-1.739-.259A6.076,6.076,0,0,0,32.2,26.568L30.02,28.746a.9.9,0,0,1-1.241,0L26.6,26.568a6.076,6.076,0,0,0-10.052,6.261A.884.884,0,0,1,16,33.948a.826.826,0,0,1-.283.049.874.874,0,0,1-.835-.6A7.815,7.815,0,0,1,16.759,25.322Zm-.576,22.047a.977.977,0,0,1-.977.977h-.781a4.313,4.313,0,0,1-4.4-3.311.977.977,0,0,1-.039-.269V25.044c0-2.764,2.642-4.054,4.43-4.054h.127a.977.977,0,1,1,0,1.954H14.42c-.635,0-2.476.518-2.476,2.1V44.619a2.374,2.374,0,0,0,2.481,1.773h.781A.977.977,0,0,1,16.183,47.369ZM49.068,25.044V44.761a.977.977,0,0,1-.039.269,4.048,4.048,0,0,1-4.093,3.316H43.857a.977.977,0,1,1,0-1.954h1.079c.811,0,1.69-.22,2.178-1.773V25.044a2.144,2.144,0,0,0-2.178-2.1h-.425a.977.977,0,0,1,0-1.954h.425A4.066,4.066,0,0,1,49.068,25.044Zm-9.734,13.47a.884.884,0,0,1,0,1.245L30.02,49.069a.874.874,0,0,1-1.241,0l-8.655-8.65a.881.881,0,0,1,1.245-1.245L29.4,47.2l8.689-8.689a.884.884,0,0,1,1.245,0Zm3.224-2.545H34.074l-3.165,5.47a.977.977,0,0,1-.845.488h-.078a.977.977,0,0,1-.835-.63l-2.8-7.473-1.216,2.847a.977.977,0,0,1-.9.6H16.505a.977.977,0,0,1,0-1.954h7.1l1.9-4.513a.975.975,0,0,1,1.812.039l2.93,7.815,2.408-4.166a.977.977,0,0,1,.85-.488h9.05a.977.977,0,0,1,0,1.954Z" transform="translate(-9.99 -20.99)" fill="#db5859"/>
</svg>
