<svg xmlns="http://www.w3.org/2000/svg" width="47.751" height="31.245" viewBox="0 0 47.751 31.245">
  <path id="Servicios_Autorizados_Tomografía" data-name="Servicios Autorizados_Tomografía" d="M26.118,43.109a3.832,3.832,0,1,0-3.826-3.832,3.832,3.832,0,0,0,3.826,3.832Zm0-5.814a1.982,1.982,0,1,1-1.982,1.982A1.982,1.982,0,0,1,26.118,37.295Zm9.342,1.486c-.239.036-5.844,1-5.844,4.68v.09h-5.7a1.027,1.027,0,0,0,0,2.053H55.368a1.021,1.021,0,0,0,.812-1.648,1.021,1.021,0,0,0,.161-.6c-.239-3.277-3.319-4.423-4.913-4.572H35.669Zm15.795,2.035c.364.042,2.853.418,2.985,2.674a.216.216,0,0,0,0,.06H31.676v-.09c0-1.576,2.919-2.441,4.053-2.644Zm6.5,6.494a1.027,1.027,0,0,1-1.027,1.027H38.487a16.469,16.469,0,0,1-12.864,6.733,15.621,15.621,0,1,1,14.392-21.7l-1.7.71A13.777,13.777,0,1,0,25.623,53.227a14.678,14.678,0,0,0,10.554-4.889H31.813a10.828,10.828,0,1,1,3.8-13.132l-1.7.722A9,9,0,1,0,29.73,47.413a.89.89,0,0,1,0-.125,1.027,1.027,0,0,1,1.027-1.027H56.728a1.027,1.027,0,0,1,1.027,1.051Z" transform="translate(-10.004 -23.826)" fill="#999245"/>
</svg>
