<svg id="right" xmlns="http://www.w3.org/2000/svg" width="83" height="83" viewBox="0 0 83 83">
  <g id="Grupo_6502" data-name="Grupo 6502">
    <g id="Grupo_6501" data-name="Grupo 6501">
      <path id="Trazado_12399" data-name="Trazado 12399" d="M70.845,12.155a41.5,41.5,0,0,0-58.69,58.69,41.5,41.5,0,1,0,58.69-58.69ZM41.5,78.137A36.637,36.637,0,1,1,78.137,41.5,36.678,36.678,0,0,1,41.5,78.137Z" transform="translate(0 0)" fill="#36b778"/>
    </g>
  </g>
  <g id="Grupo_6504" data-name="Grupo 6504" transform="translate(20.817 27.374)">
    <g id="Grupo_6503" data-name="Grupo 6503">
      <path id="Trazado_12400" data-name="Trazado 12400" d="M169.949,170.184a2.449,2.449,0,0,0-3.463,0l-21.623,21.623-11.382-11.382a2.449,2.449,0,1,0-3.463,3.463L143.131,197a2.449,2.449,0,0,0,3.463,0l23.354-23.354A2.449,2.449,0,0,0,169.949,170.184Z" transform="translate(-129.301 -169.467)" fill="#36b778"/>
    </g>
  </g>
</svg>
