<svg xmlns="http://www.w3.org/2000/svg" width="38.292" height="36.784" viewBox="0 0 38.292 36.784">
  <path id="Servicios_Autorizados_Densitometría_Osea" data-name="Servicios Autorizados_Densitometría Osea" d="M48.293,16.668v1.661a1.13,1.13,0,0,1-2.254,0V16.668a2.551,2.551,0,0,0-2.762-2.848H15.093a2.55,2.55,0,0,0-2.838,2.848v1.661a1.13,1.13,0,0,1-2.254,0V16.668a4.787,4.787,0,0,1,5.093-5.1H43.276C46.976,11.57,48.293,14.313,48.293,16.668Zm0,24.933v1.288a5.236,5.236,0,0,1-4.878,5.461.7.7,0,0,1-.139,0H15.093A5.134,5.134,0,0,1,10,42.889v-.536a1.13,1.13,0,0,1,2.254,0v.536a2.889,2.889,0,0,0,2.872,3.221H43.2a3.005,3.005,0,0,0,2.838-3.221V41.6a1.13,1.13,0,0,1,2.254,0Zm-29.73-14.47a.957.957,0,0,0-.211.235,3.92,3.92,0,0,0-1.469,2.479,6.192,6.192,0,0,0,1.747,4.662c1.4,1.651,1.4,3.193,1.245,5.17-.144,1.915-.187,3.757-.187,3.829a1.058,1.058,0,0,0,.991,1.091h0a1.067,1.067,0,0,0,1.015-1.048s.043-1.915.187-3.757c.168-2.216.163-4.389-1.718-6.615a4.139,4.139,0,0,1-1.292-3.049,2.092,2.092,0,0,1,1.067-1.436,3.786,3.786,0,0,1,2.872.067.866.866,0,0,1,.531.833c0,2.321,0,3.724,1.57,4.9a5.1,5.1,0,0,0,2.776.909,3.877,3.877,0,0,1,.651.091.723.723,0,0,1,.239.507.258.258,0,0,1-.163.254,5.843,5.843,0,0,0-2.666,2.709,12.3,12.3,0,0,0-.239,4.4,1.015,1.015,0,0,0,2.02-.187,10.955,10.955,0,0,1,.12-3.47c.249-.6.766-1.063,1.862-1.742a2.293,2.293,0,0,0,1.106-2.2v-.148a1.015,1.015,0,0,0-.144-.68,1.465,1.465,0,0,1-.168-1.029,2.484,2.484,0,0,1,1.235-1.393l.038-.038a4.006,4.006,0,0,0,2.03-1.024,6.405,6.405,0,0,0,1.948-6,3.645,3.645,0,0,0-.048-.421,5.461,5.461,0,0,1,1.369-3.523c1.273-1.761,2.81-3.652,2.824-3.671a1.016,1.016,0,0,0-1.58-1.278c-.062.077-1.589,1.953-2.872,3.762a7.425,7.425,0,0,0-1.742,4.887,4.623,4.623,0,0,0,.048.479A4.442,4.442,0,0,1,32.234,30a2.326,2.326,0,0,1-3.312-.34c-.187-.4-.182-.527-.086-1.4.034-.316.072-.7.11-1.182.177-2.393-2.116-3.6-3.351-3.887a.216.216,0,0,0-.077,0s-1.843-.282-3.2-.661a1.292,1.292,0,0,1-.7-.957,1.728,1.728,0,0,1,.541-1.714c.957-.838,2.154-.632,3.4-.412.407.072.79.139,1.168.168a4.7,4.7,0,0,0,4.562-1.872,5.174,5.174,0,0,1,.44-.479,1.015,1.015,0,0,0-1.359-1.508,7.05,7.05,0,0,0-.637.689A2.742,2.742,0,0,1,26.863,17.6c-.273-.024-.608-.081-.957-.144-1.436-.254-3.351-.6-5.079.871a3.805,3.805,0,0,0-.924,4.471,1,1,0,0,0,0,.316A4.192,4.192,0,0,1,18.563,27.131Zm3.4-2.623c1.316.345,2.872.594,3.15.641s1.852.541,1.761,1.757c-.034.479-.072.819-.1,1.115a4,4,0,0,0,.254,2.46,3.6,3.6,0,0,0,1.876,1.675A3.628,3.628,0,0,0,28.3,33.44l-.421-.048a3.207,3.207,0,0,1-1.752-.507c-.708-.536-.761-.957-.761-3.279a2.872,2.872,0,0,0-1.584-2.613,5.174,5.174,0,0,0-2.254-.555A6.4,6.4,0,0,0,21.966,24.508Z" transform="translate(-10 -11.57)" fill="#7f95a0"/>
</svg>
