<svg xmlns="http://www.w3.org/2000/svg" width="45.206" height="30.277" viewBox="0 0 45.206 30.277">
  <path id="Servicios_Autorizados_Ultrasonido" data-name="Servicios Autorizados_Ultrasonido" d="M54.712,47.836a45.986,45.986,0,0,1-44.214.023.966.966,0,0,1-.379-1.305L22.665,23.728a.966.966,0,0,1,1.305-.379,17.835,17.835,0,0,0,17.27,0,.966.966,0,0,1,1.305.379l1.7,3.052a.966.966,0,0,1-1.7.927l-1.226-2.232a19.954,19.954,0,0,1-8.714,1.989A19.875,19.875,0,0,1,23.9,25.452L12.261,46.6a44.01,44.01,0,0,0,40.687,0L43.907,30.17a.955.955,0,0,1,.379-1.305.966.966,0,0,1,1.305.379l9.5,17.287A.966.966,0,0,1,54.712,47.836ZM48.5,44.213H46.439a.961.961,0,0,1,0-1.921h2.046a.961.961,0,0,1,0,1.921ZM24.129,30.25a.961.961,0,1,1,0-1.916H26.18a.961.961,0,1,1,0,1.916Zm22.31,14.987a.961.961,0,0,1,0,1.921H44.388a.961.961,0,1,1,0-1.921Zm-9.878-8.42a.961.961,0,1,1,.961-.961A.961.961,0,0,1,36.561,36.816Zm7.736-1.4a.825.825,0,0,1-.254,1.13,20.609,20.609,0,0,1-11.161,3.317A22.6,22.6,0,0,1,21.2,36.528a.819.819,0,0,1-.215-1.13.831.831,0,0,1,1.13-.215,19.584,19.584,0,0,0,21.028,0,.819.819,0,0,1,1.125.232Zm1.87,4.108a.831.831,0,0,1-.254,1.13,24.023,24.023,0,0,1-13.026,3.871,26.453,26.453,0,0,1-13.63-3.888.827.827,0,1,1,.938-1.362c.486.333,12.048,8.07,24.865,0A.825.825,0,0,1,46.168,39.523ZM41.082,47.05a.825.825,0,0,1-.565,1.029,27.052,27.052,0,0,1-7.736,1.13A29.318,29.318,0,0,1,17.3,44.688a.825.825,0,1,1,.932-1.356c.1.068,9.929,6.674,21.819,3.148a.819.819,0,0,1,1.034.571Z" transform="translate(-10.002 -23.232)" fill="#339ba4"/>
</svg>
