<svg xmlns="http://www.w3.org/2000/svg" width="44.751" height="50.639" viewBox="0 0 44.751 50.639">
  <path id="Mesa_de_trabajo_1" data-name="Mesa de trabajo 1" d="M37.027,10a22.361,22.361,0,0,0-6.215,43.843v.3h-.937a3.247,3.247,0,1,0-.285,6.488,2.138,2.138,0,0,0,.285,0h14.3a3.247,3.247,0,1,0,.285-6.488,2.139,2.139,0,0,0-.285,0h-.7v-.392A22.349,22.349,0,0,0,37.027,10Zm4.728,36.127a1.19,1.19,0,0,0-.633,1.063v8.146a1.2,1.2,0,0,0,1.2,1.19h1.9a.867.867,0,0,1,0,1.728H29.875a.867.867,0,0,1,0-1.728H32a1.19,1.19,0,0,0,1.19-1.19V47.051a1.2,1.2,0,0,0-.7-1.089l-3.658-1.62a3.8,3.8,0,0,1,3.722-3.057H41.5a3.8,3.8,0,0,1,3.753,3.095ZM27.729,32.38A9.3,9.3,0,1,1,43.3,39.2a6.006,6.006,0,0,0-1.8-.3h-8.95a5.867,5.867,0,0,0-1.81.3A9.247,9.247,0,0,1,27.729,32.38Zm26.254-4.329h2.532c.082.386.146.785.209,1.177H53.983a1.2,1.2,0,1,0-.171,2.386h3.165c0,.253.038.506.038.766v.291H53.977a1.2,1.2,0,1,0-.171,2.386h3.013A19.975,19.975,0,0,1,43.483,51.241V47.925l3.538-1.772a1.2,1.2,0,0,0,.633-1.07,6.158,6.158,0,0,0-2.183-4.7A11.557,11.557,0,0,0,48.7,32.374,11.677,11.677,0,1,0,28.571,40.38a6.139,6.139,0,0,0-2.2,4.684,1.2,1.2,0,0,0,.709,1.089l3.728,1.658V51.33A20.019,20.019,0,0,1,17.229,35.057h3.215a1.2,1.2,0,1,0,.171-2.386h-3.57V32.38a5.133,5.133,0,0,1,.038-.766h3.361a1.2,1.2,0,1,0,.171-2.386.772.772,0,0,0-.171,0H17.28c.063-.392.127-.791.209-1.177h2.956a1.2,1.2,0,1,0,.171-2.386h-2.4a19.962,19.962,0,0,1,37.621,0H53.983a1.2,1.2,0,1,0-.171,2.386Z" transform="translate(-14.659 -10)" fill="#896f67"/>
</svg>
