<svg xmlns="http://www.w3.org/2000/svg" width="42.369" height="49.626" viewBox="0 0 42.369 49.626">
  <path id="Servicios_Autorizados_Papanicolaou" data-name="Servicios Autorizados_Papanicolaou" d="M57.891,34.492c-1.864-2.485-10.734-2.634-12.685-2.634-2.18,0-13.045.174-13.045,3.634v.814l1.292,18.71a4.727,4.727,0,0,0,4.721,4.721h14.07a4.715,4.715,0,0,0,4.715-4.653l1.3-18.853v-.721a1.59,1.59,0,0,0-.311-.9C57.934,34.548,57.9,34.48,57.891,34.492Zm-12.685-.559c6.075,0,9.759.938,10.784,1.559-1.025.621-4.709,1.559-10.784,1.559s-9.759-.919-10.778-1.541C35.453,34.89,39.13,33.933,45.206,33.933Zm5.423,4.926v3.106c-1.311.149-2.851.242-4.591.267V39.126C47.125,39.108,48.821,39.046,50.629,38.859Zm-6.672.261v3.106a45.828,45.828,0,0,1-5.168-.391V38.729a51.682,51.682,0,0,0,5.168.391ZM34.329,37.7a13.666,13.666,0,0,0,2.379.7v3.106a10.38,10.38,0,0,1-2.162-.671ZM54.884,55.017a2.646,2.646,0,0,1-2.64,2.64H38.174a2.665,2.665,0,0,1-2.646-2.715l-.82-11.8c3.423,1.162,9,1.242,10.511,1.242s7.057-.087,10.492-1.242Zm.981-14.2a13.53,13.53,0,0,1-3.156.857V38.617a16.448,16.448,0,0,0,3.373-.876ZM42.013,24.33l.236.236.186.18c.3.3.516.478.578.534a1.665,1.665,0,0,0,1.609.137,2.876,2.876,0,0,0,1.485-1.864,1.448,1.448,0,0,0,0-.435l2.087-2.087a.752.752,0,0,0,0-1.068.721.721,0,0,0-.621-.2l.571-.572a.752.752,0,0,0,0-1.068.721.721,0,0,0-.621-.2l.621-.621a.752.752,0,0,0,0-1.068.739.739,0,0,0-.745-.18l.466-.46a.764.764,0,0,0,0-1.068.739.739,0,0,0-.621-.2l.478-.478a.752.752,0,0,0,0-1.068.739.739,0,0,0-.745-.18l.509-.5a.764.764,0,0,0,0-1.068.752.752,0,0,0-1.068,0l-.447.447a.721.721,0,0,0-.2-.621.752.752,0,0,0-1.068,0l-.478.478a.739.739,0,0,0-.311-.671.752.752,0,0,0-1.062,0l-.466.466a.739.739,0,0,0-.18-.745.752.752,0,0,0-1.068,0L40.516,11a.727.727,0,0,0-.2-.621.752.752,0,0,0-1.068,0l-.571.571a.739.739,0,0,0-.2-.621.752.752,0,0,0-1.068,0l-2.05,2.044a1.553,1.553,0,0,0-.509,0,2.87,2.87,0,0,0-1.864,1.478,1.677,1.677,0,0,0,.149,1.628c.043.05.224.267.522.565l.18.18.236.242a8.138,8.138,0,0,0,3.92,2.385L16.227,40.58a1.131,1.131,0,0,0,1.6,1.6l21.8-21.8A8.156,8.156,0,0,0,42.013,24.33ZM34.944,15.1l-.186-.193a4.271,4.271,0,0,0-.373-.373.311.311,0,0,1,0-.162,1.547,1.547,0,0,1,.733-.6c.752.839,3.535,3.584,6.92,2.578-1,3.386,1.739,6.162,2.584,6.926a1.59,1.59,0,0,1-.584.708c-.05,0-.143.031-.087.068-.056-.05-.224-.193-.453-.416l-.186-.186c-1.062-1.056-2.857-2.82-2.143-5.293a.211.211,0,0,0,0-.062.9.9,0,0,0,0-.3.211.211,0,0,0,0-.062.372.372,0,0,0-.037-.068.565.565,0,0,0-.068-.137.808.808,0,0,0-.093-.112l-.106-.087a.584.584,0,0,0-.137-.075.373.373,0,0,1-.068-.037H40.6a.429.429,0,0,0-.155,0h-.2C37.758,17.956,35.993,16.155,34.944,15.1Z" transform="translate(-15.894 -10.111)" fill="#a351ba"/>
</svg>
