<svg xmlns="http://www.w3.org/2000/svg" width="28.221" height="38.345" viewBox="0 0 28.221 38.345">
  <path id="Servicios_Autorizados_Mastografía" data-name="Servicios Autorizados_Mastografía" d="M40.721,31.789l4.748-6.161a.7.7,0,0,0,.091-.125C47.831,21.551,43,13.118,42.24,11.844v-.22h-.153a.532.532,0,0,0-.206-.168.556.556,0,0,0-.11-.067l-.057-.048h-.048a18.963,18.963,0,0,0-14.014,0l-.105.043-.12.072-.11.077a1.035,1.035,0,0,0-.2.23l-.043.081h0c-.762,1.279-5.591,9.711-3.354,13.645a.623.623,0,0,0,.081.125l4.762,6.176-7.239,8.873a3.445,3.445,0,0,0,.393,4.791l2.261,2.012a3.406,3.406,0,0,0,2.611.862A3.483,3.483,0,0,0,28.983,47l5.668-7.34L40.3,46.981a3.5,3.5,0,0,0,2.424,1.346h.311a3.493,3.493,0,0,0,2.3-.872l2.247-2a3.459,3.459,0,0,0,.378-4.791Zm.958-20.084Zm.355,3.981c1.916,4.072,2.621,7.321,1.835,8.792l-4.427,5.759-3.536-4.312,3.517-4.312a14.507,14.507,0,0,0,2.635-5.927Zm-7.383,8.686-2.927-3.579a10.061,10.061,0,0,1,5.855,0Zm5.673-11.446-.211,2.463c-.034.153-.067.3-.12.513l-.048.182c-.034.125-.072.249-.11.378s-.053.187-.086.283l-.1.3c-.043.125-.086.249-.144.388a.535.535,0,0,1-.057.158,14.627,14.627,0,0,1-.719,1.514,11.925,11.925,0,0,0-8.145,0,13.918,13.918,0,0,1-.723-1.552l-.283.115h0l.244-.22c-.057-.144-.11-.292-.163-.446-.029-.072-.053-.153-.081-.235l-.12-.383a1.547,1.547,0,0,0-.081-.307,2.4,2.4,0,0,1-.072-.283c-.034-.129-.067-.259-.105-.441L29,12.927A17.128,17.128,0,0,1,40.323,12.927ZM27.464,45.788a1.5,1.5,0,0,1-2.194.2l-2.261-2.007a1.509,1.509,0,0,1-.168-2.084l6.966-8.518,3.612,4.681Zm18.853-1.811L44.051,45.99a1.437,1.437,0,0,1-1.14.378,1.5,1.5,0,0,1-1.073-.58L25.419,24.5c-.8-1.437-.12-4.714,1.83-8.811a14.627,14.627,0,0,0,2.611,5.927L38.647,32.34v.2h.163L46.475,41.9a1.5,1.5,0,0,1-.168,2.075Z" transform="translate(-20.533 -9.999)" fill="#ed4b80"/>
</svg>
