<svg xmlns="http://www.w3.org/2000/svg" width="15.424" height="21.712" viewBox="0 0 15.424 21.712">
  <g id="Grupo_3578" data-name="Grupo 3578" transform="translate(-37.329 -0.839)">
    <path id="Iconos_Carrito_de_Compras_Avatar" data-name="Iconos Carrito de Compras_Avatar" d="M29.332,19.415a4.35,4.35,0,0,0,4.345-4.35v-.72a4.345,4.345,0,1,0-8.69,0v.72a4.35,4.35,0,0,0,4.345,4.35ZM25.842,14.35a3.489,3.489,0,1,1,6.979,0v.714a3.489,3.489,0,1,1-6.979,0ZM36.812,28.366c.021-.229.032-.461.032-.69a7.512,7.512,0,1,0-15.024,0,4.989,4.989,0,0,0,.032.69.133.133,0,0,0,.016.027v.048l.016.037.016.04a.23.23,0,0,0,.019.027.266.266,0,0,0,.029.045h0a.432.432,0,0,0,.048.051,11.4,11.4,0,0,0,14.661,0h0A.343.343,0,0,0,36.7,28.6v-.013a.416.416,0,0,0,.112-.216Zm-14.117-.24c0-.147-.021-.3-.021-.44a6.664,6.664,0,1,1,13.328,0,3.057,3.057,0,0,1-.021.44,10.527,10.527,0,0,1-13.275,0Z" transform="translate(15.709 -8.96)" fill="#616161" stroke="#616161" stroke-width="0.4"/>
  </g>
</svg>
